{"glyphs":{"0":{"ha":833,"x_min":103,"x_max":731,"o":"m 417 -14 q 251 24 321 -14 q 142 128 181 61 q 103 286 103 196 l 103 728 q 141 886 103 819 q 250 990 179 953 q 417 1028 321 1028 q 584 990 514 1028 q 692 886 654 953 q 731 728 731 819 l 731 286 q 692 128 731 196 q 583 24 653 61 q 417 -14 513 -14 m 417 115 q 541 163 494 115 q 588 286 588 210 l 588 728 q 541 851 588 804 q 417 899 494 899 q 292 851 339 899 q 246 728 246 804 l 246 286 q 292 163 246 210 q 417 115 339 115 m 417 421 q 353 446 378 421 q 329 511 329 471 q 353 574 329 550 q 417 599 378 599 q 480 574 456 599 q 504 511 504 550 q 480 446 504 471 q 417 421 456 421 z "},"1":{"ha":833,"x_min":119,"x_max":758,"o":"m 121 0 l 121 133 l 390 133 l 390 883 l 119 682 l 119 844 l 351 1014 l 540 1014 l 540 133 l 758 133 l 758 0 l 121 0 z "},"2":{"ha":833,"x_min":90,"x_max":738,"o":"m 118 0 l 118 149 l 432 472 q 538 608 504 547 q 572 728 572 668 q 530 850 572 806 q 414 894 488 894 q 287 848 333 894 q 240 721 240 801 l 90 721 q 133 884 93 815 q 246 990 174 953 q 415 1028 318 1028 q 578 992 508 1028 q 685 890 647 956 q 722 736 722 825 q 676 560 722 646 q 524 368 629 474 l 294 136 l 738 136 l 738 0 l 118 0 z "},"3":{"ha":833,"x_min":90,"x_max":721,"o":"m 404 -14 q 238 22 308 -14 q 128 124 167 58 q 90 278 90 190 l 240 278 q 284 158 240 201 q 406 115 328 115 q 528 160 485 115 q 571 278 571 204 l 571 353 q 528 473 571 431 q 406 515 485 515 l 297 515 l 297 657 l 533 882 l 133 882 l 133 1014 l 686 1014 l 686 872 l 407 610 l 407 646 q 636 567 551 646 q 721 354 721 488 l 721 278 q 682 124 721 190 q 572 22 643 58 q 404 -14 500 -14 z "},"4":{"ha":833,"x_min":101,"x_max":704,"o":"m 556 0 l 556 211 l 101 211 l 101 436 l 496 1014 l 663 1014 l 246 400 l 246 346 l 556 346 l 556 583 l 704 583 l 704 0 l 556 0 z "},"5":{"ha":833,"x_min":108,"x_max":725,"o":"m 414 -14 q 200 53 282 -14 q 108 235 118 121 l 257 235 q 304 149 264 179 q 415 118 344 118 q 535 160 494 118 q 576 279 576 203 l 576 378 q 536 498 576 456 q 417 540 496 540 q 331 517 367 540 q 278 454 294 494 l 129 454 l 136 1014 l 689 1014 l 689 878 l 279 878 l 276 563 l 315 563 l 275 526 q 326 629 275 592 q 464 667 378 667 q 656 591 588 667 q 725 378 725 515 l 725 279 q 643 65 725 144 q 414 -14 561 -14 z "},"6":{"ha":833,"x_min":85,"x_max":749,"o":"m 418 -14 q 243 28 318 -14 q 126 145 168 69 q 85 319 85 221 q 108 470 85 394 q 174 615 131 546 l 421 1014 l 588 1014 l 293 547 l 300 543 q 374 605 328 583 q 478 626 421 626 q 621 588 560 626 q 715 478 682 549 q 749 313 749 408 q 707 142 749 215 q 592 27 665 68 q 418 -14 518 -14 m 417 115 q 550 169 500 115 q 600 313 600 224 q 550 456 600 401 q 417 510 500 510 q 283 456 333 510 q 233 313 233 401 q 283 169 233 224 q 417 115 333 115 z "},"7":{"ha":833,"x_min":97,"x_max":749,"o":"m 236 0 l 600 876 l 246 876 l 246 728 l 97 728 l 97 1014 l 749 1014 l 749 869 l 397 0 l 236 0 z "},"8":{"ha":833,"x_min":100,"x_max":733,"o":"m 417 -14 q 249 19 319 -14 q 139 115 178 53 q 100 258 100 176 q 150 415 100 350 q 304 529 200 481 l 450 597 q 536 667 506 624 q 567 764 567 711 q 526 863 567 826 q 417 899 486 899 q 306 862 347 899 q 265 763 265 825 q 296 667 265 711 q 379 599 326 624 l 525 532 q 684 415 635 481 q 733 258 733 349 q 648 60 733 133 q 417 -14 563 -14 m 417 117 q 540 158 494 117 q 586 265 586 199 q 556 366 586 319 q 471 439 525 413 l 321 510 q 168 621 218 558 q 118 771 118 683 q 155 906 118 847 q 258 997 192 964 q 417 1029 325 1029 q 575 997 508 1029 q 678 906 642 964 q 714 771 714 847 q 665 621 714 682 q 511 508 615 560 l 360 438 q 277 367 307 413 q 247 268 247 321 q 293 158 247 200 q 417 117 339 117 z "},"9":{"ha":833,"x_min":85,"x_max":749,"o":"m 246 0 l 540 467 l 533 471 q 459 409 506 431 q 356 388 413 388 q 213 426 274 388 q 118 536 151 465 q 85 701 85 607 q 126 873 85 800 q 242 987 168 946 q 415 1028 317 1028 q 590 986 515 1028 q 707 869 665 944 q 749 694 749 794 q 726 544 749 621 q 660 399 703 468 l 413 0 l 246 0 m 417 504 q 550 558 500 504 q 600 701 600 613 q 550 844 600 790 q 417 899 500 899 q 283 844 333 899 q 233 701 233 790 q 283 558 233 613 q 417 504 333 504 z "},"A":{"ha":833,"x_min":60,"x_max":774,"o":"m 60 0 l 318 1014 l 515 1014 l 774 0 l 622 0 l 561 257 l 274 257 l 213 0 l 60 0 m 301 381 l 532 381 l 463 674 q 433 809 444 751 q 417 888 421 867 q 401 809 413 867 q 371 675 390 751 l 301 381 z "},"Á":{"ha":833,"x_min":60,"x_max":774,"o":"m 60 0 l 318 1014 l 515 1014 l 774 0 l 622 0 l 561 257 l 274 257 l 213 0 l 60 0 m 301 381 l 532 381 l 463 674 q 433 809 444 751 q 417 888 421 867 q 401 809 413 867 q 371 675 390 751 l 301 381 m 324 1125 l 471 1319 l 632 1319 l 475 1125 l 324 1125 z "},"Ă":{"ha":833,"x_min":60,"x_max":774,"o":"m 60 0 l 318 1014 l 515 1014 l 774 0 l 622 0 l 561 257 l 274 257 l 213 0 l 60 0 m 301 381 l 532 381 l 463 674 q 433 809 444 751 q 417 888 421 867 q 401 809 413 867 q 371 675 390 751 l 301 381 m 417 1117 q 249 1172 313 1117 q 185 1319 185 1228 l 301 1319 q 333 1239 301 1269 q 415 1208 364 1208 q 501 1239 469 1208 q 532 1319 532 1269 l 649 1319 q 585 1172 649 1228 q 417 1117 521 1117 z "},"Ắ":{"ha":833,"x_min":60,"x_max":774,"o":"m 326 1251 l 472 1417 l 619 1417 l 465 1251 l 326 1251 m 378 1083 q 228 1133 283 1083 q 172 1265 172 1182 l 281 1265 q 306 1200 281 1225 q 378 1175 332 1175 l 454 1175 q 526 1200 500 1175 q 553 1265 553 1225 l 660 1265 q 605 1133 660 1182 q 454 1083 550 1083 l 378 1083 m 60 0 l 318 1014 l 515 1014 l 774 0 l 622 0 l 561 257 l 274 257 l 213 0 l 60 0 m 301 381 l 532 381 l 463 674 q 433 809 444 751 q 417 888 421 867 q 401 809 413 867 q 371 675 390 751 l 301 381 z "},"Ặ":{"ha":833,"x_min":60,"x_max":774,"o":"m 417 1117 q 249 1172 313 1117 q 185 1319 185 1228 l 301 1319 q 333 1239 301 1269 q 415 1208 364 1208 q 501 1239 469 1208 q 532 1319 532 1269 l 649 1319 q 585 1172 649 1228 q 417 1117 521 1117 m 60 0 l 318 1014 l 515 1014 l 774 0 l 622 0 l 561 257 l 274 257 l 213 0 l 60 0 m 301 381 l 532 381 l 463 674 q 433 809 444 751 q 417 888 421 867 q 401 809 413 867 q 371 675 390 751 l 301 381 m 431 -304 q 353 -279 382 -304 q 324 -210 324 -254 q 353 -141 324 -167 q 431 -115 382 -115 q 508 -141 479 -115 q 538 -210 538 -167 q 508 -279 538 -254 q 431 -304 479 -304 z "},"Ằ":{"ha":833,"x_min":60,"x_max":774,"o":"m 378 1083 q 228 1133 283 1083 q 172 1265 172 1182 l 281 1265 q 306 1200 281 1225 q 378 1175 332 1175 l 454 1175 q 526 1200 500 1175 q 553 1265 553 1225 l 660 1265 q 605 1133 660 1182 q 454 1083 550 1083 l 378 1083 m 372 1251 l 235 1417 l 378 1417 l 506 1251 l 372 1251 m 60 0 l 318 1014 l 515 1014 l 774 0 l 622 0 l 561 257 l 274 257 l 213 0 l 60 0 m 301 381 l 532 381 l 463 674 q 433 809 444 751 q 417 888 421 867 q 401 809 413 867 q 371 675 390 751 l 301 381 z "},"Ẳ":{"ha":833,"x_min":60,"x_max":774,"o":"m 351 1226 l 407 1293 q 418 1317 418 1306 q 401 1329 418 1329 l 303 1329 l 303 1417 l 438 1417 q 503 1397 481 1417 q 526 1343 526 1378 q 520 1303 526 1322 q 503 1269 514 1285 l 468 1226 l 351 1226 m 378 1083 q 228 1133 283 1083 q 172 1265 172 1182 l 281 1265 q 306 1200 281 1225 q 378 1175 332 1175 l 454 1175 q 526 1200 500 1175 q 553 1265 553 1225 l 660 1265 q 605 1133 660 1182 q 454 1083 550 1083 l 378 1083 m 60 0 l 318 1014 l 515 1014 l 774 0 l 622 0 l 561 257 l 274 257 l 213 0 l 60 0 m 301 381 l 532 381 l 463 674 q 433 809 444 751 q 417 888 421 867 q 401 809 413 867 q 371 675 390 751 l 301 381 z "},"Ẵ":{"ha":833,"x_min":60,"x_max":774,"o":"m 375 1083 q 234 1124 286 1083 q 182 1246 182 1165 l 289 1246 q 312 1192 289 1210 q 372 1175 335 1175 l 461 1175 q 522 1192 500 1175 q 544 1246 544 1210 l 651 1246 q 599 1124 651 1165 q 458 1083 547 1083 l 375 1083 m 525 1274 q 453 1283 483 1274 q 402 1303 424 1292 q 361 1324 381 1315 q 319 1333 342 1333 q 291 1323 303 1333 q 279 1294 279 1313 l 279 1286 l 182 1286 l 182 1294 q 217 1383 182 1350 q 311 1417 251 1417 q 382 1408 353 1417 q 432 1387 411 1399 q 472 1366 453 1375 q 514 1357 492 1357 q 543 1368 532 1357 q 554 1396 554 1379 l 554 1404 l 651 1404 l 651 1396 q 617 1307 651 1340 q 525 1274 583 1274 m 60 0 l 318 1014 l 515 1014 l 774 0 l 622 0 l 561 257 l 274 257 l 213 0 l 60 0 m 301 381 l 532 381 l 463 674 q 433 809 444 751 q 417 888 421 867 q 401 809 413 867 q 371 675 390 751 l 301 381 z "},"Ǎ":{"ha":833,"x_min":60,"x_max":774,"o":"m 60 0 l 318 1014 l 515 1014 l 774 0 l 622 0 l 561 257 l 274 257 l 213 0 l 60 0 m 301 381 l 532 381 l 463 674 q 433 809 444 751 q 417 888 421 867 q 401 809 413 867 q 371 675 390 751 l 301 381 m 347 1125 l 156 1319 l 308 1319 l 418 1214 l 524 1319 l 678 1319 l 486 1125 l 347 1125 z "},"Â":{"ha":833,"x_min":60,"x_max":774,"o":"m 60 0 l 318 1014 l 515 1014 l 774 0 l 622 0 l 561 257 l 274 257 l 213 0 l 60 0 m 301 381 l 532 381 l 463 674 q 433 809 444 751 q 417 888 421 867 q 401 809 413 867 q 371 675 390 751 l 301 381 m 156 1125 l 347 1319 l 486 1319 l 678 1125 l 525 1125 l 415 1231 l 310 1125 l 156 1125 z "},"Ấ":{"ha":833,"x_min":60,"x_max":876,"o":"m 572 1251 l 718 1417 l 876 1417 l 722 1251 l 572 1251 m 157 1083 l 347 1278 l 486 1278 l 678 1083 l 524 1083 l 417 1189 l 310 1083 l 157 1083 m 60 0 l 318 1014 l 515 1014 l 774 0 l 622 0 l 561 257 l 274 257 l 213 0 l 60 0 m 301 381 l 532 381 l 463 674 q 433 809 444 751 q 417 888 421 867 q 401 809 413 867 q 371 675 390 751 l 301 381 z "},"Ậ":{"ha":833,"x_min":60,"x_max":774,"o":"m 156 1125 l 347 1319 l 486 1319 l 678 1125 l 525 1125 l 415 1231 l 310 1125 l 156 1125 m 60 0 l 318 1014 l 515 1014 l 774 0 l 622 0 l 561 257 l 274 257 l 213 0 l 60 0 m 301 381 l 532 381 l 463 674 q 433 809 444 751 q 417 888 421 867 q 401 809 413 867 q 371 675 390 751 l 301 381 m 431 -304 q 353 -279 382 -304 q 324 -210 324 -254 q 353 -141 324 -167 q 431 -115 382 -115 q 508 -141 479 -115 q 538 -210 538 -167 q 508 -279 538 -254 q 431 -304 479 -304 z "},"Ầ":{"ha":833,"x_min":60,"x_max":774,"o":"m 622 1251 l 457 1417 l 615 1417 l 771 1251 l 622 1251 m 157 1083 l 347 1278 l 486 1278 l 678 1083 l 524 1083 l 417 1189 l 310 1083 l 157 1083 m 60 0 l 318 1014 l 515 1014 l 774 0 l 622 0 l 561 257 l 274 257 l 213 0 l 60 0 m 301 381 l 532 381 l 463 674 q 433 809 444 751 q 417 888 421 867 q 401 809 413 867 q 371 675 390 751 l 301 381 z "},"Ẩ":{"ha":833,"x_min":60,"x_max":781,"o":"m 590 1218 l 651 1278 q 665 1306 665 1292 q 640 1329 665 1329 l 547 1329 l 547 1417 l 668 1417 q 750 1392 719 1417 q 781 1322 781 1367 q 774 1287 781 1304 q 756 1258 768 1269 l 713 1218 l 590 1218 m 157 1083 l 347 1278 l 486 1278 l 678 1083 l 524 1083 l 417 1189 l 310 1083 l 157 1083 m 60 0 l 318 1014 l 515 1014 l 774 0 l 622 0 l 561 257 l 274 257 l 213 0 l 60 0 m 301 381 l 532 381 l 463 674 q 433 809 444 751 q 417 888 421 867 q 401 809 413 867 q 371 675 390 751 l 301 381 z "},"Ẫ":{"ha":833,"x_min":60,"x_max":774,"o":"m 525 1274 q 453 1283 483 1274 q 402 1303 424 1292 q 361 1324 381 1315 q 319 1333 342 1333 q 291 1323 303 1333 q 279 1294 279 1313 l 279 1286 l 182 1286 l 182 1294 q 217 1383 182 1350 q 311 1417 251 1417 q 382 1408 353 1417 q 432 1387 411 1399 q 472 1366 453 1375 q 514 1357 492 1357 q 543 1368 532 1357 q 554 1396 554 1379 l 554 1404 l 651 1404 l 651 1396 q 617 1307 651 1340 q 525 1274 583 1274 m 157 1083 l 308 1233 l 525 1233 l 676 1083 l 522 1083 l 417 1186 l 310 1083 l 157 1083 m 60 0 l 318 1014 l 515 1014 l 774 0 l 622 0 l 561 257 l 274 257 l 213 0 l 60 0 m 301 381 l 532 381 l 463 674 q 433 809 444 751 q 417 888 421 867 q 401 809 413 867 q 371 675 390 751 l 301 381 z "},"Ä":{"ha":833,"x_min":60,"x_max":774,"o":"m 60 0 l 318 1014 l 515 1014 l 774 0 l 622 0 l 561 257 l 274 257 l 213 0 l 60 0 m 301 381 l 532 381 l 463 674 q 433 809 444 751 q 417 888 421 867 q 401 809 413 867 q 371 675 390 751 l 301 381 m 575 1129 q 506 1154 532 1129 q 481 1222 481 1179 q 506 1292 481 1267 q 575 1318 532 1318 q 645 1292 619 1318 q 671 1222 671 1267 q 645 1154 671 1179 q 575 1129 619 1129 m 258 1129 q 188 1154 214 1129 q 163 1222 163 1179 q 188 1292 163 1267 q 258 1318 214 1318 q 327 1292 301 1318 q 353 1222 353 1267 q 327 1154 353 1179 q 258 1129 301 1129 z "},"Ạ":{"ha":833,"x_min":60,"x_max":774,"o":"m 60 0 l 318 1014 l 515 1014 l 774 0 l 622 0 l 561 257 l 274 257 l 213 0 l 60 0 m 301 381 l 532 381 l 463 674 q 433 809 444 751 q 417 888 421 867 q 401 809 413 867 q 371 675 390 751 l 301 381 m 431 -304 q 353 -279 382 -304 q 324 -210 324 -254 q 353 -141 324 -167 q 431 -115 382 -115 q 508 -141 479 -115 q 538 -210 538 -167 q 508 -279 538 -254 q 431 -304 479 -304 z "},"À":{"ha":833,"x_min":60,"x_max":774,"o":"m 60 0 l 318 1014 l 515 1014 l 774 0 l 622 0 l 561 257 l 274 257 l 213 0 l 60 0 m 301 381 l 532 381 l 463 674 q 433 809 444 751 q 417 888 421 867 q 401 809 413 867 q 371 675 390 751 l 301 381 m 358 1125 l 197 1319 l 364 1319 l 514 1125 l 358 1125 z "},"Ả":{"ha":833,"x_min":60,"x_max":774,"o":"m 60 0 l 318 1014 l 515 1014 l 774 0 l 622 0 l 561 257 l 274 257 l 213 0 l 60 0 m 301 381 l 532 381 l 463 674 q 433 809 444 751 q 417 888 421 867 q 401 809 413 867 q 371 675 390 751 l 301 381 m 376 1132 l 444 1218 q 465 1261 465 1243 q 422 1288 465 1288 l 311 1288 l 311 1386 l 457 1386 q 549 1357 514 1386 q 583 1278 583 1328 q 557 1200 583 1233 l 504 1132 l 376 1132 z "},"Ā":{"ha":833,"x_min":60,"x_max":774,"o":"m 60 0 l 318 1014 l 515 1014 l 774 0 l 622 0 l 561 257 l 274 257 l 213 0 l 60 0 m 301 381 l 532 381 l 463 674 q 433 809 444 751 q 417 888 421 867 q 401 809 413 867 q 371 675 390 751 l 301 381 m 186 1158 l 186 1276 l 647 1276 l 647 1158 l 186 1158 z "},"Ą":{"ha":833,"x_min":60,"x_max":807,"o":"m 686 -292 q 560 -253 607 -292 q 513 -154 513 -214 q 544 -69 513 -112 q 642 14 575 -26 l 751 14 l 726 -7 q 667 -70 686 -42 q 647 -125 647 -99 q 667 -171 647 -153 q 719 -189 686 -189 l 807 -189 l 807 -292 l 686 -292 m 60 0 l 318 1014 l 515 1014 l 774 0 l 622 0 l 561 257 l 274 257 l 213 0 l 60 0 m 301 381 l 532 381 l 463 674 q 433 809 444 751 q 417 888 421 867 q 401 809 413 867 q 371 675 390 751 l 301 381 z "},"Å":{"ha":833,"x_min":60,"x_max":774,"o":"m 60 0 l 318 1014 l 515 1014 l 774 0 l 622 0 l 561 257 l 274 257 l 213 0 l 60 0 m 301 381 l 532 381 l 463 674 q 433 809 444 751 q 417 888 421 867 q 401 809 413 867 q 371 675 390 751 l 301 381 m 417 1058 q 290 1103 338 1058 q 242 1222 242 1149 q 290 1341 242 1296 q 417 1386 338 1386 q 544 1341 496 1386 q 592 1222 592 1296 q 544 1103 592 1149 q 417 1058 496 1058 m 417 1139 q 477 1162 454 1139 q 500 1222 500 1185 q 477 1283 500 1260 q 417 1307 454 1307 q 356 1283 379 1307 q 333 1222 333 1260 q 356 1162 333 1185 q 417 1139 379 1139 z "},"Ã":{"ha":833,"x_min":60,"x_max":774,"o":"m 60 0 l 318 1014 l 515 1014 l 774 0 l 622 0 l 561 257 l 274 257 l 213 0 l 60 0 m 301 381 l 532 381 l 463 674 q 433 809 444 751 q 417 888 421 867 q 401 809 413 867 q 371 675 390 751 l 301 381 m 514 1126 q 444 1140 471 1126 q 400 1172 418 1154 q 365 1205 382 1190 q 326 1219 349 1219 q 297 1207 308 1219 q 285 1171 285 1194 l 285 1133 l 186 1133 l 186 1176 q 223 1280 186 1242 q 319 1318 260 1318 q 389 1304 363 1318 q 433 1272 415 1290 q 468 1240 451 1254 q 507 1225 485 1225 q 538 1237 526 1225 q 549 1271 549 1249 l 549 1311 l 647 1311 l 647 1268 q 611 1165 647 1203 q 514 1126 575 1126 z "},"Æ":{"ha":833,"x_min":29,"x_max":796,"o":"m 29 0 l 228 1014 l 796 1014 l 796 882 l 550 882 l 550 590 l 761 590 l 761 456 l 550 456 l 550 132 l 796 132 l 796 0 l 415 0 l 415 267 l 226 267 l 178 0 l 29 0 m 247 383 l 415 383 l 415 882 l 340 882 l 247 383 z "},"Ǽ":{"ha":833,"x_min":29,"x_max":796,"o":"m 29 0 l 228 1014 l 796 1014 l 796 882 l 550 882 l 550 590 l 761 590 l 761 456 l 550 456 l 550 132 l 796 132 l 796 0 l 415 0 l 415 267 l 226 267 l 178 0 l 29 0 m 247 383 l 415 383 l 415 882 l 340 882 l 247 383 m 331 1125 l 478 1319 l 639 1319 l 482 1125 l 331 1125 z "},"B":{"ha":833,"x_min":118,"x_max":749,"o":"m 118 0 l 118 1014 l 417 1014 q 643 944 561 1014 q 725 753 725 875 q 695 633 725 683 q 613 554 665 582 q 489 526 560 526 l 489 540 q 624 512 565 542 q 715 424 682 482 q 749 285 749 365 q 710 134 749 199 q 602 35 672 69 q 436 0 532 0 l 118 0 m 264 129 l 424 129 q 551 172 504 129 q 599 292 599 215 q 551 417 599 369 q 424 464 504 464 l 264 464 l 264 129 m 264 589 l 415 589 q 533 629 490 589 q 576 738 576 669 q 533 845 576 806 q 417 885 490 885 l 264 885 l 264 589 z "},"C":{"ha":833,"x_min":111,"x_max":732,"o":"m 422 -14 q 258 22 328 -14 q 149 124 188 57 q 111 282 111 192 l 111 732 q 149 890 111 824 q 258 992 188 957 q 422 1028 328 1028 q 586 992 517 1028 q 694 890 656 956 q 732 732 732 824 l 582 732 q 540 853 582 811 q 422 894 499 894 q 303 853 346 894 q 261 733 261 811 l 261 282 q 303 162 261 204 q 422 119 346 119 q 540 162 499 119 q 582 282 582 204 l 732 282 q 694 125 732 192 q 586 22 656 58 q 422 -14 517 -14 z "},"Ć":{"ha":833,"x_min":111,"x_max":732,"o":"m 422 -14 q 258 22 328 -14 q 149 124 188 57 q 111 282 111 192 l 111 732 q 149 890 111 824 q 258 992 188 957 q 422 1028 328 1028 q 586 992 517 1028 q 694 890 656 956 q 732 732 732 824 l 582 732 q 540 853 582 811 q 422 894 499 894 q 303 853 346 894 q 261 733 261 811 l 261 282 q 303 162 261 204 q 422 119 346 119 q 540 162 499 119 q 582 282 582 204 l 732 282 q 694 125 732 192 q 586 22 656 58 q 422 -14 517 -14 m 331 1125 l 478 1319 l 639 1319 l 482 1125 l 331 1125 z "},"Č":{"ha":833,"x_min":111,"x_max":732,"o":"m 422 -14 q 258 22 328 -14 q 149 124 188 57 q 111 282 111 192 l 111 732 q 149 890 111 824 q 258 992 188 957 q 422 1028 328 1028 q 586 992 517 1028 q 694 890 656 956 q 732 732 732 824 l 582 732 q 540 853 582 811 q 422 894 499 894 q 303 853 346 894 q 261 733 261 811 l 261 282 q 303 162 261 204 q 422 119 346 119 q 540 162 499 119 q 582 282 582 204 l 732 282 q 694 125 732 192 q 586 22 656 58 q 422 -14 517 -14 m 354 1125 l 163 1319 l 315 1319 l 425 1214 l 531 1319 l 685 1319 l 493 1125 l 354 1125 z "},"Ç":{"ha":833,"x_min":111,"x_max":732,"o":"m 288 -292 l 288 -208 l 389 -208 q 440 -192 421 -208 q 460 -158 460 -176 q 420 -114 460 -132 q 310 -96 381 -96 l 358 32 l 443 32 l 415 -50 q 494 -68 453 -54 q 563 -108 535 -82 q 590 -172 590 -133 q 542 -256 590 -221 q 415 -292 494 -292 l 288 -292 m 422 -14 q 258 22 328 -14 q 149 124 188 57 q 111 282 111 192 l 111 732 q 149 890 111 824 q 258 992 188 957 q 422 1028 328 1028 q 586 992 517 1028 q 694 890 656 956 q 732 732 732 824 l 582 732 q 540 853 582 811 q 422 894 499 894 q 303 853 346 894 q 261 733 261 811 l 261 282 q 303 162 261 204 q 422 119 346 119 q 540 162 499 119 q 582 282 582 204 l 732 282 q 694 125 732 192 q 586 22 656 58 q 422 -14 517 -14 z "},"Ĉ":{"ha":833,"x_min":111,"x_max":732,"o":"m 422 -14 q 258 22 328 -14 q 149 124 188 57 q 111 282 111 192 l 111 732 q 149 890 111 824 q 258 992 188 957 q 422 1028 328 1028 q 586 992 517 1028 q 694 890 656 956 q 732 732 732 824 l 582 732 q 540 853 582 811 q 422 894 499 894 q 303 853 346 894 q 261 733 261 811 l 261 282 q 303 162 261 204 q 422 119 346 119 q 540 162 499 119 q 582 282 582 204 l 732 282 q 694 125 732 192 q 586 22 656 58 q 422 -14 517 -14 m 163 1125 l 354 1319 l 493 1319 l 685 1125 l 532 1125 l 422 1231 l 317 1125 l 163 1125 z "},"Ċ":{"ha":833,"x_min":111,"x_max":732,"o":"m 422 -14 q 258 22 328 -14 q 149 124 188 57 q 111 282 111 192 l 111 732 q 149 890 111 824 q 258 992 188 957 q 422 1028 328 1028 q 586 992 517 1028 q 694 890 656 956 q 732 732 732 824 l 582 732 q 540 853 582 811 q 422 894 499 894 q 303 853 346 894 q 261 733 261 811 l 261 282 q 303 162 261 204 q 422 119 346 119 q 540 162 499 119 q 582 282 582 204 l 732 282 q 694 125 732 192 q 586 22 656 58 q 422 -14 517 -14 m 424 1128 q 346 1153 375 1128 q 317 1222 317 1179 q 346 1291 317 1265 q 424 1317 375 1317 q 501 1291 472 1317 q 531 1222 531 1265 q 501 1153 531 1179 q 424 1128 472 1128 z "},"D":{"ha":833,"x_min":115,"x_max":728,"o":"m 115 0 l 115 1014 l 399 1014 q 572 976 499 1014 q 687 868 646 938 q 728 704 728 799 l 728 311 q 687 147 728 218 q 572 38 646 76 q 399 0 499 0 l 115 0 m 265 136 l 399 136 q 530 183 482 136 q 578 311 578 229 l 578 704 q 530 831 578 785 q 399 878 482 878 l 265 878 l 265 136 z "},"Ð":{"ha":833,"x_min":14,"x_max":728,"o":"m 14 461 l 14 574 l 403 574 l 403 461 l 14 461 m 115 0 l 115 1014 l 399 1014 q 572 976 499 1014 q 687 868 646 938 q 728 704 728 799 l 728 311 q 687 147 728 218 q 572 38 646 76 q 399 0 499 0 l 115 0 m 265 136 l 399 136 q 530 183 482 136 q 578 311 578 229 l 578 704 q 530 831 578 785 q 399 878 482 878 l 265 878 l 265 136 z "},"Ď":{"ha":833,"x_min":115,"x_max":728,"o":"m 115 0 l 115 1014 l 399 1014 q 572 976 499 1014 q 687 868 646 938 q 728 704 728 799 l 728 311 q 687 147 728 218 q 572 38 646 76 q 399 0 499 0 l 115 0 m 265 136 l 399 136 q 530 183 482 136 q 578 311 578 229 l 578 704 q 530 831 578 785 q 399 878 482 878 l 265 878 l 265 136 m 347 1125 l 156 1319 l 308 1319 l 418 1214 l 524 1319 l 678 1319 l 486 1125 l 347 1125 z "},"Đ":{"ha":833,"x_min":14,"x_max":728,"o":"m 14 461 l 14 574 l 403 574 l 403 461 l 14 461 m 115 0 l 115 1014 l 399 1014 q 572 976 499 1014 q 687 868 646 938 q 728 704 728 799 l 728 311 q 687 147 728 218 q 572 38 646 76 q 399 0 499 0 l 115 0 m 265 136 l 399 136 q 530 183 482 136 q 578 311 578 229 l 578 704 q 530 831 578 785 q 399 878 482 878 l 265 878 l 265 136 z "},"E":{"ha":833,"x_min":131,"x_max":726,"o":"m 131 0 l 131 1014 l 726 1014 l 726 881 l 278 881 l 278 593 l 678 593 l 678 461 l 278 461 l 278 133 l 726 133 l 726 0 l 131 0 z "},"É":{"ha":833,"x_min":131,"x_max":726,"o":"m 131 0 l 131 1014 l 726 1014 l 726 881 l 278 881 l 278 593 l 678 593 l 678 461 l 278 461 l 278 133 l 726 133 l 726 0 l 131 0 m 351 1125 l 499 1319 l 660 1319 l 503 1125 l 351 1125 z "},"Ĕ":{"ha":833,"x_min":131,"x_max":726,"o":"m 131 0 l 131 1014 l 726 1014 l 726 881 l 278 881 l 278 593 l 678 593 l 678 461 l 278 461 l 278 133 l 726 133 l 726 0 l 131 0 m 444 1117 q 276 1172 340 1117 q 213 1319 213 1228 l 329 1319 q 360 1239 329 1269 q 443 1208 392 1208 q 528 1239 497 1208 q 560 1319 560 1269 l 676 1319 q 613 1172 676 1228 q 444 1117 549 1117 z "},"Ě":{"ha":833,"x_min":131,"x_max":726,"o":"m 131 0 l 131 1014 l 726 1014 l 726 881 l 278 881 l 278 593 l 678 593 l 678 461 l 278 461 l 278 133 l 726 133 l 726 0 l 131 0 m 375 1125 l 183 1319 l 336 1319 l 446 1214 l 551 1319 l 706 1319 l 514 1125 l 375 1125 z "},"Ê":{"ha":833,"x_min":131,"x_max":726,"o":"m 131 0 l 131 1014 l 726 1014 l 726 881 l 278 881 l 278 593 l 678 593 l 678 461 l 278 461 l 278 133 l 726 133 l 726 0 l 131 0 m 183 1125 l 375 1319 l 514 1319 l 706 1125 l 553 1125 l 443 1231 l 338 1125 l 183 1125 z "},"Ế":{"ha":833,"x_min":131,"x_max":876,"o":"m 131 0 l 131 1014 l 726 1014 l 726 881 l 278 881 l 278 593 l 678 593 l 678 461 l 278 461 l 278 133 l 726 133 l 726 0 l 131 0 m 572 1251 l 718 1417 l 876 1417 l 722 1251 l 572 1251 m 157 1083 l 347 1278 l 486 1278 l 678 1083 l 524 1083 l 417 1189 l 310 1083 l 157 1083 z "},"Ệ":{"ha":833,"x_min":131,"x_max":726,"o":"m 156 1125 l 347 1319 l 486 1319 l 678 1125 l 525 1125 l 415 1231 l 310 1125 l 156 1125 m 131 0 l 131 1014 l 726 1014 l 726 881 l 278 881 l 278 593 l 678 593 l 678 461 l 278 461 l 278 133 l 726 133 l 726 0 l 131 0 m 444 -304 q 367 -279 396 -304 q 338 -210 338 -254 q 367 -141 338 -167 q 444 -115 396 -115 q 522 -141 493 -115 q 551 -210 551 -167 q 522 -279 551 -254 q 444 -304 493 -304 z "},"Ề":{"ha":833,"x_min":131,"x_max":771,"o":"m 131 0 l 131 1014 l 726 1014 l 726 881 l 278 881 l 278 593 l 678 593 l 678 461 l 278 461 l 278 133 l 726 133 l 726 0 l 131 0 m 622 1251 l 457 1417 l 615 1417 l 771 1251 l 622 1251 m 157 1083 l 347 1278 l 486 1278 l 678 1083 l 524 1083 l 417 1189 l 310 1083 l 157 1083 z "},"Ể":{"ha":833,"x_min":131,"x_max":781,"o":"m 131 0 l 131 1014 l 726 1014 l 726 881 l 278 881 l 278 593 l 678 593 l 678 461 l 278 461 l 278 133 l 726 133 l 726 0 l 131 0 m 590 1218 l 651 1278 q 665 1306 665 1292 q 640 1329 665 1329 l 547 1329 l 547 1417 l 668 1417 q 750 1392 719 1417 q 781 1322 781 1367 q 774 1287 781 1304 q 756 1258 768 1269 l 713 1218 l 590 1218 m 157 1083 l 347 1278 l 486 1278 l 678 1083 l 524 1083 l 417 1189 l 310 1083 l 157 1083 z "},"Ễ":{"ha":833,"x_min":131,"x_max":726,"o":"m 131 0 l 131 1014 l 726 1014 l 726 881 l 278 881 l 278 593 l 678 593 l 678 461 l 278 461 l 278 133 l 726 133 l 726 0 l 131 0 m 525 1274 q 453 1283 483 1274 q 402 1303 424 1292 q 361 1324 381 1315 q 319 1333 342 1333 q 291 1323 303 1333 q 279 1294 279 1313 l 279 1286 l 182 1286 l 182 1294 q 217 1383 182 1350 q 311 1417 251 1417 q 382 1408 353 1417 q 432 1387 411 1399 q 472 1366 453 1375 q 514 1357 492 1357 q 543 1368 532 1357 q 554 1396 554 1379 l 554 1404 l 651 1404 l 651 1396 q 617 1307 651 1340 q 525 1274 583 1274 m 157 1083 l 308 1233 l 525 1233 l 676 1083 l 522 1083 l 417 1186 l 310 1083 l 157 1083 z "},"Ë":{"ha":833,"x_min":131,"x_max":726,"o":"m 131 0 l 131 1014 l 726 1014 l 726 881 l 278 881 l 278 593 l 678 593 l 678 461 l 278 461 l 278 133 l 726 133 l 726 0 l 131 0 m 603 1129 q 534 1154 560 1129 q 508 1222 508 1179 q 534 1292 508 1267 q 603 1318 560 1318 q 673 1292 647 1318 q 699 1222 699 1267 q 673 1154 699 1179 q 603 1129 647 1129 m 286 1129 q 216 1154 242 1129 q 190 1222 190 1179 q 216 1292 190 1267 q 286 1318 242 1318 q 355 1292 329 1318 q 381 1222 381 1267 q 355 1154 381 1179 q 286 1129 329 1129 z "},"Ė":{"ha":833,"x_min":131,"x_max":726,"o":"m 131 0 l 131 1014 l 726 1014 l 726 881 l 278 881 l 278 593 l 678 593 l 678 461 l 278 461 l 278 133 l 726 133 l 726 0 l 131 0 m 444 1128 q 367 1153 396 1128 q 338 1222 338 1179 q 367 1291 338 1265 q 444 1317 396 1317 q 522 1291 493 1317 q 551 1222 551 1265 q 522 1153 551 1179 q 444 1128 493 1128 z "},"Ẹ":{"ha":833,"x_min":131,"x_max":726,"o":"m 131 0 l 131 1014 l 726 1014 l 726 881 l 278 881 l 278 593 l 678 593 l 678 461 l 278 461 l 278 133 l 726 133 l 726 0 l 131 0 m 444 -304 q 367 -279 396 -304 q 338 -210 338 -254 q 367 -141 338 -167 q 444 -115 396 -115 q 522 -141 493 -115 q 551 -210 551 -167 q 522 -279 551 -254 q 444 -304 493 -304 z "},"È":{"ha":833,"x_min":131,"x_max":726,"o":"m 131 0 l 131 1014 l 726 1014 l 726 881 l 278 881 l 278 593 l 678 593 l 678 461 l 278 461 l 278 133 l 726 133 l 726 0 l 131 0 m 386 1125 l 225 1319 l 392 1319 l 542 1125 l 386 1125 z "},"Ẻ":{"ha":833,"x_min":131,"x_max":726,"o":"m 131 0 l 131 1014 l 726 1014 l 726 881 l 278 881 l 278 593 l 678 593 l 678 461 l 278 461 l 278 133 l 726 133 l 726 0 l 131 0 m 353 1110 l 417 1194 q 436 1238 436 1222 q 394 1265 436 1265 l 288 1265 l 288 1363 l 408 1363 q 514 1333 474 1363 q 554 1254 554 1304 q 529 1178 554 1213 l 481 1110 l 353 1110 z "},"Ē":{"ha":833,"x_min":131,"x_max":726,"o":"m 131 0 l 131 1014 l 726 1014 l 726 881 l 278 881 l 278 593 l 678 593 l 678 461 l 278 461 l 278 133 l 726 133 l 726 0 l 131 0 m 214 1158 l 214 1276 l 675 1276 l 675 1158 l 214 1158 z "},"Ę":{"ha":833,"x_min":131,"x_max":733,"o":"m 613 -292 q 486 -253 533 -292 q 439 -154 439 -214 q 470 -69 439 -112 q 568 14 501 -26 l 676 14 l 653 -7 q 592 -70 611 -42 q 574 -125 574 -99 q 593 -171 574 -153 q 646 -189 613 -189 l 733 -189 l 733 -292 l 613 -292 m 131 0 l 131 1014 l 726 1014 l 726 881 l 278 881 l 278 593 l 678 593 l 678 461 l 278 461 l 278 133 l 726 133 l 726 0 l 131 0 z "},"Ẽ":{"ha":833,"x_min":131,"x_max":726,"o":"m 131 0 l 131 1014 l 726 1014 l 726 881 l 278 881 l 278 593 l 678 593 l 678 461 l 278 461 l 278 133 l 726 133 l 726 0 l 131 0 m 542 1126 q 472 1140 499 1126 q 428 1172 446 1154 q 393 1205 410 1190 q 354 1219 376 1219 q 324 1207 336 1219 q 313 1171 313 1194 l 313 1133 l 214 1133 l 214 1176 q 251 1280 214 1242 q 347 1318 288 1318 q 417 1304 390 1318 q 461 1272 443 1290 q 496 1240 479 1254 q 535 1225 513 1225 q 565 1237 554 1225 q 576 1271 576 1249 l 576 1311 l 675 1311 l 675 1268 q 639 1165 675 1203 q 542 1126 603 1126 z "},"F":{"ha":833,"x_min":122,"x_max":735,"o":"m 122 0 l 122 1015 l 735 1015 l 735 876 l 268 876 l 268 574 l 699 574 l 699 435 l 271 435 l 271 0 l 122 0 z "},"G":{"ha":833,"x_min":111,"x_max":732,"o":"m 422 -14 q 258 22 328 -14 q 149 124 188 57 q 111 282 111 192 l 111 732 q 149 890 111 824 q 258 992 188 957 q 422 1028 328 1028 q 586 992 517 1028 q 694 890 656 956 q 732 732 732 824 l 582 732 q 540 853 582 811 q 422 894 499 894 q 303 853 346 894 q 261 733 261 811 l 261 282 q 303 161 261 204 q 422 118 346 118 q 540 161 499 118 q 582 282 582 204 l 582 396 l 393 396 l 393 528 l 732 528 l 732 282 q 694 125 732 192 q 586 22 656 58 q 422 -14 517 -14 z "},"Ǵ":{"ha":833,"x_min":111,"x_max":732,"o":"m 422 -14 q 258 22 328 -14 q 149 124 188 57 q 111 282 111 192 l 111 732 q 149 890 111 824 q 258 992 188 957 q 422 1028 328 1028 q 586 992 517 1028 q 694 890 656 956 q 732 732 732 824 l 582 732 q 540 853 582 811 q 422 894 499 894 q 303 853 346 894 q 261 733 261 811 l 261 282 q 303 161 261 204 q 422 118 346 118 q 540 161 499 118 q 582 282 582 204 l 582 396 l 393 396 l 393 528 l 732 528 l 732 282 q 694 125 732 192 q 586 22 656 58 q 422 -14 517 -14 m 324 1125 l 471 1319 l 632 1319 l 475 1125 l 324 1125 z "},"Ğ":{"ha":833,"x_min":111,"x_max":732,"o":"m 422 -14 q 258 22 328 -14 q 149 124 188 57 q 111 282 111 192 l 111 732 q 149 890 111 824 q 258 992 188 957 q 422 1028 328 1028 q 586 992 517 1028 q 694 890 656 956 q 732 732 732 824 l 582 732 q 540 853 582 811 q 422 894 499 894 q 303 853 346 894 q 261 733 261 811 l 261 282 q 303 161 261 204 q 422 118 346 118 q 540 161 499 118 q 582 282 582 204 l 582 396 l 393 396 l 393 528 l 732 528 l 732 282 q 694 125 732 192 q 586 22 656 58 q 422 -14 517 -14 m 417 1117 q 249 1172 313 1117 q 185 1319 185 1228 l 301 1319 q 333 1239 301 1269 q 415 1208 364 1208 q 501 1239 469 1208 q 532 1319 532 1269 l 649 1319 q 585 1172 649 1228 q 417 1117 521 1117 z "},"Ǧ":{"ha":833,"x_min":111,"x_max":732,"o":"m 422 -14 q 258 22 328 -14 q 149 124 188 57 q 111 282 111 192 l 111 732 q 149 890 111 824 q 258 992 188 957 q 422 1028 328 1028 q 586 992 517 1028 q 694 890 656 956 q 732 732 732 824 l 582 732 q 540 853 582 811 q 422 894 499 894 q 303 853 346 894 q 261 733 261 811 l 261 282 q 303 161 261 204 q 422 118 346 118 q 540 161 499 118 q 582 282 582 204 l 582 396 l 393 396 l 393 528 l 732 528 l 732 282 q 694 125 732 192 q 586 22 656 58 q 422 -14 517 -14 m 347 1125 l 156 1319 l 308 1319 l 418 1214 l 524 1319 l 678 1319 l 486 1125 l 347 1125 z "},"Ĝ":{"ha":833,"x_min":111,"x_max":732,"o":"m 422 -14 q 258 22 328 -14 q 149 124 188 57 q 111 282 111 192 l 111 732 q 149 890 111 824 q 258 992 188 957 q 422 1028 328 1028 q 586 992 517 1028 q 694 890 656 956 q 732 732 732 824 l 582 732 q 540 853 582 811 q 422 894 499 894 q 303 853 346 894 q 261 733 261 811 l 261 282 q 303 161 261 204 q 422 118 346 118 q 540 161 499 118 q 582 282 582 204 l 582 396 l 393 396 l 393 528 l 732 528 l 732 282 q 694 125 732 192 q 586 22 656 58 q 422 -14 517 -14 m 156 1125 l 347 1319 l 486 1319 l 678 1125 l 525 1125 l 415 1231 l 310 1125 l 156 1125 z "},"Ģ":{"ha":833,"x_min":111,"x_max":732,"o":"m 422 -14 q 258 22 328 -14 q 149 124 188 57 q 111 282 111 192 l 111 732 q 149 890 111 824 q 258 992 188 957 q 422 1028 328 1028 q 586 992 517 1028 q 694 890 656 956 q 732 732 732 824 l 582 732 q 540 853 582 811 q 422 894 499 894 q 303 853 346 894 q 261 733 261 811 l 261 282 q 303 161 261 204 q 422 118 346 118 q 540 161 499 118 q 582 282 582 204 l 582 396 l 393 396 l 393 528 l 732 528 l 732 282 q 694 125 732 192 q 586 22 656 58 q 422 -14 517 -14 m 264 -333 l 396 -132 l 560 -132 l 410 -333 l 264 -333 z "},"Ġ":{"ha":833,"x_min":111,"x_max":732,"o":"m 422 -14 q 258 22 328 -14 q 149 124 188 57 q 111 282 111 192 l 111 732 q 149 890 111 824 q 258 992 188 957 q 422 1028 328 1028 q 586 992 517 1028 q 694 890 656 956 q 732 732 732 824 l 582 732 q 540 853 582 811 q 422 894 499 894 q 303 853 346 894 q 261 733 261 811 l 261 282 q 303 161 261 204 q 422 118 346 118 q 540 161 499 118 q 582 282 582 204 l 582 396 l 393 396 l 393 528 l 732 528 l 732 282 q 694 125 732 192 q 586 22 656 58 q 422 -14 517 -14 m 417 1128 q 339 1153 368 1128 q 310 1222 310 1179 q 339 1291 310 1265 q 417 1317 368 1317 q 494 1291 465 1317 q 524 1222 524 1265 q 494 1153 524 1179 q 417 1128 465 1128 z "},"H":{"ha":833,"x_min":118,"x_max":715,"o":"m 118 0 l 118 1014 l 268 1014 l 268 594 l 565 594 l 565 1014 l 715 1014 l 715 0 l 565 0 l 565 456 l 268 456 l 268 0 l 118 0 z "},"Ħ":{"ha":833,"x_min":14,"x_max":819,"o":"m 14 729 l 14 842 l 819 842 l 819 729 l 14 729 m 118 0 l 118 1014 l 268 1014 l 268 594 l 565 594 l 565 1014 l 715 1014 l 715 0 l 565 0 l 565 456 l 268 456 l 268 0 l 118 0 z "},"Ĥ":{"ha":833,"x_min":118,"x_max":715,"o":"m 118 0 l 118 1014 l 268 1014 l 268 594 l 565 594 l 565 1014 l 715 1014 l 715 0 l 565 0 l 565 456 l 268 456 l 268 0 l 118 0 m 156 1125 l 347 1319 l 486 1319 l 678 1125 l 525 1125 l 415 1231 l 310 1125 l 156 1125 z "},"I":{"ha":833,"x_min":136,"x_max":697,"o":"m 136 0 l 136 133 l 340 133 l 340 881 l 136 881 l 136 1014 l 697 1014 l 697 881 l 493 881 l 493 133 l 697 133 l 697 0 l 136 0 z "},"Í":{"ha":833,"x_min":136,"x_max":697,"o":"m 136 0 l 136 133 l 340 133 l 340 881 l 136 881 l 136 1014 l 697 1014 l 697 881 l 493 881 l 493 133 l 697 133 l 697 0 l 136 0 m 324 1125 l 471 1319 l 632 1319 l 475 1125 l 324 1125 z "},"Ĭ":{"ha":833,"x_min":136,"x_max":697,"o":"m 136 0 l 136 133 l 340 133 l 340 881 l 136 881 l 136 1014 l 697 1014 l 697 881 l 493 881 l 493 133 l 697 133 l 697 0 l 136 0 m 417 1117 q 249 1172 313 1117 q 185 1319 185 1228 l 301 1319 q 333 1239 301 1269 q 415 1208 364 1208 q 501 1239 469 1208 q 532 1319 532 1269 l 649 1319 q 585 1172 649 1228 q 417 1117 521 1117 z "},"Î":{"ha":833,"x_min":136,"x_max":697,"o":"m 136 0 l 136 133 l 340 133 l 340 881 l 136 881 l 136 1014 l 697 1014 l 697 881 l 493 881 l 493 133 l 697 133 l 697 0 l 136 0 m 156 1125 l 347 1319 l 486 1319 l 678 1125 l 525 1125 l 415 1231 l 310 1125 l 156 1125 z "},"Ï":{"ha":833,"x_min":136,"x_max":697,"o":"m 136 0 l 136 133 l 340 133 l 340 881 l 136 881 l 136 1014 l 697 1014 l 697 881 l 493 881 l 493 133 l 697 133 l 697 0 l 136 0 m 575 1129 q 506 1154 532 1129 q 481 1222 481 1179 q 506 1292 481 1267 q 575 1318 532 1318 q 645 1292 619 1318 q 671 1222 671 1267 q 645 1154 671 1179 q 575 1129 619 1129 m 258 1129 q 188 1154 214 1129 q 163 1222 163 1179 q 188 1292 163 1267 q 258 1318 214 1318 q 327 1292 301 1318 q 353 1222 353 1267 q 327 1154 353 1179 q 258 1129 301 1129 z "},"İ":{"ha":833,"x_min":136,"x_max":697,"o":"m 136 0 l 136 133 l 340 133 l 340 881 l 136 881 l 136 1014 l 697 1014 l 697 881 l 493 881 l 493 133 l 697 133 l 697 0 l 136 0 m 417 1128 q 339 1153 368 1128 q 310 1222 310 1179 q 339 1291 310 1265 q 417 1317 368 1317 q 494 1291 465 1317 q 524 1222 524 1265 q 494 1153 524 1179 q 417 1128 465 1128 z "},"Ị":{"ha":833,"x_min":136,"x_max":697,"o":"m 136 0 l 136 133 l 340 133 l 340 881 l 136 881 l 136 1014 l 697 1014 l 697 881 l 493 881 l 493 133 l 697 133 l 697 0 l 136 0 m 421 -304 q 343 -279 372 -304 q 314 -210 314 -254 q 343 -141 314 -167 q 421 -115 372 -115 q 499 -141 469 -115 q 528 -210 528 -167 q 499 -279 528 -254 q 421 -304 469 -304 z "},"Ì":{"ha":833,"x_min":136,"x_max":697,"o":"m 136 0 l 136 133 l 340 133 l 340 881 l 136 881 l 136 1014 l 697 1014 l 697 881 l 493 881 l 493 133 l 697 133 l 697 0 l 136 0 m 358 1125 l 197 1319 l 364 1319 l 514 1125 l 358 1125 z "},"Ỉ":{"ha":833,"x_min":136,"x_max":697,"o":"m 136 0 l 136 133 l 340 133 l 340 881 l 136 881 l 136 1014 l 697 1014 l 697 881 l 493 881 l 493 133 l 697 133 l 697 0 l 136 0 m 376 1110 l 440 1194 q 460 1238 460 1222 q 418 1265 460 1265 l 311 1265 l 311 1363 l 432 1363 q 538 1333 497 1363 q 578 1254 578 1304 q 553 1178 578 1213 l 504 1110 l 376 1110 z "},"Ī":{"ha":833,"x_min":136,"x_max":697,"o":"m 136 0 l 136 133 l 340 133 l 340 881 l 136 881 l 136 1014 l 697 1014 l 697 881 l 493 881 l 493 133 l 697 133 l 697 0 l 136 0 m 186 1158 l 186 1276 l 647 1276 l 647 1158 l 186 1158 z "},"Į":{"ha":833,"x_min":136,"x_max":697,"o":"m 422 -292 q 296 -253 343 -292 q 249 -154 249 -214 q 280 -69 249 -112 q 378 14 311 -26 l 486 14 l 463 -7 q 402 -70 421 -42 q 383 -125 383 -99 q 403 -171 383 -153 q 456 -189 422 -189 l 543 -189 l 543 -292 l 422 -292 m 136 0 l 136 133 l 340 133 l 340 881 l 136 881 l 136 1014 l 697 1014 l 697 881 l 493 881 l 493 133 l 697 133 l 697 0 l 136 0 z "},"Ĩ":{"ha":833,"x_min":136,"x_max":697,"o":"m 136 0 l 136 133 l 340 133 l 340 881 l 136 881 l 136 1014 l 697 1014 l 697 881 l 493 881 l 493 133 l 697 133 l 697 0 l 136 0 m 514 1126 q 444 1140 471 1126 q 400 1172 418 1154 q 365 1205 382 1190 q 326 1219 349 1219 q 297 1207 308 1219 q 285 1171 285 1194 l 285 1133 l 186 1133 l 186 1176 q 223 1280 186 1242 q 319 1318 260 1318 q 389 1304 363 1318 q 433 1272 415 1290 q 468 1240 451 1254 q 507 1225 485 1225 q 538 1237 526 1225 q 549 1271 549 1249 l 549 1311 l 647 1311 l 647 1268 q 611 1165 647 1203 q 514 1126 575 1126 z "},"J":{"ha":833,"x_min":53,"x_max":697,"o":"m 375 -14 q 139 69 225 -14 q 53 296 53 153 l 201 296 q 247 165 201 211 q 375 118 293 118 q 503 165 457 118 q 549 294 549 211 l 549 876 l 310 876 l 310 1014 l 697 1014 l 697 294 q 610 69 697 151 q 375 -14 524 -14 z "},"Ĵ":{"ha":833,"x_min":53,"x_max":761,"o":"m 375 -14 q 139 69 225 -14 q 53 296 53 153 l 201 296 q 247 165 201 211 q 375 118 293 118 q 503 165 457 118 q 549 294 549 211 l 549 876 l 310 876 l 310 1014 l 697 1014 l 697 294 q 610 69 697 151 q 375 -14 524 -14 m 239 1125 l 431 1319 l 569 1319 l 761 1125 l 608 1125 l 499 1231 l 393 1125 l 239 1125 z "},"K":{"ha":833,"x_min":117,"x_max":783,"o":"m 117 0 l 117 1014 l 267 1014 l 267 592 l 401 592 l 608 1014 l 772 1014 l 533 528 l 783 0 l 615 0 l 399 457 l 267 457 l 267 0 l 117 0 z "},"Ķ":{"ha":833,"x_min":117,"x_max":783,"o":"m 117 0 l 117 1014 l 267 1014 l 267 592 l 401 592 l 608 1014 l 772 1014 l 533 528 l 783 0 l 615 0 l 399 457 l 267 457 l 267 0 l 117 0 m 258 -333 l 390 -132 l 554 -132 l 404 -333 l 258 -333 z "},"L":{"ha":833,"x_min":151,"x_max":744,"o":"m 151 0 l 151 1014 l 301 1014 l 301 138 l 744 138 l 744 0 l 151 0 z "},"Ĺ":{"ha":833,"x_min":135,"x_max":744,"o":"m 151 0 l 151 1014 l 301 1014 l 301 138 l 744 138 l 744 0 l 151 0 m 135 1125 l 282 1319 l 443 1319 l 286 1125 l 135 1125 z "},"Ľ":{"ha":833,"x_min":151,"x_max":744,"o":"m 151 0 l 151 1014 l 301 1014 l 301 138 l 744 138 l 744 0 l 151 0 m 490 764 l 504 1014 l 644 1014 l 617 764 l 490 764 z "},"Ļ":{"ha":833,"x_min":151,"x_max":744,"o":"m 151 0 l 151 1014 l 301 1014 l 301 138 l 744 138 l 744 0 l 151 0 m 286 -333 l 418 -132 l 582 -132 l 432 -333 l 286 -333 z "},"Ŀ":{"ha":833,"x_min":151,"x_max":751,"o":"m 151 0 l 151 1014 l 301 1014 l 301 138 l 744 138 l 744 0 l 151 0 z "},"Ł":{"ha":833,"x_min":28,"x_max":749,"o":"m 28 319 l 28 456 l 546 778 l 546 642 l 28 319 m 156 0 l 156 1014 l 306 1014 l 306 138 l 749 138 l 749 0 l 156 0 z "},"M":{"ha":833,"x_min":92,"x_max":742,"o":"m 92 0 l 92 1014 l 276 1014 l 378 689 q 404 601 393 643 q 419 538 415 558 q 435 601 425 558 q 460 689 446 643 l 557 1014 l 742 1014 l 742 0 l 600 0 l 600 342 q 603 487 600 407 q 614 648 607 567 q 628 803 621 729 q 640 933 635 878 l 490 440 l 346 440 l 193 933 q 207 808 200 879 q 219 656 214 736 q 229 494 225 575 q 233 342 233 413 l 233 0 l 92 0 z "},"N":{"ha":833,"x_min":113,"x_max":721,"o":"m 113 0 l 113 1014 l 301 1014 l 597 171 q 590 267 594 211 q 584 382 586 322 q 582 490 582 442 l 582 1014 l 721 1014 l 721 0 l 532 0 l 238 843 q 244 753 240 807 q 249 640 247 699 q 251 532 251 582 l 251 0 l 113 0 z "},"Ń":{"ha":833,"x_min":113,"x_max":721,"o":"m 113 0 l 113 1014 l 301 1014 l 597 171 q 590 267 594 211 q 584 382 586 322 q 582 490 582 442 l 582 1014 l 721 1014 l 721 0 l 532 0 l 238 843 q 244 753 240 807 q 249 640 247 699 q 251 532 251 582 l 251 0 l 113 0 m 324 1125 l 471 1319 l 632 1319 l 475 1125 l 324 1125 z "},"Ň":{"ha":833,"x_min":113,"x_max":721,"o":"m 113 0 l 113 1014 l 301 1014 l 597 171 q 590 267 594 211 q 584 382 586 322 q 582 490 582 442 l 582 1014 l 721 1014 l 721 0 l 532 0 l 238 843 q 244 753 240 807 q 249 640 247 699 q 251 532 251 582 l 251 0 l 113 0 m 347 1125 l 156 1319 l 308 1319 l 418 1214 l 524 1319 l 678 1319 l 486 1125 l 347 1125 z "},"Ņ":{"ha":833,"x_min":113,"x_max":721,"o":"m 113 0 l 113 1014 l 301 1014 l 597 171 q 590 267 594 211 q 584 382 586 322 q 582 490 582 442 l 582 1014 l 721 1014 l 721 0 l 532 0 l 238 843 q 244 753 240 807 q 249 640 247 699 q 251 532 251 582 l 251 0 l 113 0 m 258 -333 l 390 -132 l 554 -132 l 404 -333 l 258 -333 z "},"Ŋ":{"ha":833,"x_min":113,"x_max":721,"o":"m 338 -250 l 338 -110 l 425 -110 q 532 -72 493 -110 q 571 32 571 -33 l 238 843 q 244 753 240 807 q 249 640 247 699 q 251 532 251 582 l 251 0 l 113 0 l 113 1014 l 301 1014 l 597 285 q 590 381 594 325 q 584 496 586 436 q 582 606 582 556 l 582 1014 l 721 1014 l 721 25 q 683 -119 721 -57 q 578 -216 646 -182 q 422 -250 511 -250 l 338 -250 z "},"Ñ":{"ha":833,"x_min":113,"x_max":721,"o":"m 113 0 l 113 1014 l 301 1014 l 597 171 q 590 267 594 211 q 584 382 586 322 q 582 490 582 442 l 582 1014 l 721 1014 l 721 0 l 532 0 l 238 843 q 244 753 240 807 q 249 640 247 699 q 251 532 251 582 l 251 0 l 113 0 m 514 1126 q 444 1140 471 1126 q 400 1172 418 1154 q 365 1205 382 1190 q 326 1219 349 1219 q 297 1207 308 1219 q 285 1171 285 1194 l 285 1133 l 186 1133 l 186 1176 q 223 1280 186 1242 q 319 1318 260 1318 q 389 1304 363 1318 q 433 1272 415 1290 q 468 1240 451 1254 q 507 1225 485 1225 q 538 1237 526 1225 q 549 1271 549 1249 l 549 1311 l 647 1311 l 647 1268 q 611 1165 647 1203 q 514 1126 575 1126 z "},"O":{"ha":833,"x_min":111,"x_max":722,"o":"m 417 -14 q 253 22 322 -14 q 148 124 185 57 q 111 282 111 192 l 111 732 q 148 890 111 824 q 253 992 185 957 q 417 1028 322 1028 q 580 992 511 1028 q 685 890 649 957 q 722 733 722 824 l 722 282 q 685 124 722 192 q 580 22 649 57 q 417 -14 511 -14 m 417 119 q 533 162 493 119 q 572 282 572 204 l 572 732 q 533 853 572 811 q 417 894 493 894 q 301 853 342 894 q 261 732 261 811 l 261 282 q 301 162 261 204 q 417 119 342 119 z "},"Ó":{"ha":833,"x_min":111,"x_max":722,"o":"m 417 -14 q 253 22 322 -14 q 148 124 185 57 q 111 282 111 192 l 111 732 q 148 890 111 824 q 253 992 185 957 q 417 1028 322 1028 q 580 992 511 1028 q 685 890 649 957 q 722 733 722 824 l 722 282 q 685 124 722 192 q 580 22 649 57 q 417 -14 511 -14 m 417 119 q 533 162 493 119 q 572 282 572 204 l 572 732 q 533 853 572 811 q 417 894 493 894 q 301 853 342 894 q 261 732 261 811 l 261 282 q 301 162 261 204 q 417 119 342 119 m 324 1125 l 471 1319 l 632 1319 l 475 1125 l 324 1125 z "},"Ŏ":{"ha":833,"x_min":111,"x_max":722,"o":"m 417 -14 q 253 22 322 -14 q 148 124 185 57 q 111 282 111 192 l 111 732 q 148 890 111 824 q 253 992 185 957 q 417 1028 322 1028 q 580 992 511 1028 q 685 890 649 957 q 722 733 722 824 l 722 282 q 685 124 722 192 q 580 22 649 57 q 417 -14 511 -14 m 417 119 q 533 162 493 119 q 572 282 572 204 l 572 732 q 533 853 572 811 q 417 894 493 894 q 301 853 342 894 q 261 732 261 811 l 261 282 q 301 162 261 204 q 417 119 342 119 m 417 1117 q 249 1172 313 1117 q 185 1319 185 1228 l 301 1319 q 333 1239 301 1269 q 415 1208 364 1208 q 501 1239 469 1208 q 532 1319 532 1269 l 649 1319 q 585 1172 649 1228 q 417 1117 521 1117 z "},"Ô":{"ha":833,"x_min":111,"x_max":722,"o":"m 417 -14 q 253 22 322 -14 q 148 124 185 57 q 111 282 111 192 l 111 732 q 148 890 111 824 q 253 992 185 957 q 417 1028 322 1028 q 580 992 511 1028 q 685 890 649 957 q 722 733 722 824 l 722 282 q 685 124 722 192 q 580 22 649 57 q 417 -14 511 -14 m 417 119 q 533 162 493 119 q 572 282 572 204 l 572 732 q 533 853 572 811 q 417 894 493 894 q 301 853 342 894 q 261 732 261 811 l 261 282 q 301 162 261 204 q 417 119 342 119 m 156 1125 l 347 1319 l 486 1319 l 678 1125 l 525 1125 l 415 1231 l 310 1125 l 156 1125 z "},"Ố":{"ha":833,"x_min":111,"x_max":876,"o":"m 417 -14 q 253 22 322 -14 q 148 124 185 57 q 111 282 111 192 l 111 732 q 148 890 111 824 q 253 992 185 957 q 417 1028 322 1028 q 580 992 511 1028 q 685 890 649 957 q 722 733 722 824 l 722 282 q 685 124 722 192 q 580 22 649 57 q 417 -14 511 -14 m 417 119 q 533 162 493 119 q 572 282 572 204 l 572 732 q 533 853 572 811 q 417 894 493 894 q 301 853 342 894 q 261 732 261 811 l 261 282 q 301 162 261 204 q 417 119 342 119 m 572 1251 l 718 1417 l 876 1417 l 722 1251 l 572 1251 m 157 1083 l 347 1278 l 486 1278 l 678 1083 l 524 1083 l 417 1189 l 310 1083 l 157 1083 z "},"Ộ":{"ha":833,"x_min":111,"x_max":722,"o":"m 156 1125 l 347 1319 l 486 1319 l 678 1125 l 525 1125 l 415 1231 l 310 1125 l 156 1125 m 417 -14 q 253 22 322 -14 q 148 124 185 57 q 111 282 111 192 l 111 732 q 148 890 111 824 q 253 992 185 957 q 417 1028 322 1028 q 580 992 511 1028 q 685 890 649 957 q 722 733 722 824 l 722 282 q 685 124 722 192 q 580 22 649 57 q 417 -14 511 -14 m 417 119 q 533 162 493 119 q 572 282 572 204 l 572 732 q 533 853 572 811 q 417 894 493 894 q 301 853 342 894 q 261 732 261 811 l 261 282 q 301 162 261 204 q 417 119 342 119 m 417 -304 q 339 -279 368 -304 q 310 -210 310 -254 q 339 -141 310 -167 q 417 -115 368 -115 q 494 -141 465 -115 q 524 -210 524 -167 q 494 -279 524 -254 q 417 -304 465 -304 z "},"Ồ":{"ha":833,"x_min":111,"x_max":771,"o":"m 417 -14 q 253 22 322 -14 q 148 124 185 57 q 111 282 111 192 l 111 732 q 148 890 111 824 q 253 992 185 957 q 417 1028 322 1028 q 580 992 511 1028 q 685 890 649 957 q 722 733 722 824 l 722 282 q 685 124 722 192 q 580 22 649 57 q 417 -14 511 -14 m 417 119 q 533 162 493 119 q 572 282 572 204 l 572 732 q 533 853 572 811 q 417 894 493 894 q 301 853 342 894 q 261 732 261 811 l 261 282 q 301 162 261 204 q 417 119 342 119 m 622 1251 l 457 1417 l 615 1417 l 771 1251 l 622 1251 m 157 1083 l 347 1278 l 486 1278 l 678 1083 l 524 1083 l 417 1189 l 310 1083 l 157 1083 z "},"Ổ":{"ha":833,"x_min":111,"x_max":781,"o":"m 417 -14 q 253 22 322 -14 q 148 124 185 57 q 111 282 111 192 l 111 732 q 148 890 111 824 q 253 992 185 957 q 417 1028 322 1028 q 580 992 511 1028 q 685 890 649 957 q 722 733 722 824 l 722 282 q 685 124 722 192 q 580 22 649 57 q 417 -14 511 -14 m 417 119 q 533 162 493 119 q 572 282 572 204 l 572 732 q 533 853 572 811 q 417 894 493 894 q 301 853 342 894 q 261 732 261 811 l 261 282 q 301 162 261 204 q 417 119 342 119 m 590 1218 l 651 1278 q 665 1306 665 1292 q 640 1329 665 1329 l 547 1329 l 547 1417 l 668 1417 q 750 1392 719 1417 q 781 1322 781 1367 q 774 1287 781 1304 q 756 1258 768 1269 l 713 1218 l 590 1218 m 157 1083 l 347 1278 l 486 1278 l 678 1083 l 524 1083 l 417 1189 l 310 1083 l 157 1083 z "},"Ỗ":{"ha":833,"x_min":111,"x_max":722,"o":"m 417 -14 q 253 22 322 -14 q 148 124 185 57 q 111 282 111 192 l 111 732 q 148 890 111 824 q 253 992 185 957 q 417 1028 322 1028 q 580 992 511 1028 q 685 890 649 957 q 722 733 722 824 l 722 282 q 685 124 722 192 q 580 22 649 57 q 417 -14 511 -14 m 417 119 q 533 162 493 119 q 572 282 572 204 l 572 732 q 533 853 572 811 q 417 894 493 894 q 301 853 342 894 q 261 732 261 811 l 261 282 q 301 162 261 204 q 417 119 342 119 m 525 1274 q 453 1283 483 1274 q 402 1303 424 1292 q 361 1324 381 1315 q 319 1333 342 1333 q 291 1323 303 1333 q 279 1294 279 1313 l 279 1286 l 182 1286 l 182 1294 q 217 1383 182 1350 q 311 1417 251 1417 q 382 1408 353 1417 q 432 1387 411 1399 q 472 1366 453 1375 q 514 1357 492 1357 q 543 1368 532 1357 q 554 1396 554 1379 l 554 1404 l 651 1404 l 651 1396 q 617 1307 651 1340 q 525 1274 583 1274 m 157 1083 l 308 1233 l 525 1233 l 676 1083 l 522 1083 l 417 1186 l 310 1083 l 157 1083 z "},"Ö":{"ha":833,"x_min":111,"x_max":722,"o":"m 417 -14 q 253 22 322 -14 q 148 124 185 57 q 111 282 111 192 l 111 732 q 148 890 111 824 q 253 992 185 957 q 417 1028 322 1028 q 580 992 511 1028 q 685 890 649 957 q 722 733 722 824 l 722 282 q 685 124 722 192 q 580 22 649 57 q 417 -14 511 -14 m 417 119 q 533 162 493 119 q 572 282 572 204 l 572 732 q 533 853 572 811 q 417 894 493 894 q 301 853 342 894 q 261 732 261 811 l 261 282 q 301 162 261 204 q 417 119 342 119 m 575 1129 q 506 1154 532 1129 q 481 1222 481 1179 q 506 1292 481 1267 q 575 1318 532 1318 q 645 1292 619 1318 q 671 1222 671 1267 q 645 1154 671 1179 q 575 1129 619 1129 m 258 1129 q 188 1154 214 1129 q 163 1222 163 1179 q 188 1292 163 1267 q 258 1318 214 1318 q 327 1292 301 1318 q 353 1222 353 1267 q 327 1154 353 1179 q 258 1129 301 1129 z "},"Ọ":{"ha":833,"x_min":111,"x_max":722,"o":"m 417 -14 q 253 22 322 -14 q 148 124 185 57 q 111 282 111 192 l 111 732 q 148 890 111 824 q 253 992 185 957 q 417 1028 322 1028 q 580 992 511 1028 q 685 890 649 957 q 722 733 722 824 l 722 282 q 685 124 722 192 q 580 22 649 57 q 417 -14 511 -14 m 417 119 q 533 162 493 119 q 572 282 572 204 l 572 732 q 533 853 572 811 q 417 894 493 894 q 301 853 342 894 q 261 732 261 811 l 261 282 q 301 162 261 204 q 417 119 342 119 m 431 -304 q 353 -279 382 -304 q 324 -210 324 -254 q 353 -141 324 -167 q 431 -115 382 -115 q 508 -141 479 -115 q 538 -210 538 -167 q 508 -279 538 -254 q 431 -304 479 -304 z "},"Ò":{"ha":833,"x_min":111,"x_max":722,"o":"m 417 -14 q 253 22 322 -14 q 148 124 185 57 q 111 282 111 192 l 111 732 q 148 890 111 824 q 253 992 185 957 q 417 1028 322 1028 q 580 992 511 1028 q 685 890 649 957 q 722 733 722 824 l 722 282 q 685 124 722 192 q 580 22 649 57 q 417 -14 511 -14 m 417 119 q 533 162 493 119 q 572 282 572 204 l 572 732 q 533 853 572 811 q 417 894 493 894 q 301 853 342 894 q 261 732 261 811 l 261 282 q 301 162 261 204 q 417 119 342 119 m 358 1125 l 197 1319 l 364 1319 l 514 1125 l 358 1125 z "},"Ỏ":{"ha":833,"x_min":111,"x_max":722,"o":"m 417 -14 q 253 22 322 -14 q 148 124 185 57 q 111 282 111 192 l 111 732 q 148 890 111 824 q 253 992 185 957 q 417 1028 322 1028 q 580 992 511 1028 q 685 890 649 957 q 722 733 722 824 l 722 282 q 685 124 722 192 q 580 22 649 57 q 417 -14 511 -14 m 417 119 q 533 162 493 119 q 572 282 572 204 l 572 732 q 533 853 572 811 q 417 894 493 894 q 301 853 342 894 q 261 732 261 811 l 261 282 q 301 162 261 204 q 417 119 342 119 m 376 1110 l 440 1194 q 460 1238 460 1222 q 418 1265 460 1265 l 311 1265 l 311 1363 l 432 1363 q 538 1333 497 1363 q 578 1254 578 1304 q 553 1178 578 1213 l 504 1110 l 376 1110 z "},"Ơ":{"ha":833,"x_min":111,"x_max":760,"o":"m 547 868 l 547 972 l 588 972 q 624 985 611 972 q 636 1021 636 999 l 636 1125 l 760 1125 l 760 1015 q 715 908 760 949 q 597 868 671 868 l 547 868 m 417 -14 q 253 22 322 -14 q 148 124 185 57 q 111 282 111 192 l 111 732 q 148 890 111 824 q 253 992 185 957 q 417 1028 322 1028 q 580 992 511 1028 q 685 890 649 957 q 722 733 722 824 l 722 282 q 685 124 722 192 q 580 22 649 57 q 417 -14 511 -14 m 417 119 q 533 162 493 119 q 572 282 572 204 l 572 732 q 533 853 572 811 q 417 894 493 894 q 301 853 342 894 q 261 732 261 811 l 261 282 q 301 162 261 204 q 417 119 342 119 z "},"Ớ":{"ha":833,"x_min":111,"x_max":760,"o":"m 547 868 l 547 972 l 588 972 q 624 985 611 972 q 636 1021 636 999 l 636 1125 l 760 1125 l 760 1015 q 715 908 760 949 q 597 868 671 868 l 547 868 m 417 -14 q 253 22 322 -14 q 148 124 185 57 q 111 282 111 192 l 111 732 q 148 890 111 824 q 253 992 185 957 q 417 1028 322 1028 q 580 992 511 1028 q 685 890 649 957 q 722 733 722 824 l 722 282 q 685 124 722 192 q 580 22 649 57 q 417 -14 511 -14 m 417 119 q 533 162 493 119 q 572 282 572 204 l 572 732 q 533 853 572 811 q 417 894 493 894 q 301 853 342 894 q 261 732 261 811 l 261 282 q 301 162 261 204 q 417 119 342 119 m 310 1125 l 457 1319 l 618 1319 l 461 1125 l 310 1125 z "},"Ợ":{"ha":833,"x_min":111,"x_max":760,"o":"m 547 868 l 547 972 l 588 972 q 624 985 611 972 q 636 1021 636 999 l 636 1125 l 760 1125 l 760 1015 q 715 908 760 949 q 597 868 671 868 l 547 868 m 417 -14 q 253 22 322 -14 q 148 124 185 57 q 111 282 111 192 l 111 732 q 148 890 111 824 q 253 992 185 957 q 417 1028 322 1028 q 580 992 511 1028 q 685 890 649 957 q 722 733 722 824 l 722 282 q 685 124 722 192 q 580 22 649 57 q 417 -14 511 -14 m 417 119 q 533 162 493 119 q 572 282 572 204 l 572 732 q 533 853 572 811 q 417 894 493 894 q 301 853 342 894 q 261 732 261 811 l 261 282 q 301 162 261 204 q 417 119 342 119 m 431 -304 q 353 -279 382 -304 q 324 -210 324 -254 q 353 -141 324 -167 q 431 -115 382 -115 q 508 -141 479 -115 q 538 -210 538 -167 q 508 -279 538 -254 q 431 -304 479 -304 z "},"Ờ":{"ha":833,"x_min":111,"x_max":760,"o":"m 547 868 l 547 972 l 588 972 q 624 985 611 972 q 636 1021 636 999 l 636 1125 l 760 1125 l 760 1015 q 715 908 760 949 q 597 868 671 868 l 547 868 m 417 -14 q 253 22 322 -14 q 148 124 185 57 q 111 282 111 192 l 111 732 q 148 890 111 824 q 253 992 185 957 q 417 1028 322 1028 q 580 992 511 1028 q 685 890 649 957 q 722 733 722 824 l 722 282 q 685 124 722 192 q 580 22 649 57 q 417 -14 511 -14 m 417 119 q 533 162 493 119 q 572 282 572 204 l 572 732 q 533 853 572 811 q 417 894 493 894 q 301 853 342 894 q 261 732 261 811 l 261 282 q 301 162 261 204 q 417 119 342 119 m 344 1125 l 183 1319 l 350 1319 l 500 1125 l 344 1125 z "},"Ở":{"ha":833,"x_min":111,"x_max":760,"o":"m 547 868 l 547 972 l 588 972 q 624 985 611 972 q 636 1021 636 999 l 636 1125 l 760 1125 l 760 1015 q 715 908 760 949 q 597 868 671 868 l 547 868 m 417 -14 q 253 22 322 -14 q 148 124 185 57 q 111 282 111 192 l 111 732 q 148 890 111 824 q 253 992 185 957 q 417 1028 322 1028 q 580 992 511 1028 q 685 890 649 957 q 722 733 722 824 l 722 282 q 685 124 722 192 q 580 22 649 57 q 417 -14 511 -14 m 417 119 q 533 162 493 119 q 572 282 572 204 l 572 732 q 533 853 572 811 q 417 894 493 894 q 301 853 342 894 q 261 732 261 811 l 261 282 q 301 162 261 204 q 417 119 342 119 m 353 1110 l 417 1194 q 436 1238 436 1222 q 394 1265 436 1265 l 288 1265 l 288 1363 l 408 1363 q 514 1333 474 1363 q 554 1254 554 1304 q 529 1178 554 1213 l 481 1110 l 353 1110 z "},"Ỡ":{"ha":833,"x_min":111,"x_max":760,"o":"m 547 868 l 547 972 l 588 972 q 624 985 611 972 q 636 1021 636 999 l 636 1125 l 760 1125 l 760 1015 q 715 908 760 949 q 597 868 671 868 l 547 868 m 417 -14 q 253 22 322 -14 q 148 124 185 57 q 111 282 111 192 l 111 732 q 148 890 111 824 q 253 992 185 957 q 417 1028 322 1028 q 580 992 511 1028 q 685 890 649 957 q 722 733 722 824 l 722 282 q 685 124 722 192 q 580 22 649 57 q 417 -14 511 -14 m 417 119 q 533 162 493 119 q 572 282 572 204 l 572 732 q 533 853 572 811 q 417 894 493 894 q 301 853 342 894 q 261 732 261 811 l 261 282 q 301 162 261 204 q 417 119 342 119 m 500 1126 q 431 1140 457 1126 q 386 1172 404 1154 q 351 1205 368 1190 q 313 1219 335 1219 q 283 1207 294 1219 q 271 1171 271 1194 l 271 1133 l 172 1133 l 172 1176 q 209 1280 172 1242 q 306 1318 246 1318 q 375 1304 349 1318 q 419 1272 401 1290 q 454 1240 438 1254 q 493 1225 471 1225 q 524 1237 513 1225 q 535 1271 535 1249 l 535 1311 l 633 1311 l 633 1268 q 597 1165 633 1203 q 500 1126 561 1126 z "},"Ő":{"ha":833,"x_min":111,"x_max":751,"o":"m 417 -14 q 253 22 322 -14 q 148 124 185 57 q 111 282 111 192 l 111 732 q 148 890 111 824 q 253 992 185 957 q 417 1028 322 1028 q 580 992 511 1028 q 685 890 649 957 q 722 733 722 824 l 722 282 q 685 124 722 192 q 580 22 649 57 q 417 -14 511 -14 m 417 119 q 533 162 493 119 q 572 282 572 204 l 572 732 q 533 853 572 811 q 417 894 493 894 q 301 853 342 894 q 261 732 261 811 l 261 282 q 301 162 261 204 q 417 119 342 119 m 451 1125 l 601 1319 l 751 1319 l 592 1125 l 451 1125 m 186 1125 l 338 1319 l 486 1319 l 326 1125 l 186 1125 z "},"Ō":{"ha":833,"x_min":111,"x_max":722,"o":"m 417 -14 q 253 22 322 -14 q 148 124 185 57 q 111 282 111 192 l 111 732 q 148 890 111 824 q 253 992 185 957 q 417 1028 322 1028 q 580 992 511 1028 q 685 890 649 957 q 722 733 722 824 l 722 282 q 685 124 722 192 q 580 22 649 57 q 417 -14 511 -14 m 417 119 q 533 162 493 119 q 572 282 572 204 l 572 732 q 533 853 572 811 q 417 894 493 894 q 301 853 342 894 q 261 732 261 811 l 261 282 q 301 162 261 204 q 417 119 342 119 m 186 1158 l 186 1276 l 647 1276 l 647 1158 l 186 1158 z "},"Ǫ":{"ha":833,"x_min":111,"x_max":722,"o":"m 517 -292 q 390 -253 438 -292 q 343 -154 343 -214 q 356 -105 343 -132 q 394 -51 369 -78 q 449 -1 418 -24 q 438 -9 446 -4 q 417 -14 431 -14 q 253 22 322 -14 q 148 124 185 57 q 111 282 111 192 l 111 732 q 148 890 111 824 q 253 992 185 957 q 417 1028 322 1028 q 580 992 511 1028 q 685 890 649 957 q 722 733 722 824 l 722 282 q 690 134 722 199 q 599 33 657 69 l 551 -6 q 493 -69 510 -40 q 476 -125 476 -99 q 497 -171 476 -153 q 550 -189 517 -189 l 636 -189 l 636 -292 l 517 -292 m 417 119 q 533 162 493 119 q 572 282 572 204 l 572 732 q 533 853 572 811 q 417 894 493 894 q 301 853 342 894 q 261 732 261 811 l 261 282 q 301 162 261 204 q 417 119 342 119 z "},"Ø":{"ha":833,"x_min":40,"x_max":793,"o":"m 40 -56 l 663 1042 l 793 1042 l 171 -56 l 40 -56 m 417 -14 q 253 22 322 -14 q 148 124 185 57 q 111 282 111 192 l 111 732 q 148 890 111 824 q 253 992 185 957 q 417 1028 322 1028 q 580 992 511 1028 q 685 890 649 957 q 722 733 722 824 l 722 282 q 685 124 722 192 q 580 22 649 57 q 417 -14 511 -14 m 417 119 q 534 162 493 119 q 575 282 575 204 l 575 732 q 534 853 575 811 q 417 894 493 894 q 300 853 342 894 q 258 732 258 811 l 258 282 q 300 162 258 204 q 417 119 342 119 z "},"Ǿ":{"ha":833,"x_min":40,"x_max":793,"o":"m 40 -56 l 663 1042 l 793 1042 l 171 -56 l 40 -56 m 417 -14 q 253 22 322 -14 q 148 124 185 57 q 111 282 111 192 l 111 732 q 148 890 111 824 q 253 992 185 957 q 417 1028 322 1028 q 580 992 511 1028 q 685 890 649 957 q 722 733 722 824 l 722 282 q 685 124 722 192 q 580 22 649 57 q 417 -14 511 -14 m 417 119 q 534 162 493 119 q 575 282 575 204 l 575 732 q 534 853 575 811 q 417 894 493 894 q 300 853 342 894 q 258 732 258 811 l 258 282 q 300 162 258 204 q 417 119 342 119 m 324 1125 l 471 1319 l 632 1319 l 475 1125 l 324 1125 z "},"Õ":{"ha":833,"x_min":111,"x_max":722,"o":"m 417 -14 q 253 22 322 -14 q 148 124 185 57 q 111 282 111 192 l 111 732 q 148 890 111 824 q 253 992 185 957 q 417 1028 322 1028 q 580 992 511 1028 q 685 890 649 957 q 722 733 722 824 l 722 282 q 685 124 722 192 q 580 22 649 57 q 417 -14 511 -14 m 417 119 q 533 162 493 119 q 572 282 572 204 l 572 732 q 533 853 572 811 q 417 894 493 894 q 301 853 342 894 q 261 732 261 811 l 261 282 q 301 162 261 204 q 417 119 342 119 m 514 1126 q 444 1140 471 1126 q 400 1172 418 1154 q 365 1205 382 1190 q 326 1219 349 1219 q 297 1207 308 1219 q 285 1171 285 1194 l 285 1133 l 186 1133 l 186 1176 q 223 1280 186 1242 q 319 1318 260 1318 q 389 1304 363 1318 q 433 1272 415 1290 q 468 1240 451 1254 q 507 1225 485 1225 q 538 1237 526 1225 q 549 1271 549 1249 l 549 1311 l 647 1311 l 647 1268 q 611 1165 647 1203 q 514 1126 575 1126 z "},"Œ":{"ha":833,"x_min":51,"x_max":800,"o":"m 263 -11 q 149 21 197 -11 q 76 113 101 53 q 51 256 51 174 l 51 760 q 76 904 51 844 q 149 996 101 964 q 263 1028 197 1028 q 344 1008 311 1028 q 394 959 376 988 q 415 903 411 931 l 422 903 l 422 1014 l 800 1014 l 800 882 l 561 882 l 561 589 l 765 589 l 765 457 l 561 457 l 561 132 l 800 132 l 800 0 l 422 0 l 422 114 l 415 114 q 394 58 411 88 q 344 9 376 29 q 263 -11 311 -11 m 308 118 q 390 155 361 118 q 419 256 419 192 l 419 760 q 390 862 419 825 q 308 899 361 899 q 227 862 257 899 q 197 760 197 825 l 197 256 q 227 156 197 193 q 308 118 257 118 z "},"P":{"ha":833,"x_min":117,"x_max":772,"o":"m 117 0 l 117 1014 l 449 1014 q 620 976 547 1014 q 733 870 693 939 q 772 708 772 801 q 732 547 772 617 q 619 440 692 478 q 449 403 547 403 l 267 403 l 267 0 l 117 0 m 267 538 l 449 538 q 573 584 526 538 q 619 708 619 631 q 573 833 619 788 q 449 879 526 879 l 267 879 l 267 538 z "},"Þ":{"ha":833,"x_min":117,"x_max":772,"o":"m 117 0 l 117 1014 l 267 1014 l 267 811 l 465 811 q 628 776 560 811 q 735 678 697 742 q 772 528 772 614 q 689 321 772 397 q 465 244 606 244 l 267 244 l 267 0 l 117 0 m 267 374 l 456 374 q 576 415 533 374 q 619 528 619 457 q 576 641 619 600 q 456 682 532 682 l 267 682 l 267 374 z "},"Q":{"ha":833,"x_min":103,"x_max":743,"o":"m 576 -250 l 426 -1 l 449 -12 q 435 -13 443 -12 q 417 -14 426 -14 q 251 24 322 -14 q 142 128 181 61 q 103 286 103 196 l 103 728 q 142 886 103 819 q 251 990 181 953 q 417 1028 322 1028 q 583 990 513 1028 q 692 886 653 953 q 731 728 731 819 l 731 286 q 691 125 731 194 q 578 21 651 56 l 743 -250 l 576 -250 m 417 118 q 537 164 493 118 q 581 286 581 210 l 581 728 q 537 851 581 806 q 417 896 493 896 q 297 851 342 896 q 253 728 253 806 l 253 286 q 297 164 253 210 q 417 118 340 118 z "},"R":{"ha":833,"x_min":117,"x_max":765,"o":"m 117 0 l 117 1014 l 435 1014 q 601 977 531 1014 q 712 874 672 940 q 751 717 751 807 q 699 541 751 615 q 558 436 647 467 l 765 0 l 594 0 l 410 417 l 267 417 l 267 0 l 117 0 m 267 549 l 435 549 q 554 594 510 549 q 599 714 599 639 q 554 836 599 792 q 435 881 510 881 l 267 881 l 267 549 z "},"Ŕ":{"ha":833,"x_min":117,"x_max":765,"o":"m 117 0 l 117 1014 l 435 1014 q 601 977 531 1014 q 712 874 672 940 q 751 717 751 807 q 699 541 751 615 q 558 436 647 467 l 765 0 l 594 0 l 410 417 l 267 417 l 267 0 l 117 0 m 267 549 l 435 549 q 554 594 510 549 q 599 714 599 639 q 554 836 599 792 q 435 881 510 881 l 267 881 l 267 549 m 324 1125 l 471 1319 l 632 1319 l 475 1125 l 324 1125 z "},"Ř":{"ha":833,"x_min":117,"x_max":765,"o":"m 117 0 l 117 1014 l 435 1014 q 601 977 531 1014 q 712 874 672 940 q 751 717 751 807 q 699 541 751 615 q 558 436 647 467 l 765 0 l 594 0 l 410 417 l 267 417 l 267 0 l 117 0 m 267 549 l 435 549 q 554 594 510 549 q 599 714 599 639 q 554 836 599 792 q 435 881 510 881 l 267 881 l 267 549 m 347 1125 l 156 1319 l 308 1319 l 418 1214 l 524 1319 l 678 1319 l 486 1125 l 347 1125 z "},"Ŗ":{"ha":833,"x_min":117,"x_max":765,"o":"m 117 0 l 117 1014 l 435 1014 q 601 977 531 1014 q 712 874 672 940 q 751 717 751 807 q 699 541 751 615 q 558 436 647 467 l 765 0 l 594 0 l 410 417 l 267 417 l 267 0 l 117 0 m 267 549 l 435 549 q 554 594 510 549 q 599 714 599 639 q 554 836 599 792 q 435 881 510 881 l 267 881 l 267 549 m 258 -333 l 390 -132 l 554 -132 l 404 -333 l 258 -333 z "},"S":{"ha":833,"x_min":90,"x_max":743,"o":"m 421 -14 q 244 20 318 -14 q 131 117 171 54 q 90 268 90 181 l 239 268 q 288 159 239 199 q 422 119 336 119 q 549 158 503 119 q 594 265 594 197 q 563 364 594 322 q 474 421 532 406 l 346 458 q 174 567 235 490 q 114 751 114 644 q 151 897 114 835 q 258 994 189 960 q 422 1029 328 1029 q 645 954 561 1029 q 731 753 729 879 l 581 753 q 538 858 581 819 q 419 896 496 896 q 304 860 346 896 q 263 761 263 825 q 294 663 263 704 q 383 604 325 621 l 513 565 q 683 457 624 535 q 743 271 743 379 q 703 122 743 186 q 590 22 663 57 q 421 -14 518 -14 z "},"Ś":{"ha":833,"x_min":90,"x_max":743,"o":"m 421 -14 q 244 20 318 -14 q 131 117 171 54 q 90 268 90 181 l 239 268 q 288 159 239 199 q 422 119 336 119 q 549 158 503 119 q 594 265 594 197 q 563 364 594 322 q 474 421 532 406 l 346 458 q 174 567 235 490 q 114 751 114 644 q 151 897 114 835 q 258 994 189 960 q 422 1029 328 1029 q 645 954 561 1029 q 731 753 729 879 l 581 753 q 538 858 581 819 q 419 896 496 896 q 304 860 346 896 q 263 761 263 825 q 294 663 263 704 q 383 604 325 621 l 513 565 q 683 457 624 535 q 743 271 743 379 q 703 122 743 186 q 590 22 663 57 q 421 -14 518 -14 m 324 1125 l 471 1319 l 632 1319 l 475 1125 l 324 1125 z "},"Š":{"ha":833,"x_min":90,"x_max":743,"o":"m 421 -14 q 244 20 318 -14 q 131 117 171 54 q 90 268 90 181 l 239 268 q 288 159 239 199 q 422 119 336 119 q 549 158 503 119 q 594 265 594 197 q 563 364 594 322 q 474 421 532 406 l 346 458 q 174 567 235 490 q 114 751 114 644 q 151 897 114 835 q 258 994 189 960 q 422 1029 328 1029 q 645 954 561 1029 q 731 753 729 879 l 581 753 q 538 858 581 819 q 419 896 496 896 q 304 860 346 896 q 263 761 263 825 q 294 663 263 704 q 383 604 325 621 l 513 565 q 683 457 624 535 q 743 271 743 379 q 703 122 743 186 q 590 22 663 57 q 421 -14 518 -14 m 347 1125 l 156 1319 l 308 1319 l 418 1214 l 524 1319 l 678 1319 l 486 1125 l 347 1125 z "},"Ş":{"ha":833,"x_min":90,"x_max":743,"o":"m 281 -292 l 281 -208 l 382 -208 q 433 -192 414 -208 q 453 -158 453 -176 q 413 -114 453 -132 q 303 -96 374 -96 l 351 32 l 436 32 l 408 -50 q 487 -68 446 -54 q 556 -108 528 -82 q 583 -172 583 -133 q 535 -256 583 -221 q 408 -292 488 -292 l 281 -292 m 421 -14 q 244 20 318 -14 q 131 117 171 54 q 90 268 90 181 l 239 268 q 288 159 239 199 q 422 119 336 119 q 549 158 503 119 q 594 265 594 197 q 563 364 594 322 q 474 421 532 406 l 346 458 q 174 567 235 490 q 114 751 114 644 q 151 897 114 835 q 258 994 189 960 q 422 1029 328 1029 q 645 954 561 1029 q 731 753 729 879 l 581 753 q 538 858 581 819 q 419 896 496 896 q 304 860 346 896 q 263 761 263 825 q 294 663 263 704 q 383 604 325 621 l 513 565 q 683 457 624 535 q 743 271 743 379 q 703 122 743 186 q 590 22 663 57 q 421 -14 518 -14 z "},"Ŝ":{"ha":833,"x_min":90,"x_max":743,"o":"m 421 -14 q 244 20 318 -14 q 131 117 171 54 q 90 268 90 181 l 239 268 q 288 159 239 199 q 422 119 336 119 q 549 158 503 119 q 594 265 594 197 q 563 364 594 322 q 474 421 532 406 l 346 458 q 174 567 235 490 q 114 751 114 644 q 151 897 114 835 q 258 994 189 960 q 422 1029 328 1029 q 645 954 561 1029 q 731 753 729 879 l 581 753 q 538 858 581 819 q 419 896 496 896 q 304 860 346 896 q 263 761 263 825 q 294 663 263 704 q 383 604 325 621 l 513 565 q 683 457 624 535 q 743 271 743 379 q 703 122 743 186 q 590 22 663 57 q 421 -14 518 -14 m 156 1125 l 347 1319 l 486 1319 l 678 1125 l 525 1125 l 415 1231 l 310 1125 l 156 1125 z "},"Ș":{"ha":833,"x_min":90,"x_max":743,"o":"m 421 -14 q 244 20 318 -14 q 131 117 171 54 q 90 268 90 181 l 239 268 q 288 159 239 199 q 422 119 336 119 q 549 158 503 119 q 594 265 594 197 q 563 364 594 322 q 474 421 532 406 l 346 458 q 174 567 235 490 q 114 751 114 644 q 151 897 114 835 q 258 994 189 960 q 422 1029 328 1029 q 645 954 561 1029 q 731 753 729 879 l 581 753 q 538 858 581 819 q 419 896 496 896 q 304 860 346 896 q 263 761 263 825 q 294 663 263 704 q 383 604 325 621 l 513 565 q 683 457 624 535 q 743 271 743 379 q 703 122 743 186 q 590 22 663 57 q 421 -14 518 -14 m 258 -333 l 390 -132 l 554 -132 l 404 -333 l 258 -333 z "},"ẞ":{"ha":833,"x_min":114,"x_max":758,"o":"m 114 0 l 114 722 q 151 876 114 811 q 258 978 189 942 q 417 1014 326 1014 l 742 1014 l 742 869 l 486 546 l 481 589 q 626 555 564 590 q 724 453 689 519 q 758 299 758 388 q 719 142 758 210 q 610 38 681 75 q 446 0 540 0 l 358 0 l 358 132 l 433 132 q 558 178 513 132 q 603 304 603 225 q 557 426 603 381 q 433 472 511 472 l 371 472 l 371 593 l 593 882 l 417 882 q 301 840 344 882 q 258 722 258 797 l 258 0 l 114 0 z "},"Ə":{"ha":833,"x_min":113,"x_max":721,"o":"m 417 -14 q 256 23 324 -14 q 150 126 188 60 q 113 282 113 193 l 113 563 l 571 563 l 571 733 q 532 853 571 811 q 417 896 493 896 q 303 853 342 896 q 264 732 264 811 l 114 732 q 150 890 114 824 q 254 992 186 956 q 417 1028 322 1028 q 581 992 513 1028 q 685 890 649 957 q 721 732 721 824 l 721 282 q 684 126 721 193 q 579 23 647 60 q 417 -14 511 -14 m 417 107 q 535 152 499 107 q 571 282 571 197 l 571 449 l 251 449 l 263 460 l 263 282 q 301 151 263 196 q 417 107 339 107 z "},"T":{"ha":833,"x_min":71,"x_max":763,"o":"m 342 0 l 342 876 l 71 876 l 71 1015 l 763 1015 l 763 876 l 492 876 l 492 0 l 342 0 z "},"Ŧ":{"ha":833,"x_min":71,"x_max":763,"o":"m 149 401 l 149 522 l 685 522 l 685 401 l 149 401 m 342 0 l 342 876 l 71 876 l 71 1015 l 763 1015 l 763 876 l 492 876 l 492 0 l 342 0 z "},"Ť":{"ha":833,"x_min":71,"x_max":763,"o":"m 342 0 l 342 876 l 71 876 l 71 1015 l 763 1015 l 763 876 l 492 876 l 492 0 l 342 0 m 347 1125 l 156 1319 l 308 1319 l 418 1214 l 524 1319 l 678 1319 l 486 1125 l 347 1125 z "},"Ţ":{"ha":833,"x_min":71,"x_max":763,"o":"m 347 -292 l 347 -208 l 449 -208 q 500 -192 481 -208 q 519 -158 519 -176 q 480 -114 519 -132 q 368 -96 440 -96 l 417 32 l 492 0 l 475 -50 q 553 -68 513 -54 q 622 -108 594 -82 q 650 -172 650 -133 q 602 -256 650 -221 q 475 -292 554 -292 l 347 -292 m 342 0 l 342 876 l 71 876 l 71 1015 l 763 1015 l 763 876 l 492 876 l 492 0 l 342 0 z "},"Ț":{"ha":833,"x_min":71,"x_max":763,"o":"m 342 0 l 342 876 l 71 876 l 71 1015 l 763 1015 l 763 876 l 492 876 l 492 0 l 342 0 m 208 -333 l 340 -132 l 504 -132 l 354 -333 l 208 -333 z "},"U":{"ha":833,"x_min":113,"x_max":721,"o":"m 417 -14 q 192 66 271 -14 q 113 283 113 146 l 113 1014 l 263 1014 l 263 283 q 301 163 263 207 q 417 118 339 118 q 532 163 493 118 q 571 283 571 207 l 571 1014 l 721 1014 l 721 283 q 642 66 721 146 q 417 -14 563 -14 z "},"Ú":{"ha":833,"x_min":113,"x_max":721,"o":"m 417 -14 q 192 66 271 -14 q 113 283 113 146 l 113 1014 l 263 1014 l 263 283 q 301 163 263 207 q 417 118 339 118 q 532 163 493 118 q 571 283 571 207 l 571 1014 l 721 1014 l 721 283 q 642 66 721 146 q 417 -14 563 -14 m 324 1125 l 471 1319 l 632 1319 l 475 1125 l 324 1125 z "},"Ŭ":{"ha":833,"x_min":113,"x_max":721,"o":"m 417 -14 q 192 66 271 -14 q 113 283 113 146 l 113 1014 l 263 1014 l 263 283 q 301 163 263 207 q 417 118 339 118 q 532 163 493 118 q 571 283 571 207 l 571 1014 l 721 1014 l 721 283 q 642 66 721 146 q 417 -14 563 -14 m 417 1117 q 249 1172 313 1117 q 185 1319 185 1228 l 301 1319 q 333 1239 301 1269 q 415 1208 364 1208 q 501 1239 469 1208 q 532 1319 532 1269 l 649 1319 q 585 1172 649 1228 q 417 1117 521 1117 z "},"Û":{"ha":833,"x_min":113,"x_max":721,"o":"m 417 -14 q 192 66 271 -14 q 113 283 113 146 l 113 1014 l 263 1014 l 263 283 q 301 163 263 207 q 417 118 339 118 q 532 163 493 118 q 571 283 571 207 l 571 1014 l 721 1014 l 721 283 q 642 66 721 146 q 417 -14 563 -14 m 156 1125 l 347 1319 l 486 1319 l 678 1125 l 525 1125 l 415 1231 l 310 1125 l 156 1125 z "},"Ü":{"ha":833,"x_min":113,"x_max":721,"o":"m 417 -14 q 192 66 271 -14 q 113 283 113 146 l 113 1014 l 263 1014 l 263 283 q 301 163 263 207 q 417 118 339 118 q 532 163 493 118 q 571 283 571 207 l 571 1014 l 721 1014 l 721 283 q 642 66 721 146 q 417 -14 563 -14 m 575 1129 q 506 1154 532 1129 q 481 1222 481 1179 q 506 1292 481 1267 q 575 1318 532 1318 q 645 1292 619 1318 q 671 1222 671 1267 q 645 1154 671 1179 q 575 1129 619 1129 m 258 1129 q 188 1154 214 1129 q 163 1222 163 1179 q 188 1292 163 1267 q 258 1318 214 1318 q 327 1292 301 1318 q 353 1222 353 1267 q 327 1154 353 1179 q 258 1129 301 1129 z "},"Ụ":{"ha":833,"x_min":113,"x_max":721,"o":"m 417 -14 q 192 66 271 -14 q 113 283 113 146 l 113 1014 l 263 1014 l 263 283 q 301 163 263 207 q 417 118 339 118 q 532 163 493 118 q 571 283 571 207 l 571 1014 l 721 1014 l 721 283 q 642 66 721 146 q 417 -14 563 -14 m 417 -304 q 339 -279 368 -304 q 310 -210 310 -254 q 339 -141 310 -167 q 417 -115 368 -115 q 494 -141 465 -115 q 524 -210 524 -167 q 494 -279 524 -254 q 417 -304 465 -304 z "},"Ù":{"ha":833,"x_min":113,"x_max":721,"o":"m 417 -14 q 192 66 271 -14 q 113 283 113 146 l 113 1014 l 263 1014 l 263 283 q 301 163 263 207 q 417 118 339 118 q 532 163 493 118 q 571 283 571 207 l 571 1014 l 721 1014 l 721 283 q 642 66 721 146 q 417 -14 563 -14 m 358 1125 l 197 1319 l 364 1319 l 514 1125 l 358 1125 z "},"Ủ":{"ha":833,"x_min":113,"x_max":721,"o":"m 417 -14 q 192 66 271 -14 q 113 283 113 146 l 113 1014 l 263 1014 l 263 283 q 301 163 263 207 q 417 118 339 118 q 532 163 493 118 q 571 283 571 207 l 571 1014 l 721 1014 l 721 283 q 642 66 721 146 q 417 -14 563 -14 m 353 1110 l 417 1194 q 436 1238 436 1222 q 394 1265 436 1265 l 288 1265 l 288 1363 l 408 1363 q 514 1333 474 1363 q 554 1254 554 1304 q 529 1178 554 1213 l 481 1110 l 353 1110 z "},"Ư":{"ha":833,"x_min":113,"x_max":850,"o":"m 608 910 l 608 1014 l 678 1014 q 714 1027 701 1014 q 726 1063 726 1040 l 726 1167 l 850 1167 l 850 1057 q 806 950 850 990 q 688 910 761 910 l 608 910 m 417 -14 q 192 66 271 -14 q 113 283 113 146 l 113 1014 l 263 1014 l 263 283 q 301 163 263 207 q 417 118 339 118 q 532 163 493 118 q 571 283 571 207 l 571 1014 l 721 1014 l 721 283 q 642 66 721 146 q 417 -14 563 -14 z "},"Ứ":{"ha":833,"x_min":113,"x_max":850,"o":"m 608 910 l 608 1014 l 678 1014 q 714 1027 701 1014 q 726 1063 726 1040 l 726 1167 l 850 1167 l 850 1057 q 806 950 850 990 q 688 910 761 910 l 608 910 m 417 -14 q 192 66 271 -14 q 113 283 113 146 l 113 1014 l 263 1014 l 263 283 q 301 163 263 207 q 417 118 339 118 q 532 163 493 118 q 571 283 571 207 l 571 1014 l 721 1014 l 721 283 q 642 66 721 146 q 417 -14 563 -14 m 324 1125 l 471 1319 l 632 1319 l 475 1125 l 324 1125 z "},"Ự":{"ha":833,"x_min":113,"x_max":850,"o":"m 431 -304 q 353 -279 382 -304 q 324 -210 324 -254 q 353 -141 324 -167 q 431 -115 382 -115 q 508 -141 479 -115 q 538 -210 538 -167 q 508 -279 538 -254 q 431 -304 479 -304 m 608 910 l 608 1014 l 678 1014 q 714 1027 701 1014 q 726 1063 726 1040 l 726 1167 l 850 1167 l 850 1057 q 806 950 850 990 q 688 910 761 910 l 608 910 m 417 -14 q 192 66 271 -14 q 113 283 113 146 l 113 1014 l 263 1014 l 263 283 q 301 163 263 207 q 417 118 339 118 q 532 163 493 118 q 571 283 571 207 l 571 1014 l 721 1014 l 721 283 q 642 66 721 146 q 417 -14 563 -14 z "},"Ừ":{"ha":833,"x_min":113,"x_max":850,"o":"m 608 910 l 608 1014 l 678 1014 q 714 1027 701 1014 q 726 1063 726 1040 l 726 1167 l 850 1167 l 850 1057 q 806 950 850 990 q 688 910 761 910 l 608 910 m 417 -14 q 192 66 271 -14 q 113 283 113 146 l 113 1014 l 263 1014 l 263 283 q 301 163 263 207 q 417 118 339 118 q 532 163 493 118 q 571 283 571 207 l 571 1014 l 721 1014 l 721 283 q 642 66 721 146 q 417 -14 563 -14 m 358 1125 l 197 1319 l 364 1319 l 514 1125 l 358 1125 z "},"Ử":{"ha":833,"x_min":113,"x_max":850,"o":"m 608 910 l 608 1014 l 678 1014 q 714 1027 701 1014 q 726 1063 726 1040 l 726 1167 l 850 1167 l 850 1057 q 806 950 850 990 q 688 910 761 910 l 608 910 m 417 -14 q 192 66 271 -14 q 113 283 113 146 l 113 1014 l 263 1014 l 263 283 q 301 163 263 207 q 417 118 339 118 q 532 163 493 118 q 571 283 571 207 l 571 1014 l 721 1014 l 721 283 q 642 66 721 146 q 417 -14 563 -14 m 353 1110 l 417 1194 q 436 1238 436 1222 q 394 1265 436 1265 l 288 1265 l 288 1363 l 408 1363 q 514 1333 474 1363 q 554 1254 554 1304 q 529 1178 554 1213 l 481 1110 l 353 1110 z "},"Ữ":{"ha":833,"x_min":113,"x_max":850,"o":"m 608 910 l 608 1014 l 678 1014 q 714 1027 701 1014 q 726 1063 726 1040 l 726 1167 l 850 1167 l 850 1057 q 806 950 850 990 q 688 910 761 910 l 608 910 m 417 -14 q 192 66 271 -14 q 113 283 113 146 l 113 1014 l 263 1014 l 263 283 q 301 163 263 207 q 417 118 339 118 q 532 163 493 118 q 571 283 571 207 l 571 1014 l 721 1014 l 721 283 q 642 66 721 146 q 417 -14 563 -14 m 514 1126 q 444 1140 471 1126 q 400 1172 418 1154 q 365 1205 382 1190 q 326 1219 349 1219 q 297 1207 308 1219 q 285 1171 285 1194 l 285 1133 l 186 1133 l 186 1176 q 223 1280 186 1242 q 319 1318 260 1318 q 389 1304 363 1318 q 433 1272 415 1290 q 468 1240 451 1254 q 507 1225 485 1225 q 538 1237 526 1225 q 549 1271 549 1249 l 549 1311 l 647 1311 l 647 1268 q 611 1165 647 1203 q 514 1126 575 1126 z "},"Ű":{"ha":833,"x_min":113,"x_max":751,"o":"m 417 -14 q 192 66 271 -14 q 113 283 113 146 l 113 1014 l 263 1014 l 263 283 q 301 163 263 207 q 417 118 339 118 q 532 163 493 118 q 571 283 571 207 l 571 1014 l 721 1014 l 721 283 q 642 66 721 146 q 417 -14 563 -14 m 451 1125 l 601 1319 l 751 1319 l 592 1125 l 451 1125 m 186 1125 l 338 1319 l 486 1319 l 326 1125 l 186 1125 z "},"Ū":{"ha":833,"x_min":113,"x_max":721,"o":"m 417 -14 q 192 66 271 -14 q 113 283 113 146 l 113 1014 l 263 1014 l 263 283 q 301 163 263 207 q 417 118 339 118 q 532 163 493 118 q 571 283 571 207 l 571 1014 l 721 1014 l 721 283 q 642 66 721 146 q 417 -14 563 -14 m 186 1158 l 186 1276 l 647 1276 l 647 1158 l 186 1158 z "},"Ų":{"ha":833,"x_min":113,"x_max":721,"o":"m 517 -292 q 390 -253 438 -292 q 343 -154 343 -214 q 356 -105 343 -132 q 394 -51 369 -78 q 449 -1 418 -24 q 438 -9 446 -4 q 417 -14 431 -14 q 254 22 322 -14 q 149 124 186 57 q 113 282 113 192 l 113 1014 l 263 1014 l 263 282 q 302 162 263 204 q 417 119 342 119 q 532 162 493 119 q 571 282 571 204 l 571 1014 l 721 1014 l 721 282 q 689 134 721 199 q 599 33 657 69 l 551 -6 q 493 -69 510 -40 q 476 -125 476 -99 q 497 -171 476 -153 q 550 -189 517 -189 l 636 -189 l 636 -292 l 517 -292 z "},"Ů":{"ha":833,"x_min":113,"x_max":721,"o":"m 417 -14 q 192 66 271 -14 q 113 283 113 146 l 113 1014 l 263 1014 l 263 283 q 301 163 263 207 q 417 118 339 118 q 532 163 493 118 q 571 283 571 207 l 571 1014 l 721 1014 l 721 283 q 642 66 721 146 q 417 -14 563 -14 m 417 1058 q 290 1103 338 1058 q 242 1222 242 1149 q 290 1341 242 1296 q 417 1386 338 1386 q 544 1341 496 1386 q 592 1222 592 1296 q 544 1103 592 1149 q 417 1058 496 1058 m 417 1139 q 477 1162 454 1139 q 500 1222 500 1185 q 477 1283 500 1260 q 417 1307 454 1307 q 356 1283 379 1307 q 333 1222 333 1260 q 356 1162 333 1185 q 417 1139 379 1139 z "},"Ũ":{"ha":833,"x_min":113,"x_max":721,"o":"m 417 -14 q 192 66 271 -14 q 113 283 113 146 l 113 1014 l 263 1014 l 263 283 q 301 163 263 207 q 417 118 339 118 q 532 163 493 118 q 571 283 571 207 l 571 1014 l 721 1014 l 721 283 q 642 66 721 146 q 417 -14 563 -14 m 514 1126 q 444 1140 471 1126 q 400 1172 418 1154 q 365 1205 382 1190 q 326 1219 349 1219 q 297 1207 308 1219 q 285 1171 285 1194 l 285 1133 l 186 1133 l 186 1176 q 223 1280 186 1242 q 319 1318 260 1318 q 389 1304 363 1318 q 433 1272 415 1290 q 468 1240 451 1254 q 507 1225 485 1225 q 538 1237 526 1225 q 549 1271 549 1249 l 549 1311 l 647 1311 l 647 1268 q 611 1165 647 1203 q 514 1126 575 1126 z "},"V":{"ha":833,"x_min":60,"x_max":774,"o":"m 317 0 l 60 1014 l 214 1014 l 376 339 q 403 220 392 279 q 421 128 415 161 q 437 220 426 161 q 463 340 447 279 l 624 1014 l 774 1014 l 515 0 l 317 0 z "},"W":{"ha":833,"x_min":29,"x_max":804,"o":"m 139 0 l 29 1014 l 164 1014 l 232 286 q 237 225 235 258 q 241 160 239 192 q 243 104 243 128 q 249 160 246 128 q 255 225 251 192 q 263 286 258 258 l 350 1014 l 489 1014 l 571 286 q 577 225 574 258 q 585 160 581 192 q 590 104 589 128 q 594 160 592 128 q 599 225 596 192 q 604 286 601 258 l 674 1014 l 804 1014 l 690 0 l 517 0 l 435 738 q 429 799 432 767 q 424 863 426 832 q 418 915 421 894 q 414 863 417 894 q 408 799 411 832 q 401 738 406 767 l 314 0 l 139 0 z "},"Ẃ":{"ha":833,"x_min":29,"x_max":804,"o":"m 139 0 l 29 1014 l 164 1014 l 232 286 q 237 225 235 258 q 241 160 239 192 q 243 104 243 128 q 249 160 246 128 q 255 225 251 192 q 263 286 258 258 l 350 1014 l 489 1014 l 571 286 q 577 225 574 258 q 585 160 581 192 q 590 104 589 128 q 594 160 592 128 q 599 225 596 192 q 604 286 601 258 l 674 1014 l 804 1014 l 690 0 l 517 0 l 435 738 q 429 799 432 767 q 424 863 426 832 q 418 915 421 894 q 414 863 417 894 q 408 799 411 832 q 401 738 406 767 l 314 0 l 139 0 m 324 1125 l 471 1319 l 632 1319 l 475 1125 l 324 1125 z "},"Ŵ":{"ha":833,"x_min":29,"x_max":804,"o":"m 139 0 l 29 1014 l 164 1014 l 232 286 q 237 225 235 258 q 241 160 239 192 q 243 104 243 128 q 249 160 246 128 q 255 225 251 192 q 263 286 258 258 l 350 1014 l 489 1014 l 571 286 q 577 225 574 258 q 585 160 581 192 q 590 104 589 128 q 594 160 592 128 q 599 225 596 192 q 604 286 601 258 l 674 1014 l 804 1014 l 690 0 l 517 0 l 435 738 q 429 799 432 767 q 424 863 426 832 q 418 915 421 894 q 414 863 417 894 q 408 799 411 832 q 401 738 406 767 l 314 0 l 139 0 m 156 1125 l 347 1319 l 486 1319 l 678 1125 l 525 1125 l 415 1231 l 310 1125 l 156 1125 z "},"Ẅ":{"ha":833,"x_min":29,"x_max":804,"o":"m 139 0 l 29 1014 l 164 1014 l 232 286 q 237 225 235 258 q 241 160 239 192 q 243 104 243 128 q 249 160 246 128 q 255 225 251 192 q 263 286 258 258 l 350 1014 l 489 1014 l 571 286 q 577 225 574 258 q 585 160 581 192 q 590 104 589 128 q 594 160 592 128 q 599 225 596 192 q 604 286 601 258 l 674 1014 l 804 1014 l 690 0 l 517 0 l 435 738 q 429 799 432 767 q 424 863 426 832 q 418 915 421 894 q 414 863 417 894 q 408 799 411 832 q 401 738 406 767 l 314 0 l 139 0 m 575 1129 q 506 1154 532 1129 q 481 1222 481 1179 q 506 1292 481 1267 q 575 1318 532 1318 q 645 1292 619 1318 q 671 1222 671 1267 q 645 1154 671 1179 q 575 1129 619 1129 m 258 1129 q 188 1154 214 1129 q 163 1222 163 1179 q 188 1292 163 1267 q 258 1318 214 1318 q 327 1292 301 1318 q 353 1222 353 1267 q 327 1154 353 1179 q 258 1129 301 1129 z "},"Ẁ":{"ha":833,"x_min":29,"x_max":804,"o":"m 139 0 l 29 1014 l 164 1014 l 232 286 q 237 225 235 258 q 241 160 239 192 q 243 104 243 128 q 249 160 246 128 q 255 225 251 192 q 263 286 258 258 l 350 1014 l 489 1014 l 571 286 q 577 225 574 258 q 585 160 581 192 q 590 104 589 128 q 594 160 592 128 q 599 225 596 192 q 604 286 601 258 l 674 1014 l 804 1014 l 690 0 l 517 0 l 435 738 q 429 799 432 767 q 424 863 426 832 q 418 915 421 894 q 414 863 417 894 q 408 799 411 832 q 401 738 406 767 l 314 0 l 139 0 m 358 1125 l 197 1319 l 364 1319 l 514 1125 l 358 1125 z "},"X":{"ha":833,"x_min":47,"x_max":786,"o":"m 47 0 l 333 517 l 64 1014 l 233 1014 l 375 738 q 400 685 388 711 q 419 644 413 658 q 438 685 425 658 q 463 738 450 711 l 607 1014 l 769 1014 l 500 522 l 786 0 l 617 0 l 460 300 q 433 353 446 326 q 414 396 421 381 q 396 354 408 381 q 371 301 383 328 l 211 0 l 47 0 z "},"Y":{"ha":833,"x_min":40,"x_max":793,"o":"m 342 0 l 342 374 l 40 1014 l 196 1014 l 375 631 q 404 560 393 593 q 419 510 415 528 q 434 560 422 528 q 463 631 446 593 l 638 1014 l 793 1014 l 492 374 l 492 0 l 342 0 z "},"Ý":{"ha":833,"x_min":40,"x_max":793,"o":"m 342 0 l 342 374 l 40 1014 l 196 1014 l 375 631 q 404 560 393 593 q 419 510 415 528 q 434 560 422 528 q 463 631 446 593 l 638 1014 l 793 1014 l 492 374 l 492 0 l 342 0 m 324 1125 l 471 1319 l 632 1319 l 475 1125 l 324 1125 z "},"Ŷ":{"ha":833,"x_min":40,"x_max":793,"o":"m 342 0 l 342 374 l 40 1014 l 196 1014 l 375 631 q 404 560 393 593 q 419 510 415 528 q 434 560 422 528 q 463 631 446 593 l 638 1014 l 793 1014 l 492 374 l 492 0 l 342 0 m 156 1125 l 347 1319 l 486 1319 l 678 1125 l 525 1125 l 415 1231 l 310 1125 l 156 1125 z "},"Ÿ":{"ha":833,"x_min":40,"x_max":793,"o":"m 342 0 l 342 374 l 40 1014 l 196 1014 l 375 631 q 404 560 393 593 q 419 510 415 528 q 434 560 422 528 q 463 631 446 593 l 638 1014 l 793 1014 l 492 374 l 492 0 l 342 0 m 575 1129 q 506 1154 532 1129 q 481 1222 481 1179 q 506 1292 481 1267 q 575 1318 532 1318 q 645 1292 619 1318 q 671 1222 671 1267 q 645 1154 671 1179 q 575 1129 619 1129 m 258 1129 q 188 1154 214 1129 q 163 1222 163 1179 q 188 1292 163 1267 q 258 1318 214 1318 q 327 1292 301 1318 q 353 1222 353 1267 q 327 1154 353 1179 q 258 1129 301 1129 z "},"Ỵ":{"ha":833,"x_min":40,"x_max":793,"o":"m 342 0 l 342 374 l 40 1014 l 196 1014 l 375 631 q 404 560 393 593 q 419 510 415 528 q 434 560 422 528 q 463 631 446 593 l 638 1014 l 793 1014 l 492 374 l 492 0 l 342 0 m 431 -304 q 353 -279 382 -304 q 324 -210 324 -254 q 353 -141 324 -167 q 431 -115 382 -115 q 508 -141 479 -115 q 538 -210 538 -167 q 508 -279 538 -254 q 431 -304 479 -304 z "},"Ỳ":{"ha":833,"x_min":40,"x_max":793,"o":"m 342 0 l 342 374 l 40 1014 l 196 1014 l 375 631 q 404 560 393 593 q 419 510 415 528 q 434 560 422 528 q 463 631 446 593 l 638 1014 l 793 1014 l 492 374 l 492 0 l 342 0 m 358 1125 l 197 1319 l 364 1319 l 514 1125 l 358 1125 z "},"Ỷ":{"ha":833,"x_min":40,"x_max":793,"o":"m 342 0 l 342 374 l 40 1014 l 196 1014 l 375 631 q 404 560 393 593 q 419 510 415 528 q 434 560 422 528 q 463 631 446 593 l 638 1014 l 793 1014 l 492 374 l 492 0 l 342 0 m 353 1110 l 417 1194 q 436 1238 436 1222 q 394 1265 436 1265 l 288 1265 l 288 1363 l 408 1363 q 514 1333 474 1363 q 554 1254 554 1304 q 529 1178 554 1213 l 481 1110 l 353 1110 z "},"Ȳ":{"ha":833,"x_min":40,"x_max":793,"o":"m 342 0 l 342 374 l 40 1014 l 196 1014 l 375 631 q 404 560 393 593 q 419 510 415 528 q 434 560 422 528 q 463 631 446 593 l 638 1014 l 793 1014 l 492 374 l 492 0 l 342 0 m 186 1158 l 186 1276 l 647 1276 l 647 1158 l 186 1158 z "},"Ỹ":{"ha":833,"x_min":40,"x_max":793,"o":"m 342 0 l 342 374 l 40 1014 l 196 1014 l 375 631 q 404 560 393 593 q 419 510 415 528 q 434 560 422 528 q 463 631 446 593 l 638 1014 l 793 1014 l 492 374 l 492 0 l 342 0 m 514 1126 q 444 1140 471 1126 q 400 1172 418 1154 q 365 1205 382 1190 q 326 1219 349 1219 q 297 1207 308 1219 q 285 1171 285 1194 l 285 1133 l 186 1133 l 186 1176 q 223 1280 186 1242 q 319 1318 260 1318 q 389 1304 363 1318 q 433 1272 415 1290 q 468 1240 451 1254 q 507 1225 485 1225 q 538 1237 526 1225 q 549 1271 549 1249 l 549 1311 l 647 1311 l 647 1268 q 611 1165 647 1203 q 514 1126 575 1126 z "},"Z":{"ha":833,"x_min":114,"x_max":719,"o":"m 114 0 l 114 146 l 546 876 l 122 876 l 122 1014 l 706 1014 l 706 868 l 274 138 l 719 138 l 719 0 l 114 0 z "},"Ź":{"ha":833,"x_min":114,"x_max":719,"o":"m 114 0 l 114 146 l 546 876 l 122 876 l 122 1014 l 706 1014 l 706 868 l 274 138 l 719 138 l 719 0 l 114 0 m 324 1125 l 471 1319 l 632 1319 l 475 1125 l 324 1125 z "},"Ž":{"ha":833,"x_min":114,"x_max":719,"o":"m 114 0 l 114 146 l 546 876 l 122 876 l 122 1014 l 706 1014 l 706 868 l 274 138 l 719 138 l 719 0 l 114 0 m 347 1125 l 156 1319 l 308 1319 l 418 1214 l 524 1319 l 678 1319 l 486 1125 l 347 1125 z "},"Ż":{"ha":833,"x_min":114,"x_max":719,"o":"m 114 0 l 114 146 l 546 876 l 122 876 l 122 1014 l 706 1014 l 706 868 l 274 138 l 719 138 l 719 0 l 114 0 m 417 1128 q 339 1153 368 1128 q 310 1222 310 1179 q 339 1291 310 1265 q 417 1317 368 1317 q 494 1291 465 1317 q 524 1222 524 1265 q 494 1153 524 1179 q 417 1128 465 1128 z "},"a":{"ha":833,"x_min":83,"x_max":719,"o":"m 340 -14 q 152 48 221 -14 q 83 217 83 110 q 156 387 83 325 q 357 449 229 449 l 569 449 l 569 519 q 531 617 569 582 q 421 651 492 651 q 317 624 358 651 q 268 553 275 597 l 121 553 q 216 717 133 656 q 425 778 299 778 q 640 709 561 778 q 719 522 719 640 l 719 0 l 574 0 l 574 140 l 549 140 l 574 168 q 510 35 574 85 q 340 -14 446 -14 m 385 101 q 517 142 465 101 q 569 247 569 183 l 569 347 l 360 347 q 267 315 301 347 q 233 228 233 283 q 274 135 233 169 q 385 101 314 101 z "},"á":{"ha":833,"x_min":83,"x_max":719,"o":"m 340 -14 q 152 48 221 -14 q 83 217 83 110 q 156 387 83 325 q 357 449 229 449 l 569 449 l 569 519 q 531 617 569 582 q 421 651 492 651 q 317 624 358 651 q 268 553 275 597 l 121 553 q 216 717 133 656 q 425 778 299 778 q 640 709 561 778 q 719 522 719 640 l 719 0 l 574 0 l 574 140 l 549 140 l 574 168 q 510 35 574 85 q 340 -14 446 -14 m 385 101 q 517 142 465 101 q 569 247 569 183 l 569 347 l 360 347 q 267 315 301 347 q 233 228 233 283 q 274 135 233 169 q 385 101 314 101 m 331 896 l 478 1090 l 639 1090 l 482 896 l 331 896 z "},"ă":{"ha":833,"x_min":83,"x_max":719,"o":"m 340 -14 q 152 48 221 -14 q 83 217 83 110 q 156 387 83 325 q 357 449 229 449 l 569 449 l 569 519 q 531 617 569 582 q 421 651 492 651 q 317 624 358 651 q 268 553 275 597 l 121 553 q 216 717 133 656 q 425 778 299 778 q 640 709 561 778 q 719 522 719 640 l 719 0 l 574 0 l 574 140 l 549 140 l 574 168 q 510 35 574 85 q 340 -14 446 -14 m 385 101 q 517 142 465 101 q 569 247 569 183 l 569 347 l 360 347 q 267 315 301 347 q 233 228 233 283 q 274 135 233 169 q 385 101 314 101 m 424 888 q 256 943 319 888 q 192 1090 192 999 l 308 1090 q 340 1010 308 1040 q 422 979 371 979 q 508 1010 476 979 q 539 1090 539 1040 l 656 1090 q 592 943 656 999 q 424 888 528 888 z "},"ắ":{"ha":833,"x_min":83,"x_max":719,"o":"m 340 -14 q 152 48 221 -14 q 83 217 83 110 q 156 387 83 325 q 357 449 229 449 l 569 449 l 569 519 q 531 617 569 582 q 421 651 492 651 q 317 624 358 651 q 268 553 275 597 l 121 553 q 216 717 133 656 q 425 778 299 778 q 640 709 561 778 q 719 522 719 640 l 719 0 l 574 0 l 574 140 l 549 140 l 574 168 q 510 35 574 85 q 340 -14 446 -14 m 385 101 q 517 142 465 101 q 569 247 569 183 l 569 347 l 360 347 q 267 315 301 347 q 233 228 233 283 q 274 135 233 169 q 385 101 314 101 m 417 889 q 242 940 310 889 q 175 1074 175 990 l 288 1074 q 323 1009 288 1033 q 417 985 358 985 q 510 1009 475 985 q 546 1074 546 1033 l 658 1074 q 592 940 658 990 q 417 889 525 889 m 328 1068 l 488 1253 l 636 1253 l 467 1068 l 328 1068 z "},"ặ":{"ha":833,"x_min":83,"x_max":719,"o":"m 425 888 q 257 943 321 888 q 193 1090 193 999 l 310 1090 q 341 1010 310 1040 q 424 979 372 979 q 509 1010 478 979 q 540 1090 540 1040 l 657 1090 q 593 943 657 999 q 425 888 529 888 m 340 -14 q 152 48 221 -14 q 83 217 83 110 q 156 387 83 325 q 357 449 229 449 l 569 449 l 569 519 q 531 617 569 582 q 421 651 492 651 q 317 624 358 651 q 268 553 275 597 l 121 553 q 216 717 133 656 q 425 778 299 778 q 640 709 561 778 q 719 522 719 640 l 719 0 l 574 0 l 574 140 l 549 140 l 574 168 q 510 35 574 85 q 340 -14 446 -14 m 385 101 q 517 142 465 101 q 569 247 569 183 l 569 347 l 360 347 q 267 315 301 347 q 233 228 233 283 q 274 135 233 169 q 385 101 314 101 m 424 -304 q 346 -279 375 -304 q 317 -210 317 -254 q 346 -141 317 -167 q 424 -115 375 -115 q 501 -141 472 -115 q 531 -210 531 -167 q 501 -279 531 -254 q 424 -304 472 -304 z "},"ằ":{"ha":833,"x_min":83,"x_max":719,"o":"m 340 -14 q 152 48 221 -14 q 83 217 83 110 q 156 387 83 325 q 357 449 229 449 l 569 449 l 569 519 q 531 617 569 582 q 421 651 492 651 q 317 624 358 651 q 268 553 275 597 l 121 553 q 216 717 133 656 q 425 778 299 778 q 640 709 561 778 q 719 522 719 640 l 719 0 l 574 0 l 574 140 l 549 140 l 574 168 q 510 35 574 85 q 340 -14 446 -14 m 385 101 q 517 142 465 101 q 569 247 569 183 l 569 347 l 360 347 q 267 315 301 347 q 233 228 233 283 q 274 135 233 169 q 385 101 314 101 m 417 889 q 242 940 310 889 q 175 1074 175 990 l 288 1074 q 323 1009 288 1033 q 417 985 358 985 q 510 1009 475 985 q 546 1074 546 1033 l 658 1074 q 592 940 658 990 q 417 889 525 889 m 367 1068 l 197 1253 l 346 1253 l 506 1068 l 367 1068 z "},"ẳ":{"ha":833,"x_min":83,"x_max":719,"o":"m 340 -14 q 152 48 221 -14 q 83 217 83 110 q 156 387 83 325 q 357 449 229 449 l 569 449 l 569 519 q 531 617 569 582 q 421 651 492 651 q 317 624 358 651 q 268 553 275 597 l 121 553 q 216 717 133 656 q 425 778 299 778 q 640 709 561 778 q 719 522 719 640 l 719 0 l 574 0 l 574 140 l 549 140 l 574 168 q 510 35 574 85 q 340 -14 446 -14 m 385 101 q 517 142 465 101 q 569 247 569 183 l 569 347 l 360 347 q 267 315 301 347 q 233 228 233 283 q 274 135 233 169 q 385 101 314 101 m 417 889 q 242 940 310 889 q 175 1074 175 990 l 288 1074 q 323 1009 288 1033 q 417 985 358 985 q 510 1009 475 985 q 546 1074 546 1033 l 658 1074 q 592 940 658 990 q 417 889 525 889 m 346 1068 l 408 1150 q 424 1186 424 1168 q 415 1208 424 1200 q 386 1217 406 1217 l 303 1217 l 303 1310 l 406 1310 q 505 1281 468 1310 q 542 1206 542 1253 q 535 1167 542 1186 q 515 1132 528 1149 l 468 1068 l 346 1068 z "},"ẵ":{"ha":833,"x_min":83,"x_max":719,"o":"m 340 -14 q 152 48 221 -14 q 83 217 83 110 q 156 387 83 325 q 357 449 229 449 l 569 449 l 569 519 q 531 617 569 582 q 421 651 492 651 q 317 624 358 651 q 268 553 275 597 l 121 553 q 216 717 133 656 q 425 778 299 778 q 640 709 561 778 q 719 522 719 640 l 719 0 l 574 0 l 574 140 l 549 140 l 574 168 q 510 35 574 85 q 340 -14 446 -14 m 385 101 q 517 142 465 101 q 569 247 569 183 l 569 347 l 360 347 q 267 315 301 347 q 233 228 233 283 q 274 135 233 169 q 385 101 314 101 m 417 894 q 249 945 313 894 q 185 1078 185 996 l 293 1078 q 326 1014 293 1039 q 415 989 360 989 q 506 1014 472 989 q 540 1078 540 1039 l 649 1078 q 585 945 649 996 q 417 894 521 894 m 510 1125 q 440 1139 467 1125 q 397 1170 414 1153 q 365 1201 381 1188 q 326 1215 349 1215 q 296 1204 307 1215 q 285 1172 285 1193 l 285 1135 l 186 1135 l 186 1168 q 224 1266 186 1229 q 324 1303 263 1303 q 394 1289 368 1303 q 436 1257 419 1275 q 469 1225 453 1239 q 507 1211 485 1211 q 549 1253 549 1211 l 549 1292 l 647 1292 l 647 1258 q 610 1161 647 1197 q 510 1125 572 1125 z "},"ǎ":{"ha":833,"x_min":83,"x_max":719,"o":"m 340 -14 q 152 48 221 -14 q 83 217 83 110 q 156 387 83 325 q 357 449 229 449 l 569 449 l 569 519 q 531 617 569 582 q 421 651 492 651 q 317 624 358 651 q 268 553 275 597 l 121 553 q 216 717 133 656 q 425 778 299 778 q 640 709 561 778 q 719 522 719 640 l 719 0 l 574 0 l 574 140 l 549 140 l 574 168 q 510 35 574 85 q 340 -14 446 -14 m 385 101 q 517 142 465 101 q 569 247 569 183 l 569 347 l 360 347 q 267 315 301 347 q 233 228 233 283 q 274 135 233 169 q 385 101 314 101 m 354 896 l 163 1090 l 315 1090 l 425 985 l 531 1090 l 685 1090 l 493 896 l 354 896 z "},"â":{"ha":833,"x_min":83,"x_max":719,"o":"m 340 -14 q 152 48 221 -14 q 83 217 83 110 q 156 387 83 325 q 357 449 229 449 l 569 449 l 569 519 q 531 617 569 582 q 421 651 492 651 q 317 624 358 651 q 268 553 275 597 l 121 553 q 216 717 133 656 q 425 778 299 778 q 640 709 561 778 q 719 522 719 640 l 719 0 l 574 0 l 574 140 l 549 140 l 574 168 q 510 35 574 85 q 340 -14 446 -14 m 385 101 q 517 142 465 101 q 569 247 569 183 l 569 347 l 360 347 q 267 315 301 347 q 233 228 233 283 q 274 135 233 169 q 385 101 314 101 m 163 896 l 354 1090 l 493 1090 l 685 896 l 532 896 l 422 1001 l 317 896 l 163 896 z "},"ấ":{"ha":833,"x_min":83,"x_max":893,"o":"m 340 -14 q 152 48 221 -14 q 83 217 83 110 q 156 387 83 325 q 357 449 229 449 l 569 449 l 569 519 q 531 617 569 582 q 421 651 492 651 q 317 624 358 651 q 268 553 275 597 l 121 553 q 216 717 133 656 q 425 778 299 778 q 640 709 561 778 q 719 522 719 640 l 719 0 l 574 0 l 574 140 l 549 140 l 574 168 q 510 35 574 85 q 340 -14 446 -14 m 385 101 q 517 142 465 101 q 569 247 569 183 l 569 347 l 360 347 q 267 315 301 347 q 233 228 233 283 q 274 135 233 169 q 385 101 314 101 m 574 1056 l 735 1250 l 893 1250 l 722 1056 l 574 1056 m 157 896 l 347 1090 l 486 1090 l 678 896 l 524 896 l 417 1001 l 310 896 l 157 896 z "},"ậ":{"ha":833,"x_min":83,"x_max":719,"o":"m 163 896 l 354 1090 l 493 1090 l 685 896 l 532 896 l 422 1001 l 317 896 l 163 896 m 340 -14 q 152 48 221 -14 q 83 217 83 110 q 156 387 83 325 q 357 449 229 449 l 569 449 l 569 519 q 531 617 569 582 q 421 651 492 651 q 317 624 358 651 q 268 553 275 597 l 121 553 q 216 717 133 656 q 425 778 299 778 q 640 709 561 778 q 719 522 719 640 l 719 0 l 574 0 l 574 140 l 549 140 l 574 168 q 510 35 574 85 q 340 -14 446 -14 m 385 101 q 517 142 465 101 q 569 247 569 183 l 569 347 l 360 347 q 267 315 301 347 q 233 228 233 283 q 274 135 233 169 q 385 101 314 101 m 424 -304 q 346 -279 375 -304 q 317 -210 317 -254 q 346 -141 317 -167 q 424 -115 375 -115 q 501 -141 472 -115 q 531 -210 531 -167 q 501 -279 531 -254 q 424 -304 472 -304 z "},"ầ":{"ha":833,"x_min":83,"x_max":783,"o":"m 340 -14 q 152 48 221 -14 q 83 217 83 110 q 156 387 83 325 q 357 449 229 449 l 569 449 l 569 519 q 531 617 569 582 q 421 651 492 651 q 317 624 358 651 q 268 553 275 597 l 121 553 q 216 717 133 656 q 425 778 299 778 q 640 709 561 778 q 719 522 719 640 l 719 0 l 574 0 l 574 140 l 549 140 l 574 168 q 510 35 574 85 q 340 -14 446 -14 m 385 101 q 517 142 465 101 q 569 247 569 183 l 569 347 l 360 347 q 267 315 301 347 q 233 228 233 283 q 274 135 233 169 q 385 101 314 101 m 635 1056 l 454 1250 l 613 1250 l 783 1056 l 635 1056 m 157 896 l 347 1090 l 486 1090 l 678 896 l 524 896 l 417 1001 l 310 896 l 157 896 z "},"ẩ":{"ha":833,"x_min":83,"x_max":781,"o":"m 340 -14 q 152 48 221 -14 q 83 217 83 110 q 156 387 83 325 q 357 449 229 449 l 569 449 l 569 519 q 531 617 569 582 q 421 651 492 651 q 317 624 358 651 q 268 553 275 597 l 121 553 q 216 717 133 656 q 425 778 299 778 q 640 709 561 778 q 719 522 719 640 l 719 0 l 574 0 l 574 140 l 549 140 l 574 168 q 510 35 574 85 q 340 -14 446 -14 m 385 101 q 517 142 465 101 q 569 247 569 183 l 569 347 l 360 347 q 267 315 301 347 q 233 228 233 283 q 274 135 233 169 q 385 101 314 101 m 588 1056 l 651 1139 q 667 1175 667 1160 q 656 1198 667 1190 q 624 1206 644 1206 l 543 1206 l 543 1300 l 639 1300 q 742 1271 704 1300 q 781 1190 781 1242 q 774 1157 781 1174 q 754 1122 768 1140 l 706 1056 l 588 1056 m 157 896 l 347 1090 l 486 1090 l 678 896 l 524 896 l 417 1001 l 310 896 l 157 896 z "},"ẫ":{"ha":833,"x_min":83,"x_max":719,"o":"m 340 -14 q 152 48 221 -14 q 83 217 83 110 q 156 387 83 325 q 357 449 229 449 l 569 449 l 569 519 q 531 617 569 582 q 421 651 492 651 q 317 624 358 651 q 268 553 275 597 l 121 553 q 216 717 133 656 q 425 778 299 778 q 640 709 561 778 q 719 522 719 640 l 719 0 l 574 0 l 574 140 l 549 140 l 574 168 q 510 35 574 85 q 340 -14 446 -14 m 385 101 q 517 142 465 101 q 569 247 569 183 l 569 347 l 360 347 q 267 315 301 347 q 233 228 233 283 q 274 135 233 169 q 385 101 314 101 m 510 1133 q 440 1147 467 1133 q 397 1176 414 1160 q 365 1206 381 1193 q 326 1219 349 1219 q 296 1208 307 1219 q 285 1176 285 1197 l 285 1143 l 186 1143 l 186 1172 q 224 1270 186 1233 q 324 1307 263 1307 q 394 1294 368 1307 q 436 1263 419 1281 q 469 1233 453 1246 q 507 1221 485 1221 q 549 1261 549 1221 l 549 1296 l 647 1296 l 647 1267 q 610 1170 647 1207 q 510 1133 572 1133 m 157 896 l 347 1090 l 486 1090 l 678 896 l 524 896 l 417 1001 l 310 896 l 157 896 z "},"ä":{"ha":833,"x_min":83,"x_max":719,"o":"m 340 -14 q 152 48 221 -14 q 83 217 83 110 q 156 387 83 325 q 357 449 229 449 l 569 449 l 569 519 q 531 617 569 582 q 421 651 492 651 q 317 624 358 651 q 268 553 275 597 l 121 553 q 216 717 133 656 q 425 778 299 778 q 640 709 561 778 q 719 522 719 640 l 719 0 l 574 0 l 574 140 l 549 140 l 574 168 q 510 35 574 85 q 340 -14 446 -14 m 385 101 q 517 142 465 101 q 569 247 569 183 l 569 347 l 360 347 q 267 315 301 347 q 233 228 233 283 q 274 135 233 169 q 385 101 314 101 m 582 896 q 513 922 539 896 q 488 990 488 947 q 513 1060 488 1035 q 582 1086 539 1086 q 652 1060 626 1086 q 678 990 678 1035 q 652 922 678 947 q 582 896 626 896 m 265 896 q 195 922 221 896 q 169 990 169 947 q 195 1060 169 1035 q 265 1086 221 1086 q 334 1060 308 1086 q 360 990 360 1035 q 334 922 360 947 q 265 896 308 896 z "},"ạ":{"ha":833,"x_min":83,"x_max":719,"o":"m 340 -14 q 152 48 221 -14 q 83 217 83 110 q 156 387 83 325 q 357 449 229 449 l 569 449 l 569 519 q 531 617 569 582 q 421 651 492 651 q 317 624 358 651 q 268 553 275 597 l 121 553 q 216 717 133 656 q 425 778 299 778 q 640 709 561 778 q 719 522 719 640 l 719 0 l 574 0 l 574 140 l 549 140 l 574 168 q 510 35 574 85 q 340 -14 446 -14 m 385 101 q 517 142 465 101 q 569 247 569 183 l 569 347 l 360 347 q 267 315 301 347 q 233 228 233 283 q 274 135 233 169 q 385 101 314 101 m 424 -304 q 346 -279 375 -304 q 317 -210 317 -254 q 346 -141 317 -167 q 424 -115 375 -115 q 501 -141 472 -115 q 531 -210 531 -167 q 501 -279 531 -254 q 424 -304 472 -304 z "},"à":{"ha":833,"x_min":83,"x_max":719,"o":"m 340 -14 q 152 48 221 -14 q 83 217 83 110 q 156 387 83 325 q 357 449 229 449 l 569 449 l 569 519 q 531 617 569 582 q 421 651 492 651 q 317 624 358 651 q 268 553 275 597 l 121 553 q 216 717 133 656 q 425 778 299 778 q 640 709 561 778 q 719 522 719 640 l 719 0 l 574 0 l 574 140 l 549 140 l 574 168 q 510 35 574 85 q 340 -14 446 -14 m 385 101 q 517 142 465 101 q 569 247 569 183 l 569 347 l 360 347 q 267 315 301 347 q 233 228 233 283 q 274 135 233 169 q 385 101 314 101 m 365 896 l 204 1090 l 371 1090 l 521 896 l 365 896 z "},"ả":{"ha":833,"x_min":83,"x_max":719,"o":"m 340 -14 q 152 48 221 -14 q 83 217 83 110 q 156 387 83 325 q 357 449 229 449 l 569 449 l 569 519 q 531 617 569 582 q 421 651 492 651 q 317 624 358 651 q 268 553 275 597 l 121 553 q 216 717 133 656 q 425 778 299 778 q 640 709 561 778 q 719 522 719 640 l 719 0 l 574 0 l 574 140 l 549 140 l 574 168 q 510 35 574 85 q 340 -14 446 -14 m 385 101 q 517 142 465 101 q 569 247 569 183 l 569 347 l 360 347 q 267 315 301 347 q 233 228 233 283 q 274 135 233 169 q 385 101 314 101 m 360 896 l 428 982 q 449 1025 449 1007 q 406 1051 449 1051 l 294 1051 l 294 1150 l 440 1150 q 532 1121 497 1150 q 567 1042 567 1092 q 540 964 567 997 l 488 896 l 360 896 z "},"ā":{"ha":833,"x_min":83,"x_max":719,"o":"m 340 -14 q 152 48 221 -14 q 83 217 83 110 q 156 387 83 325 q 357 449 229 449 l 569 449 l 569 519 q 531 617 569 582 q 421 651 492 651 q 317 624 358 651 q 268 553 275 597 l 121 553 q 216 717 133 656 q 425 778 299 778 q 640 709 561 778 q 719 522 719 640 l 719 0 l 574 0 l 574 140 l 549 140 l 574 168 q 510 35 574 85 q 340 -14 446 -14 m 385 101 q 517 142 465 101 q 569 247 569 183 l 569 347 l 360 347 q 267 315 301 347 q 233 228 233 283 q 274 135 233 169 q 385 101 314 101 m 193 925 l 193 1043 l 654 1043 l 654 925 l 193 925 z "},"ą":{"ha":833,"x_min":83,"x_max":792,"o":"m 671 -292 q 544 -253 592 -292 q 497 -154 497 -214 q 528 -69 497 -112 q 626 14 560 -26 l 719 0 q 652 -69 672 -40 q 632 -125 632 -99 q 651 -171 632 -153 q 704 -189 671 -189 l 792 -189 l 792 -292 l 671 -292 m 340 -14 q 152 48 221 -14 q 83 217 83 110 q 156 387 83 325 q 357 449 229 449 l 569 449 l 569 519 q 531 617 569 582 q 421 651 492 651 q 317 624 358 651 q 268 553 275 597 l 121 553 q 216 717 133 656 q 425 778 299 778 q 640 709 561 778 q 719 522 719 640 l 719 0 l 574 0 l 574 140 l 549 140 l 574 168 q 510 35 574 85 q 340 -14 446 -14 m 385 101 q 517 142 465 101 q 569 247 569 183 l 569 347 l 360 347 q 267 315 301 347 q 233 228 233 283 q 274 135 233 168 q 385 101 314 101 z "},"å":{"ha":833,"x_min":83,"x_max":719,"o":"m 340 -14 q 152 48 221 -14 q 83 217 83 110 q 156 387 83 325 q 357 449 229 449 l 569 449 l 569 519 q 531 617 569 582 q 421 651 492 651 q 317 624 358 651 q 268 553 275 597 l 121 553 q 216 717 133 656 q 425 778 299 778 q 640 709 561 778 q 719 522 719 640 l 719 0 l 574 0 l 574 140 l 549 140 l 574 168 q 510 35 574 85 q 340 -14 446 -14 m 385 101 q 517 142 465 101 q 569 247 569 183 l 569 347 l 360 347 q 267 315 301 347 q 233 228 233 283 q 274 135 233 169 q 385 101 314 101 m 424 840 q 297 885 344 840 q 249 1004 249 931 q 297 1123 249 1078 q 424 1168 344 1168 q 551 1123 503 1168 q 599 1004 599 1078 q 551 885 599 931 q 424 840 503 840 m 424 921 q 484 944 461 921 q 507 1004 507 967 q 484 1066 507 1043 q 424 1089 461 1089 q 363 1066 386 1089 q 340 1004 340 1043 q 363 944 340 967 q 424 921 386 921 z "},"ã":{"ha":833,"x_min":83,"x_max":719,"o":"m 340 -14 q 152 48 221 -14 q 83 217 83 110 q 156 387 83 325 q 357 449 229 449 l 569 449 l 569 519 q 531 617 569 582 q 421 651 492 651 q 317 624 358 651 q 268 553 275 597 l 121 553 q 216 717 133 656 q 425 778 299 778 q 640 709 561 778 q 719 522 719 640 l 719 0 l 574 0 l 574 140 l 549 140 l 574 168 q 510 35 574 85 q 340 -14 446 -14 m 385 101 q 517 142 465 101 q 569 247 569 183 l 569 347 l 360 347 q 267 315 301 347 q 233 228 233 283 q 274 135 233 169 q 385 101 314 101 m 521 897 q 451 911 478 897 q 407 943 425 925 q 372 976 389 961 q 333 990 356 990 q 303 978 315 990 q 292 942 292 965 l 292 904 l 193 904 l 193 947 q 230 1051 193 1013 q 326 1089 267 1089 q 396 1075 369 1089 q 440 1043 422 1061 q 475 1010 458 1025 q 514 996 492 996 q 544 1008 533 996 q 556 1042 556 1019 l 556 1082 l 654 1082 l 654 1039 q 618 935 654 974 q 521 897 582 897 z "},"æ":{"ha":833,"x_min":49,"x_max":785,"o":"m 238 -14 q 100 40 151 -14 q 49 185 49 94 l 49 264 q 108 401 49 350 q 267 453 167 453 l 356 453 l 356 558 q 335 638 356 613 q 272 663 315 663 q 213 639 236 663 q 190 575 190 615 l 60 575 q 113 722 60 667 q 250 778 165 778 q 340 760 304 778 q 394 717 375 743 q 417 668 413 692 l 424 668 q 445 717 428 692 q 497 760 463 743 q 583 778 532 778 q 731 719 676 778 q 785 560 785 660 l 785 353 l 482 353 l 482 204 q 506 130 482 158 q 567 101 529 101 q 631 124 607 101 q 654 185 654 146 l 785 185 q 729 41 785 96 q 583 -14 674 -14 q 497 3 532 -14 q 445 47 463 21 q 424 96 428 72 l 417 96 q 392 47 413 72 q 333 3 371 21 q 238 -14 296 -14 m 268 101 q 331 130 307 101 q 356 204 356 158 l 356 353 l 268 353 q 206 329 228 353 q 183 264 183 306 l 183 185 q 206 124 183 146 q 268 101 229 101 m 482 453 l 654 453 l 654 560 q 631 635 654 607 q 567 663 608 663 q 505 635 528 663 q 482 560 482 607 l 482 453 z "},"ǽ":{"ha":833,"x_min":49,"x_max":785,"o":"m 238 -14 q 100 40 151 -14 q 49 185 49 94 l 49 264 q 108 401 49 350 q 267 453 167 453 l 356 453 l 356 558 q 335 638 356 613 q 272 663 315 663 q 213 639 236 663 q 190 575 190 615 l 60 575 q 113 722 60 667 q 250 778 165 778 q 340 760 304 778 q 394 717 375 743 q 417 668 413 692 l 424 668 q 445 717 428 692 q 497 760 463 743 q 583 778 532 778 q 731 719 676 778 q 785 560 785 660 l 785 353 l 482 353 l 482 204 q 506 130 482 158 q 567 101 529 101 q 631 124 607 101 q 654 185 654 146 l 785 185 q 729 41 785 96 q 583 -14 674 -14 q 497 3 532 -14 q 445 47 463 21 q 424 96 428 72 l 417 96 q 392 47 413 72 q 333 3 371 21 q 238 -14 296 -14 m 268 101 q 331 130 307 101 q 356 204 356 158 l 356 353 l 268 353 q 206 329 228 353 q 183 264 183 306 l 183 185 q 206 124 183 146 q 268 101 229 101 m 482 453 l 654 453 l 654 560 q 631 635 654 607 q 567 663 608 663 q 505 635 528 663 q 482 560 482 607 l 482 453 m 324 896 l 471 1090 l 632 1090 l 475 896 l 324 896 z "},"b":{"ha":833,"x_min":117,"x_max":725,"o":"m 471 -14 q 321 38 376 -14 q 265 181 265 90 l 297 146 l 265 146 l 265 0 l 117 0 l 117 1014 l 267 1014 l 267 796 l 263 618 l 297 618 l 265 583 q 322 726 265 674 q 471 778 378 778 q 656 700 586 778 q 725 489 725 622 l 725 274 q 656 64 725 142 q 471 -14 586 -14 m 419 117 q 535 159 493 117 q 576 282 576 201 l 576 482 q 535 605 576 563 q 419 647 493 647 q 308 603 349 647 q 267 482 267 560 l 267 282 q 308 160 267 204 q 419 117 349 117 z "},"c":{"ha":833,"x_min":108,"x_max":731,"o":"m 422 -14 q 256 22 328 -14 q 147 124 185 57 q 108 282 108 192 l 108 482 q 147 640 108 574 q 256 742 185 707 q 422 778 328 778 q 643 706 560 778 q 731 508 726 633 l 581 508 q 535 610 576 574 q 422 646 493 646 q 301 603 346 646 q 257 483 257 561 l 257 282 q 301 161 257 204 q 422 118 346 118 q 535 154 493 118 q 581 256 576 190 l 731 256 q 643 58 726 131 q 422 -14 560 -14 z "},"ć":{"ha":833,"x_min":108,"x_max":731,"o":"m 422 -14 q 256 22 328 -14 q 147 124 185 57 q 108 282 108 192 l 108 482 q 147 640 108 574 q 256 742 185 707 q 422 778 328 778 q 643 706 560 778 q 731 508 726 633 l 581 508 q 535 610 576 574 q 422 646 493 646 q 301 603 346 646 q 257 483 257 561 l 257 282 q 301 161 257 204 q 422 118 346 118 q 535 154 493 118 q 581 256 576 190 l 731 256 q 643 58 726 131 q 422 -14 560 -14 m 329 896 l 476 1090 l 638 1090 l 481 896 l 329 896 z "},"č":{"ha":833,"x_min":108,"x_max":731,"o":"m 422 -14 q 256 22 328 -14 q 147 124 185 57 q 108 282 108 192 l 108 482 q 147 640 108 574 q 256 742 185 707 q 422 778 328 778 q 643 706 560 778 q 731 508 726 633 l 581 508 q 535 610 576 574 q 422 646 493 646 q 301 603 346 646 q 257 483 257 561 l 257 282 q 301 161 257 204 q 422 118 346 118 q 535 154 493 118 q 581 256 576 190 l 731 256 q 643 58 726 131 q 422 -14 560 -14 m 353 896 l 161 1090 l 314 1090 l 424 985 l 529 1090 l 683 1090 l 492 896 l 353 896 z "},"ç":{"ha":833,"x_min":108,"x_max":731,"o":"m 283 -292 l 283 -208 l 385 -208 q 436 -192 417 -208 q 456 -158 456 -176 q 416 -114 456 -132 q 306 -96 376 -96 l 354 32 l 439 32 l 411 -50 q 490 -68 450 -54 q 559 -108 531 -82 q 588 -172 588 -133 q 539 -256 588 -221 q 413 -292 490 -292 l 283 -292 m 422 -14 q 256 22 328 -14 q 147 124 185 57 q 108 282 108 192 l 108 482 q 147 640 108 574 q 256 742 185 707 q 422 778 328 778 q 643 706 560 778 q 731 508 726 633 l 581 508 q 535 610 576 574 q 422 646 493 646 q 301 603 346 646 q 257 483 257 561 l 257 282 q 301 161 257 204 q 422 118 346 118 q 535 154 493 118 q 581 256 576 190 l 731 256 q 643 58 726 131 q 422 -14 560 -14 z "},"ĉ":{"ha":833,"x_min":108,"x_max":731,"o":"m 422 -14 q 256 22 328 -14 q 147 124 185 57 q 108 282 108 192 l 108 482 q 147 640 108 574 q 256 742 185 707 q 422 778 328 778 q 643 706 560 778 q 731 508 726 633 l 581 508 q 535 610 576 574 q 422 646 493 646 q 301 603 346 646 q 257 483 257 561 l 257 282 q 301 161 257 204 q 422 118 346 118 q 535 154 493 118 q 581 256 576 190 l 731 256 q 643 58 726 131 q 422 -14 560 -14 m 156 896 l 347 1090 l 486 1090 l 678 896 l 525 896 l 415 1001 l 310 896 l 156 896 z "},"ċ":{"ha":833,"x_min":108,"x_max":731,"o":"m 422 -14 q 256 22 328 -14 q 147 124 185 57 q 108 282 108 192 l 108 482 q 147 640 108 574 q 256 742 185 707 q 422 778 328 778 q 643 706 560 778 q 731 508 726 633 l 581 508 q 535 610 576 574 q 422 646 493 646 q 301 603 346 646 q 257 483 257 561 l 257 282 q 301 161 257 204 q 422 118 346 118 q 535 154 493 118 q 581 256 576 190 l 731 256 q 643 58 726 131 q 422 -14 560 -14 m 417 896 q 339 922 368 896 q 310 990 310 947 q 339 1060 310 1035 q 417 1086 368 1086 q 494 1060 465 1086 q 524 990 524 1035 q 494 922 524 947 q 417 896 465 896 z "},"d":{"ha":833,"x_min":108,"x_max":717,"o":"m 363 -14 q 178 64 247 -14 q 108 274 108 142 l 108 489 q 178 700 108 622 q 363 778 247 778 q 513 726 457 778 q 568 583 568 674 l 536 618 l 571 618 l 567 796 l 567 1014 l 717 1014 l 717 0 l 568 0 l 568 146 l 536 146 l 568 181 q 513 38 568 90 q 363 -14 457 -14 m 414 117 q 526 160 485 117 q 567 282 567 204 l 567 482 q 526 603 567 560 q 414 647 485 647 q 299 605 340 647 q 257 482 257 563 l 257 282 q 299 159 257 201 q 414 117 340 117 z "},"ð":{"ha":833,"x_min":85,"x_max":749,"o":"m 415 -10 q 242 30 317 -10 q 126 141 167 69 q 85 307 85 213 q 121 469 85 400 q 223 576 157 538 q 375 614 289 614 q 451 600 417 614 q 509 565 485 586 q 544 526 533 544 l 561 526 q 535 574 557 538 q 467 671 513 611 l 381 788 l 158 690 l 158 813 l 313 881 l 214 1014 l 385 1014 l 442 935 l 654 1026 l 654 904 l 508 842 l 607 703 q 712 509 675 607 q 749 321 749 411 q 707 147 749 221 q 591 31 665 72 q 415 -10 517 -10 m 415 119 q 549 171 499 119 q 599 307 599 222 q 576 406 599 364 q 512 471 553 447 q 415 494 471 494 q 285 442 335 494 q 235 307 235 390 q 285 171 235 222 q 415 119 335 119 z "},"ď":{"ha":833,"x_min":78,"x_max":839,"o":"m 707 764 l 707 1014 l 839 1014 l 825 764 l 707 764 m 307 -14 q 140 62 201 -14 q 78 267 78 138 l 78 496 q 140 702 78 626 q 307 778 201 778 q 440 725 390 778 q 490 583 490 672 l 458 618 l 492 618 l 488 796 l 488 1014 l 633 1014 l 633 0 l 490 0 l 490 146 l 458 146 l 490 181 q 440 39 490 92 q 307 -14 390 -14 m 358 113 q 453 156 419 113 q 488 275 488 199 l 488 489 q 453 609 488 567 q 358 651 419 651 q 260 609 296 651 q 224 489 224 567 l 224 275 q 260 156 224 199 q 358 113 296 113 z "},"đ":{"ha":833,"x_min":113,"x_max":833,"o":"m 363 -14 q 180 64 247 -14 q 113 274 113 142 l 113 406 q 180 617 113 539 q 363 694 247 694 q 512 642 457 694 q 567 500 567 590 l 535 535 l 568 535 l 564 713 l 564 1014 l 714 1014 l 714 0 l 567 0 l 567 146 l 535 146 l 567 181 q 512 38 567 90 q 363 -14 457 -14 m 414 117 q 524 160 485 117 q 564 282 564 204 l 564 399 q 524 520 564 476 q 414 564 485 564 q 301 522 340 564 q 263 399 263 479 l 263 282 q 301 159 263 201 q 414 117 340 117 m 343 786 l 343 896 l 833 896 l 833 786 l 343 786 z "},"e":{"ha":833,"x_min":108,"x_max":725,"o":"m 417 -14 q 253 23 324 -14 q 146 126 183 60 q 108 282 108 193 l 108 482 q 146 638 108 572 q 253 741 183 704 q 417 778 324 778 q 581 741 511 778 q 688 638 650 704 q 725 482 725 572 l 725 346 l 253 346 l 253 282 q 295 153 253 197 q 418 108 338 108 q 524 131 483 108 q 574 199 564 154 l 722 199 q 622 44 706 101 q 417 -14 539 -14 m 581 436 l 581 483 q 539 613 581 567 q 417 658 497 658 q 295 613 338 658 q 253 482 253 567 l 253 447 l 592 449 l 581 436 z "},"é":{"ha":833,"x_min":108,"x_max":725,"o":"m 417 -14 q 253 23 324 -14 q 146 126 183 60 q 108 282 108 193 l 108 482 q 146 638 108 572 q 253 741 183 704 q 417 778 324 778 q 581 741 511 778 q 688 638 650 704 q 725 482 725 572 l 725 346 l 253 346 l 253 282 q 295 153 253 197 q 418 108 338 108 q 524 131 483 108 q 574 199 564 154 l 722 199 q 622 44 706 101 q 417 -14 539 -14 m 581 436 l 581 483 q 539 613 581 567 q 417 658 497 658 q 295 613 338 658 q 253 482 253 567 l 253 447 l 592 449 l 581 436 m 324 896 l 471 1090 l 632 1090 l 475 896 l 324 896 z "},"ĕ":{"ha":833,"x_min":108,"x_max":725,"o":"m 417 -14 q 253 23 324 -14 q 146 126 183 60 q 108 282 108 193 l 108 482 q 146 638 108 572 q 253 741 183 704 q 417 778 324 778 q 581 741 511 778 q 688 638 650 704 q 725 482 725 572 l 725 346 l 253 346 l 253 282 q 295 153 253 197 q 418 108 338 108 q 524 131 483 108 q 574 199 564 154 l 722 199 q 622 44 706 101 q 417 -14 539 -14 m 581 436 l 581 483 q 539 613 581 567 q 417 658 497 658 q 295 613 338 658 q 253 482 253 567 l 253 447 l 592 449 l 581 436 m 417 888 q 249 943 313 888 q 185 1090 185 999 l 301 1090 q 333 1010 301 1040 q 415 979 364 979 q 501 1010 469 979 q 532 1090 532 1040 l 649 1090 q 585 943 649 999 q 417 888 521 888 z "},"ě":{"ha":833,"x_min":108,"x_max":725,"o":"m 417 -14 q 253 23 324 -14 q 146 126 183 60 q 108 282 108 193 l 108 482 q 146 638 108 572 q 253 741 183 704 q 417 778 324 778 q 581 741 511 778 q 688 638 650 704 q 725 482 725 572 l 725 346 l 253 346 l 253 282 q 295 153 253 197 q 418 108 338 108 q 524 131 483 108 q 574 199 564 154 l 722 199 q 622 44 706 101 q 417 -14 539 -14 m 581 436 l 581 483 q 539 613 581 567 q 417 658 497 658 q 295 613 338 658 q 253 482 253 567 l 253 447 l 592 449 l 581 436 m 347 896 l 156 1090 l 308 1090 l 418 985 l 524 1090 l 678 1090 l 486 896 l 347 896 z "},"ê":{"ha":833,"x_min":108,"x_max":725,"o":"m 417 -14 q 253 23 324 -14 q 146 126 183 60 q 108 282 108 193 l 108 482 q 146 638 108 572 q 253 741 183 704 q 417 778 324 778 q 581 741 511 778 q 688 638 650 704 q 725 482 725 572 l 725 346 l 253 346 l 253 282 q 295 153 253 197 q 418 108 338 108 q 524 131 483 108 q 574 199 564 154 l 722 199 q 622 44 706 101 q 417 -14 539 -14 m 581 436 l 581 483 q 539 613 581 567 q 417 658 497 658 q 295 613 338 658 q 253 482 253 567 l 253 447 l 592 449 l 581 436 m 156 896 l 347 1090 l 486 1090 l 678 896 l 525 896 l 415 1001 l 310 896 l 156 896 z "},"ế":{"ha":833,"x_min":108,"x_max":893,"o":"m 417 -14 q 253 23 324 -14 q 146 126 183 60 q 108 282 108 193 l 108 482 q 146 638 108 572 q 253 741 183 704 q 417 778 324 778 q 581 741 511 778 q 688 638 650 704 q 725 482 725 572 l 725 346 l 253 346 l 253 282 q 295 153 253 197 q 418 108 338 108 q 524 131 483 108 q 574 199 564 154 l 722 199 q 622 44 706 101 q 417 -14 539 -14 m 581 436 l 581 483 q 539 613 581 567 q 417 658 497 658 q 295 613 338 658 q 253 482 253 567 l 253 447 l 592 449 l 581 436 m 574 1056 l 735 1250 l 893 1250 l 722 1056 l 574 1056 m 157 896 l 347 1090 l 486 1090 l 678 896 l 524 896 l 417 1001 l 310 896 l 157 896 z "},"ệ":{"ha":833,"x_min":108,"x_max":725,"o":"m 161 896 l 353 1090 l 492 1090 l 683 896 l 531 896 l 421 1001 l 315 896 l 161 896 m 417 -14 q 253 23 324 -14 q 146 126 183 60 q 108 282 108 193 l 108 482 q 146 638 108 572 q 253 741 183 704 q 417 778 324 778 q 581 741 511 778 q 688 638 650 704 q 725 482 725 572 l 725 346 l 253 346 l 253 282 q 295 153 253 197 q 418 108 338 108 q 524 131 483 108 q 574 199 564 154 l 722 199 q 622 44 706 101 q 417 -14 539 -14 m 581 436 l 581 483 q 539 613 581 567 q 417 658 497 658 q 295 613 338 658 q 253 482 253 567 l 253 447 l 592 449 l 581 436 m 417 -304 q 339 -279 368 -304 q 310 -210 310 -254 q 339 -141 310 -167 q 417 -115 368 -115 q 494 -141 465 -115 q 524 -210 524 -167 q 494 -279 524 -254 q 417 -304 465 -304 z "},"ề":{"ha":833,"x_min":108,"x_max":783,"o":"m 417 -14 q 253 23 324 -14 q 146 126 183 60 q 108 282 108 193 l 108 482 q 146 638 108 572 q 253 741 183 704 q 417 778 324 778 q 581 741 511 778 q 688 638 650 704 q 725 482 725 572 l 725 346 l 253 346 l 253 282 q 295 153 253 197 q 418 108 338 108 q 524 131 483 108 q 574 199 564 154 l 722 199 q 622 44 706 101 q 417 -14 539 -14 m 581 436 l 581 483 q 539 613 581 567 q 417 658 497 658 q 295 613 338 658 q 253 482 253 567 l 253 447 l 592 449 l 581 436 m 635 1056 l 454 1250 l 613 1250 l 783 1056 l 635 1056 m 157 896 l 347 1090 l 486 1090 l 678 896 l 524 896 l 417 1001 l 310 896 l 157 896 z "},"ể":{"ha":833,"x_min":108,"x_max":781,"o":"m 417 -14 q 253 23 324 -14 q 146 126 183 60 q 108 282 108 193 l 108 482 q 146 638 108 572 q 253 741 183 704 q 417 778 324 778 q 581 741 511 778 q 688 638 650 704 q 725 482 725 572 l 725 346 l 253 346 l 253 282 q 295 153 253 197 q 418 108 338 108 q 524 131 483 108 q 574 199 564 154 l 722 199 q 622 44 706 101 q 417 -14 539 -14 m 581 436 l 581 483 q 539 613 581 567 q 417 658 497 658 q 295 613 338 658 q 253 482 253 567 l 253 447 l 592 449 l 581 436 m 588 1056 l 651 1139 q 667 1175 667 1160 q 656 1198 667 1190 q 624 1206 644 1206 l 543 1206 l 543 1300 l 639 1300 q 742 1271 704 1300 q 781 1190 781 1242 q 774 1157 781 1174 q 754 1122 768 1140 l 706 1056 l 588 1056 m 157 896 l 347 1090 l 486 1090 l 678 896 l 524 896 l 417 1001 l 310 896 l 157 896 z "},"ễ":{"ha":833,"x_min":108,"x_max":725,"o":"m 417 -14 q 253 23 324 -14 q 146 126 183 60 q 108 282 108 193 l 108 482 q 146 638 108 572 q 253 741 183 704 q 417 778 324 778 q 581 741 511 778 q 688 638 650 704 q 725 482 725 572 l 725 346 l 253 346 l 253 282 q 295 153 253 197 q 418 108 338 108 q 524 131 483 108 q 574 199 564 154 l 722 199 q 622 44 706 101 q 417 -14 539 -14 m 581 436 l 581 483 q 539 613 581 567 q 417 658 497 658 q 295 613 338 658 q 253 482 253 567 l 253 447 l 592 449 l 581 436 m 510 1133 q 440 1147 467 1133 q 397 1176 414 1160 q 365 1206 381 1193 q 326 1219 349 1219 q 296 1208 307 1219 q 285 1176 285 1197 l 285 1143 l 186 1143 l 186 1172 q 224 1270 186 1233 q 324 1307 263 1307 q 394 1294 368 1307 q 436 1263 419 1281 q 469 1233 453 1246 q 507 1221 485 1221 q 549 1261 549 1221 l 549 1296 l 647 1296 l 647 1267 q 610 1170 647 1207 q 510 1133 572 1133 m 157 896 l 347 1090 l 486 1090 l 678 896 l 524 896 l 417 1001 l 310 896 l 157 896 z "},"ë":{"ha":833,"x_min":108,"x_max":725,"o":"m 417 -14 q 253 23 324 -14 q 146 126 183 60 q 108 282 108 193 l 108 482 q 146 638 108 572 q 253 741 183 704 q 417 778 324 778 q 581 741 511 778 q 688 638 650 704 q 725 482 725 572 l 725 346 l 253 346 l 253 282 q 295 153 253 197 q 418 108 338 108 q 524 131 483 108 q 574 199 564 154 l 722 199 q 622 44 706 101 q 417 -14 539 -14 m 581 436 l 581 483 q 539 613 581 567 q 417 658 497 658 q 295 613 338 658 q 253 482 253 567 l 253 447 l 592 449 l 581 436 m 575 896 q 506 922 532 896 q 481 990 481 947 q 506 1060 481 1035 q 575 1086 532 1086 q 645 1060 619 1086 q 671 990 671 1035 q 645 922 671 947 q 575 896 619 896 m 258 896 q 188 922 214 896 q 163 990 163 947 q 188 1060 163 1035 q 258 1086 214 1086 q 327 1060 301 1086 q 353 990 353 1035 q 327 922 353 947 q 258 896 301 896 z "},"ė":{"ha":833,"x_min":108,"x_max":725,"o":"m 417 -14 q 253 23 324 -14 q 146 126 183 60 q 108 282 108 193 l 108 482 q 146 638 108 572 q 253 741 183 704 q 417 778 324 778 q 581 741 511 778 q 688 638 650 704 q 725 482 725 572 l 725 346 l 253 346 l 253 282 q 295 153 253 197 q 418 108 338 108 q 524 131 483 108 q 574 199 564 154 l 722 199 q 622 44 706 101 q 417 -14 539 -14 m 581 436 l 581 483 q 539 613 581 567 q 417 658 497 658 q 295 613 338 658 q 253 482 253 567 l 253 447 l 592 449 l 581 436 m 417 896 q 339 922 368 896 q 310 990 310 947 q 339 1060 310 1035 q 417 1086 368 1086 q 494 1060 465 1086 q 524 990 524 1035 q 494 922 524 947 q 417 896 465 896 z "},"ẹ":{"ha":833,"x_min":108,"x_max":725,"o":"m 417 -14 q 253 23 324 -14 q 146 126 183 60 q 108 282 108 193 l 108 482 q 146 638 108 572 q 253 741 183 704 q 417 778 324 778 q 581 741 511 778 q 688 638 650 704 q 725 482 725 572 l 725 346 l 253 346 l 253 282 q 295 153 253 197 q 418 108 338 108 q 524 131 483 108 q 574 199 564 154 l 722 199 q 622 44 706 101 q 417 -14 539 -14 m 581 436 l 581 483 q 539 613 581 567 q 417 658 497 658 q 295 613 338 658 q 253 482 253 567 l 253 447 l 592 449 l 581 436 m 417 -304 q 339 -279 368 -304 q 310 -210 310 -254 q 339 -141 310 -167 q 417 -115 368 -115 q 494 -141 465 -115 q 524 -210 524 -167 q 494 -279 524 -254 q 417 -304 465 -304 z "},"è":{"ha":833,"x_min":108,"x_max":725,"o":"m 417 -14 q 253 23 324 -14 q 146 126 183 60 q 108 282 108 193 l 108 482 q 146 638 108 572 q 253 741 183 704 q 417 778 324 778 q 581 741 511 778 q 688 638 650 704 q 725 482 725 572 l 725 346 l 253 346 l 253 282 q 295 153 253 197 q 418 108 338 108 q 524 131 483 108 q 574 199 564 154 l 722 199 q 622 44 706 101 q 417 -14 539 -14 m 581 436 l 581 483 q 539 613 581 567 q 417 658 497 658 q 295 613 338 658 q 253 482 253 567 l 253 447 l 592 449 l 581 436 m 358 896 l 197 1090 l 364 1090 l 514 896 l 358 896 z "},"ẻ":{"ha":833,"x_min":108,"x_max":725,"o":"m 417 -14 q 253 23 324 -14 q 146 126 183 60 q 108 282 108 193 l 108 482 q 146 638 108 572 q 253 741 183 704 q 417 778 324 778 q 581 741 511 778 q 688 638 650 704 q 725 482 725 572 l 725 346 l 253 346 l 253 282 q 295 153 253 197 q 418 108 338 108 q 524 131 483 108 q 574 199 564 154 l 722 199 q 622 44 706 101 q 417 -14 539 -14 m 581 436 l 581 483 q 539 613 581 567 q 417 658 497 658 q 295 613 338 658 q 253 482 253 567 l 253 447 l 592 449 l 581 436 m 353 896 l 421 982 q 442 1025 442 1007 q 399 1051 442 1051 l 288 1051 l 288 1150 l 433 1150 q 525 1121 490 1150 q 560 1042 560 1092 q 533 964 560 997 l 481 896 l 353 896 z "},"ē":{"ha":833,"x_min":108,"x_max":725,"o":"m 417 -14 q 253 23 324 -14 q 146 126 183 60 q 108 282 108 193 l 108 482 q 146 638 108 572 q 253 741 183 704 q 417 778 324 778 q 581 741 511 778 q 688 638 650 704 q 725 482 725 572 l 725 346 l 253 346 l 253 282 q 295 153 253 197 q 418 108 338 108 q 524 131 483 108 q 574 199 564 154 l 722 199 q 622 44 706 101 q 417 -14 539 -14 m 581 436 l 581 483 q 539 613 581 567 q 417 658 497 658 q 295 613 338 658 q 253 482 253 567 l 253 447 l 592 449 l 581 436 m 186 925 l 186 1043 l 647 1043 l 647 925 l 186 925 z "},"ę":{"ha":833,"x_min":111,"x_max":722,"o":"m 513 -292 q 386 -253 433 -292 q 339 -154 339 -214 q 367 -78 339 -118 q 451 3 396 -37 q 439 -9 449 -4 q 417 -14 429 -14 q 255 23 324 -14 q 149 126 186 60 q 111 282 111 193 l 111 482 q 149 638 111 572 q 255 741 186 704 q 417 778 324 778 q 579 741 511 778 q 685 638 647 704 q 722 482 722 572 l 722 346 l 256 346 l 256 282 q 297 153 256 197 q 418 108 338 108 q 522 131 483 108 q 569 199 560 154 l 718 199 q 676 97 710 140 q 590 25 642 53 l 553 -7 q 493 -70 513 -42 q 474 -125 474 -99 q 493 -171 474 -153 q 546 -189 513 -189 l 633 -189 l 633 -292 l 513 -292 m 578 406 l 578 483 q 538 613 578 567 q 417 658 497 658 q 297 613 338 658 q 256 482 256 567 l 256 447 l 621 449 l 578 406 z "},"ẽ":{"ha":833,"x_min":108,"x_max":725,"o":"m 417 -14 q 253 23 324 -14 q 146 126 183 60 q 108 282 108 193 l 108 482 q 146 638 108 572 q 253 741 183 704 q 417 778 324 778 q 581 741 511 778 q 688 638 650 704 q 725 482 725 572 l 725 346 l 253 346 l 253 282 q 295 153 253 197 q 418 108 338 108 q 524 131 483 108 q 574 199 564 154 l 722 199 q 622 44 706 101 q 417 -14 539 -14 m 581 436 l 581 483 q 539 613 581 567 q 417 658 497 658 q 295 613 338 658 q 253 482 253 567 l 253 447 l 592 449 l 581 436 m 514 897 q 444 911 471 897 q 400 943 418 925 q 365 976 382 961 q 326 990 349 990 q 297 978 308 990 q 285 942 285 965 l 285 904 l 186 904 l 186 947 q 223 1051 186 1013 q 319 1089 260 1089 q 389 1075 363 1089 q 433 1043 415 1061 q 468 1010 451 1025 q 507 996 485 996 q 538 1008 526 996 q 549 1042 549 1019 l 549 1082 l 647 1082 l 647 1039 q 611 935 647 974 q 514 897 575 897 z "},"ə":{"ha":833,"x_min":113,"x_max":721,"o":"m 417 -14 q 254 23 322 -14 q 149 126 186 60 q 113 282 113 193 l 113 418 l 576 418 l 576 482 q 537 611 576 567 q 415 656 497 656 q 313 633 350 656 q 265 565 276 610 l 117 565 q 214 720 133 663 q 417 778 294 778 q 578 741 510 778 q 684 638 647 704 q 721 482 721 572 l 721 282 q 684 126 721 193 q 578 23 647 60 q 417 -14 510 -14 m 417 107 q 537 152 497 107 q 576 282 576 197 l 576 317 l 247 317 l 257 328 l 257 282 q 297 152 257 197 q 417 107 336 107 z "},"f":{"ha":833,"x_min":79,"x_max":747,"o":"m 296 0 l 296 547 l 79 547 l 79 683 l 296 683 l 296 807 q 357 958 296 903 q 524 1014 418 1014 l 747 1014 l 747 881 l 526 881 q 466 861 488 881 q 444 806 444 842 l 444 683 l 747 683 l 747 547 l 444 547 l 444 0 l 296 0 z "},"g":{"ha":833,"x_min":111,"x_max":715,"o":"m 217 -250 l 217 -121 l 451 -121 q 538 -93 510 -121 q 567 -11 567 -65 l 567 65 l 569 207 l 538 207 l 568 235 q 513 97 568 147 q 365 47 458 47 q 179 125 247 47 q 111 335 111 203 l 111 490 q 179 700 111 622 q 365 778 247 778 q 513 727 458 778 q 568 589 568 676 l 538 618 l 568 618 l 567 764 l 715 764 l 715 -14 q 646 -187 715 -124 q 453 -250 576 -250 l 217 -250 m 414 176 q 526 220 485 176 q 567 342 567 264 l 567 482 q 526 603 567 560 q 414 647 485 647 q 301 605 340 647 q 261 482 261 563 l 261 342 q 301 219 261 263 q 414 176 340 176 z "},"ǵ":{"ha":833,"x_min":111,"x_max":715,"o":"m 217 -250 l 217 -121 l 451 -121 q 538 -93 510 -121 q 567 -11 567 -65 l 567 65 l 569 207 l 538 207 l 568 235 q 513 97 568 147 q 365 47 458 47 q 179 125 247 47 q 111 335 111 203 l 111 490 q 179 700 111 622 q 365 778 247 778 q 513 727 458 778 q 568 589 568 676 l 538 618 l 568 618 l 567 764 l 715 764 l 715 -14 q 646 -187 715 -124 q 453 -250 576 -250 l 217 -250 m 414 176 q 526 220 485 176 q 567 342 567 264 l 567 482 q 526 603 567 560 q 414 647 485 647 q 301 605 340 647 q 261 482 261 563 l 261 342 q 301 219 261 263 q 414 176 340 176 m 322 896 l 469 1090 l 631 1090 l 474 896 l 322 896 z "},"ğ":{"ha":833,"x_min":111,"x_max":715,"o":"m 217 -250 l 217 -121 l 451 -121 q 538 -93 510 -121 q 567 -11 567 -65 l 567 65 l 569 207 l 538 207 l 568 235 q 513 97 568 147 q 365 47 458 47 q 179 125 247 47 q 111 335 111 203 l 111 490 q 179 700 111 622 q 365 778 247 778 q 513 727 458 778 q 568 589 568 676 l 538 618 l 568 618 l 567 764 l 715 764 l 715 -14 q 646 -187 715 -124 q 453 -250 576 -250 l 217 -250 m 414 176 q 526 220 485 176 q 567 342 567 264 l 567 482 q 526 603 567 560 q 414 647 485 647 q 301 605 340 647 q 261 482 261 563 l 261 342 q 301 219 261 263 q 414 176 340 176 m 413 888 q 244 943 308 888 q 181 1090 181 999 l 297 1090 q 328 1010 297 1040 q 411 979 360 979 q 497 1010 465 979 q 528 1090 528 1040 l 644 1090 q 581 943 644 999 q 413 888 517 888 z "},"ǧ":{"ha":833,"x_min":111,"x_max":715,"o":"m 217 -250 l 217 -121 l 451 -121 q 538 -93 510 -121 q 567 -11 567 -65 l 567 65 l 569 207 l 538 207 l 568 235 q 513 97 568 147 q 365 47 458 47 q 179 125 247 47 q 111 335 111 203 l 111 490 q 179 700 111 622 q 365 778 247 778 q 513 727 458 778 q 568 589 568 676 l 538 618 l 568 618 l 567 764 l 715 764 l 715 -14 q 646 -187 715 -124 q 453 -250 576 -250 l 217 -250 m 414 176 q 526 220 485 176 q 567 342 567 264 l 567 482 q 526 603 567 560 q 414 647 485 647 q 301 605 340 647 q 261 482 261 563 l 261 342 q 301 219 261 263 q 414 176 340 176 m 343 896 l 151 1090 l 304 1090 l 414 985 l 519 1090 l 674 1090 l 482 896 l 343 896 z "},"ĝ":{"ha":833,"x_min":111,"x_max":715,"o":"m 217 -250 l 217 -121 l 451 -121 q 538 -93 510 -121 q 567 -11 567 -65 l 567 65 l 569 207 l 538 207 l 568 235 q 513 97 568 147 q 365 47 458 47 q 179 125 247 47 q 111 335 111 203 l 111 490 q 179 700 111 622 q 365 778 247 778 q 513 727 458 778 q 568 589 568 676 l 538 618 l 568 618 l 567 764 l 715 764 l 715 -14 q 646 -187 715 -124 q 453 -250 576 -250 l 217 -250 m 414 176 q 526 220 485 176 q 567 342 567 264 l 567 482 q 526 603 567 560 q 414 647 485 647 q 301 605 340 647 q 261 482 261 563 l 261 342 q 301 219 261 263 q 414 176 340 176 m 151 896 l 343 1090 l 482 1090 l 674 896 l 521 896 l 411 1001 l 306 896 l 151 896 z "},"ģ":{"ha":833,"x_min":111,"x_max":715,"o":"m 217 -250 l 217 -121 l 451 -121 q 538 -93 510 -121 q 567 -11 567 -65 l 567 65 l 569 207 l 538 207 l 568 235 q 513 97 568 147 q 365 47 458 47 q 179 125 247 47 q 111 335 111 203 l 111 490 q 179 700 111 622 q 365 778 247 778 q 513 727 458 778 q 568 589 568 676 l 538 618 l 568 618 l 567 764 l 715 764 l 715 -14 q 646 -187 715 -124 q 453 -250 576 -250 l 217 -250 m 414 176 q 526 220 485 176 q 567 342 567 264 l 567 482 q 526 603 567 560 q 414 647 485 647 q 301 605 340 647 q 261 482 261 563 l 261 342 q 301 219 261 263 q 414 176 340 176 m 582 1222 l 471 896 l 279 896 l 460 1222 l 582 1222 z "},"ġ":{"ha":833,"x_min":111,"x_max":715,"o":"m 217 -250 l 217 -121 l 451 -121 q 538 -93 510 -121 q 567 -11 567 -65 l 567 65 l 569 207 l 538 207 l 568 235 q 513 97 568 147 q 365 47 458 47 q 179 125 247 47 q 111 335 111 203 l 111 490 q 179 700 111 622 q 365 778 247 778 q 513 727 458 778 q 568 589 568 676 l 538 618 l 568 618 l 567 764 l 715 764 l 715 -14 q 646 -187 715 -124 q 453 -250 576 -250 l 217 -250 m 414 176 q 526 220 485 176 q 567 342 567 264 l 567 482 q 526 603 567 560 q 414 647 485 647 q 301 605 340 647 q 261 482 261 563 l 261 342 q 301 219 261 263 q 414 176 340 176 m 413 896 q 335 922 364 896 q 306 990 306 947 q 335 1060 306 1035 q 413 1086 364 1086 q 490 1060 461 1086 q 519 990 519 1035 q 490 922 519 947 q 413 896 461 896 z "},"h":{"ha":833,"x_min":117,"x_max":719,"o":"m 117 0 l 117 1014 l 267 1014 l 267 764 l 265 618 l 301 618 l 265 583 q 319 726 265 675 q 469 778 374 778 q 651 705 583 778 q 719 508 719 632 l 719 0 l 569 0 l 569 492 q 529 608 569 567 q 419 650 489 650 q 308 606 349 650 q 267 482 267 563 l 267 0 l 117 0 z "},"ħ":{"ha":833,"x_min":0,"x_max":719,"o":"m 0 786 l 0 896 l 117 896 l 117 1014 l 267 1014 l 267 896 l 490 896 l 490 786 l 267 786 l 267 681 l 265 535 l 267 535 q 331 653 278 611 q 469 694 383 694 q 651 622 583 694 q 719 425 719 549 l 719 0 l 569 0 l 569 408 q 529 525 569 483 q 419 567 489 567 q 308 523 349 567 q 267 399 267 479 l 267 0 l 117 0 l 117 786 l 0 786 z "},"ĥ":{"ha":833,"x_min":-53,"x_max":719,"o":"m 117 0 l 117 1014 l 267 1014 l 267 764 l 265 618 l 301 618 l 265 583 q 319 726 265 675 q 469 778 374 778 q 651 705 583 778 q 719 508 719 632 l 719 0 l 569 0 l 569 492 q 529 608 569 567 q 419 650 489 650 q 308 606 349 650 q 267 482 267 563 l 267 0 l 117 0 m -53 1118 l 139 1313 l 278 1313 l 469 1118 l 317 1118 l 207 1224 l 101 1118 l -53 1118 z "},"i":{"ha":833,"x_min":113,"x_max":772,"o":"m 113 0 l 113 136 l 381 136 l 381 628 l 147 628 l 147 764 l 526 764 l 526 136 l 772 136 l 772 0 l 113 0 m 439 896 q 361 922 390 896 q 332 990 332 947 q 361 1060 332 1035 q 439 1086 390 1086 q 517 1060 488 1086 q 546 990 546 1035 q 517 922 546 947 q 439 896 488 896 z "},"ı":{"ha":833,"x_min":113,"x_max":772,"o":"m 113 0 l 113 136 l 381 136 l 381 628 l 147 628 l 147 764 l 526 764 l 526 136 l 772 136 l 772 0 l 113 0 z "},"í":{"ha":833,"x_min":113,"x_max":772,"o":"m 113 0 l 113 136 l 381 136 l 381 628 l 147 628 l 147 764 l 526 764 l 526 136 l 772 136 l 772 0 l 113 0 m 346 896 l 493 1090 l 654 1090 l 497 896 l 346 896 z "},"ĭ":{"ha":833,"x_min":113,"x_max":772,"o":"m 113 0 l 113 136 l 381 136 l 381 628 l 147 628 l 147 764 l 526 764 l 526 136 l 772 136 l 772 0 l 113 0 m 439 888 q 271 943 335 888 q 207 1090 207 999 l 324 1090 q 355 1010 324 1040 q 438 979 386 979 q 523 1010 492 979 q 554 1090 554 1040 l 671 1090 q 607 943 671 999 q 439 888 543 888 z "},"î":{"ha":833,"x_min":113,"x_max":772,"o":"m 113 0 l 113 136 l 381 136 l 381 628 l 147 628 l 147 764 l 526 764 l 526 136 l 772 136 l 772 0 l 113 0 m 178 896 l 369 1090 l 508 1090 l 700 896 l 547 896 l 438 1001 l 332 896 l 178 896 z "},"ï":{"ha":833,"x_min":113,"x_max":772,"o":"m 113 0 l 113 136 l 381 136 l 381 628 l 147 628 l 147 764 l 526 764 l 526 136 l 772 136 l 772 0 l 113 0 m 597 896 q 528 922 554 896 q 503 990 503 947 q 528 1060 503 1035 q 597 1086 554 1086 q 667 1060 642 1086 q 693 990 693 1035 q 667 922 693 947 q 597 896 642 896 m 281 896 q 210 922 236 896 q 185 990 185 947 q 210 1060 185 1035 q 281 1086 236 1086 q 349 1060 324 1086 q 375 990 375 1035 q 349 922 375 947 q 281 896 324 896 z "},"ị":{"ha":833,"x_min":113,"x_max":772,"o":"m 113 0 l 113 136 l 381 136 l 381 628 l 147 628 l 147 764 l 526 764 l 526 136 l 772 136 l 772 0 l 113 0 m 439 896 q 361 922 390 896 q 332 990 332 947 q 361 1060 332 1035 q 439 1086 390 1086 q 517 1060 488 1086 q 546 990 546 1035 q 517 922 546 947 q 439 896 488 896 m 439 -304 q 361 -279 390 -304 q 332 -210 332 -254 q 361 -141 332 -167 q 439 -115 390 -115 q 517 -141 488 -115 q 546 -210 546 -167 q 517 -279 546 -254 q 439 -304 488 -304 z "},"ì":{"ha":833,"x_min":113,"x_max":772,"o":"m 113 0 l 113 136 l 381 136 l 381 628 l 147 628 l 147 764 l 526 764 l 526 136 l 772 136 l 772 0 l 113 0 m 381 896 l 219 1090 l 386 1090 l 536 896 l 381 896 z "},"ỉ":{"ha":833,"x_min":113,"x_max":772,"o":"m 113 0 l 113 136 l 381 136 l 381 628 l 147 628 l 147 764 l 526 764 l 526 136 l 772 136 l 772 0 l 113 0 m 376 896 l 444 982 q 465 1025 465 1007 q 422 1051 465 1051 l 311 1051 l 311 1150 l 457 1150 q 549 1121 514 1150 q 583 1042 583 1092 q 557 964 583 997 l 504 896 l 376 896 z "},"ī":{"ha":833,"x_min":113,"x_max":772,"o":"m 113 0 l 113 136 l 381 136 l 381 628 l 147 628 l 147 764 l 526 764 l 526 136 l 772 136 l 772 0 l 113 0 m 208 925 l 208 1043 l 669 1043 l 669 925 l 208 925 z "},"į":{"ha":833,"x_min":113,"x_max":772,"o":"m 444 -292 q 319 -253 365 -292 q 272 -156 272 -214 q 303 -69 272 -112 q 400 14 333 -26 l 510 14 l 485 -7 q 425 -70 444 -42 q 406 -125 406 -99 q 425 -171 406 -153 q 478 -189 444 -189 l 565 -189 l 565 -292 l 444 -292 m 113 0 l 113 136 l 381 136 l 381 628 l 147 628 l 147 764 l 526 764 l 526 136 l 772 136 l 772 0 l 113 0 m 439 896 q 362 922 390 896 q 333 990 333 947 q 362 1060 333 1035 q 439 1086 390 1086 q 517 1060 489 1086 q 546 990 546 1035 q 517 922 546 947 q 439 896 489 896 z "},"ĩ":{"ha":833,"x_min":113,"x_max":772,"o":"m 113 0 l 113 136 l 381 136 l 381 628 l 147 628 l 147 764 l 526 764 l 526 136 l 772 136 l 772 0 l 113 0 m 536 897 q 467 911 493 897 q 422 943 440 925 q 388 976 404 961 q 349 990 371 990 q 319 978 331 990 q 307 942 307 965 l 307 904 l 208 904 l 208 947 q 245 1051 208 1013 q 342 1089 282 1089 q 411 1075 385 1089 q 456 1043 438 1061 q 490 1010 474 1025 q 529 996 507 996 q 560 1008 549 996 q 571 1042 571 1019 l 571 1082 l 669 1082 l 669 1039 q 633 935 669 974 q 536 897 597 897 z "},"j":{"ha":833,"x_min":117,"x_max":646,"o":"m 117 -250 l 117 -111 l 308 -111 q 428 -69 385 -111 q 471 49 471 -28 l 471 626 l 158 626 l 158 764 l 621 764 l 621 47 q 538 -170 621 -90 q 313 -250 454 -250 l 117 -250 m 539 896 q 461 922 490 896 q 432 990 432 947 q 461 1060 432 1035 q 539 1086 490 1086 q 617 1060 588 1086 q 646 990 646 1035 q 617 922 646 947 q 539 896 588 896 z "},"ȷ":{"ha":833,"x_min":117,"x_max":621,"o":"m 117 -250 l 117 -111 l 308 -111 q 428 -69 385 -111 q 471 49 471 -28 l 471 626 l 158 626 l 158 764 l 621 764 l 621 47 q 538 -170 621 -90 q 313 -250 454 -250 l 117 -250 z "},"ĵ":{"ha":833,"x_min":117,"x_max":717,"o":"m 117 -250 l 117 -111 l 308 -111 q 428 -69 385 -111 q 471 49 471 -28 l 471 626 l 158 626 l 158 764 l 621 764 l 621 47 q 538 -170 621 -90 q 313 -250 454 -250 l 117 -250 m 194 896 l 386 1090 l 525 1090 l 717 896 l 564 896 l 454 1001 l 349 896 l 194 896 z "},"k":{"ha":833,"x_min":121,"x_max":782,"o":"m 121 0 l 121 1014 l 271 1014 l 271 457 l 406 457 l 608 764 l 778 764 l 535 397 l 782 0 l 610 0 l 406 328 l 271 328 l 271 0 l 121 0 z "},"ķ":{"ha":833,"x_min":121,"x_max":782,"o":"m 121 0 l 121 1014 l 271 1014 l 271 457 l 406 457 l 608 764 l 778 764 l 535 397 l 782 0 l 610 0 l 406 328 l 271 328 l 271 0 l 121 0 m 258 -333 l 390 -132 l 554 -132 l 404 -333 l 258 -333 z "},"ĸ":{"ha":833,"x_min":124,"x_max":772,"o":"m 124 0 l 124 764 l 274 764 l 274 457 l 396 457 l 599 764 l 768 764 l 525 397 l 772 0 l 600 0 l 396 328 l 274 328 l 274 0 l 124 0 z "},"l":{"ha":833,"x_min":40,"x_max":769,"o":"m 526 0 q 403 28 456 0 q 320 110 350 57 q 290 232 290 163 l 290 878 l 40 878 l 40 1014 l 440 1014 l 440 232 q 465 162 440 188 q 533 136 490 136 l 769 136 l 769 0 l 526 0 z "},"ĺ":{"ha":833,"x_min":40,"x_max":769,"o":"m 526 0 q 403 28 456 0 q 320 110 350 57 q 290 232 290 163 l 290 878 l 40 878 l 40 1014 l 440 1014 l 440 232 q 465 162 440 188 q 533 136 490 136 l 769 136 l 769 0 l 526 0 m 263 1125 l 410 1319 l 571 1319 l 414 1125 l 263 1125 z "},"ľ":{"ha":833,"x_min":40,"x_max":772,"o":"m 526 0 q 403 28 456 0 q 320 110 350 57 q 290 232 290 163 l 290 878 l 40 878 l 40 1014 l 440 1014 l 440 232 q 465 162 440 188 q 533 136 490 136 l 769 136 l 769 0 l 526 0 m 618 764 l 632 1014 l 772 1014 l 744 764 l 618 764 z "},"ļ":{"ha":833,"x_min":40,"x_max":769,"o":"m 526 0 q 403 28 456 0 q 320 110 350 57 q 290 232 290 163 l 290 878 l 40 878 l 40 1014 l 440 1014 l 440 232 q 465 162 440 188 q 533 136 490 136 l 769 136 l 769 0 l 526 0 m 286 -333 l 418 -132 l 582 -132 l 432 -333 l 286 -333 z "},"ŀ":{"ha":833,"x_min":13,"x_max":892,"o":"m 499 0 q 375 28 428 0 q 292 110 322 57 q 263 232 263 163 l 263 878 l 13 878 l 13 1014 l 413 1014 l 413 232 q 438 162 413 188 q 506 136 463 136 l 742 136 l 742 0 l 499 0 z "},"ł":{"ha":833,"x_min":40,"x_max":769,"o":"m 139 319 l 139 456 l 657 778 l 657 642 l 139 319 m 526 0 q 403 28 456 0 q 320 110 350 57 q 290 232 290 163 l 290 878 l 40 878 l 40 1014 l 440 1014 l 440 232 q 465 162 440 188 q 533 136 490 136 l 769 136 l 769 0 l 526 0 z "},"m":{"ha":833,"x_min":82,"x_max":751,"o":"m 82 0 l 82 764 l 207 764 l 207 667 l 235 667 l 214 638 q 249 740 214 701 q 342 778 283 778 q 438 729 404 778 q 472 596 472 681 l 439 667 l 492 667 l 469 638 q 505 740 469 701 q 600 778 540 778 q 711 724 671 778 q 751 582 751 671 l 751 0 l 618 0 l 618 578 q 599 644 618 621 q 546 668 581 668 q 492 645 511 668 q 474 579 474 622 l 474 0 l 361 0 l 361 578 q 342 645 361 622 q 286 668 322 668 q 234 645 251 668 q 217 579 217 622 l 217 0 l 82 0 z "},"n":{"ha":833,"x_min":117,"x_max":719,"o":"m 117 0 l 117 764 l 265 764 l 265 618 l 301 618 l 265 583 q 319 726 265 675 q 469 778 374 778 q 651 705 583 778 q 719 508 719 632 l 719 0 l 569 0 l 569 492 q 529 607 569 567 q 419 647 489 647 q 308 605 349 647 q 267 482 267 563 l 267 0 l 117 0 z "},"ń":{"ha":833,"x_min":117,"x_max":719,"o":"m 117 0 l 117 764 l 265 764 l 265 618 l 301 618 l 265 583 q 319 726 265 675 q 469 778 374 778 q 651 705 583 778 q 719 508 719 632 l 719 0 l 569 0 l 569 492 q 529 607 569 567 q 419 647 489 647 q 308 605 349 647 q 267 482 267 563 l 267 0 l 117 0 m 331 896 l 478 1090 l 639 1090 l 482 896 l 331 896 z "},"ŉ":{"ha":833,"x_min":-6,"x_max":719,"o":"m 117 0 l 117 764 l 265 764 l 265 618 l 301 618 l 265 583 q 319 726 265 675 q 469 778 374 778 q 651 705 583 778 q 719 508 719 632 l 719 0 l 569 0 l 569 492 q 529 607 569 567 q 419 647 489 647 q 308 605 349 647 q 267 482 267 563 l 267 0 l 117 0 m -6 896 l 126 1097 l 290 1097 l 140 896 l -6 896 z "},"ň":{"ha":833,"x_min":117,"x_max":719,"o":"m 117 0 l 117 764 l 265 764 l 265 618 l 301 618 l 265 583 q 319 726 265 675 q 469 778 374 778 q 651 705 583 778 q 719 508 719 632 l 719 0 l 569 0 l 569 492 q 529 607 569 567 q 419 647 489 647 q 308 605 349 647 q 267 482 267 563 l 267 0 l 117 0 m 354 896 l 163 1090 l 315 1090 l 425 985 l 531 1090 l 685 1090 l 493 896 l 354 896 z "},"ņ":{"ha":833,"x_min":117,"x_max":719,"o":"m 117 0 l 117 764 l 265 764 l 265 618 l 301 618 l 265 583 q 319 726 265 675 q 469 778 374 778 q 651 705 583 778 q 719 508 719 632 l 719 0 l 569 0 l 569 492 q 529 607 569 567 q 419 647 489 647 q 308 605 349 647 q 267 482 267 563 l 267 0 l 117 0 m 258 -333 l 390 -132 l 554 -132 l 404 -333 l 258 -333 z "},"ŋ":{"ha":833,"x_min":119,"x_max":717,"o":"m 336 -250 l 336 -110 l 422 -110 q 528 -72 489 -110 q 567 32 567 -33 l 567 492 q 528 608 567 567 q 419 650 489 650 q 309 606 349 650 q 269 482 269 563 l 269 0 l 119 0 l 119 764 l 267 764 l 267 618 l 304 618 l 267 583 q 320 726 267 675 q 469 778 374 778 q 650 705 583 778 q 717 508 717 632 l 717 25 q 679 -119 717 -57 q 575 -216 642 -182 q 418 -250 508 -250 l 336 -250 z "},"ñ":{"ha":833,"x_min":117,"x_max":719,"o":"m 117 0 l 117 764 l 265 764 l 265 618 l 301 618 l 265 583 q 319 726 265 675 q 469 778 374 778 q 651 705 583 778 q 719 508 719 632 l 719 0 l 569 0 l 569 492 q 529 607 569 567 q 419 647 489 647 q 308 605 349 647 q 267 482 267 563 l 267 0 l 117 0 m 521 897 q 451 911 478 897 q 407 943 425 925 q 372 976 389 961 q 333 990 356 990 q 303 978 315 990 q 292 942 292 965 l 292 904 l 193 904 l 193 947 q 230 1051 193 1013 q 326 1089 267 1089 q 396 1075 369 1089 q 440 1043 422 1061 q 475 1010 458 1025 q 514 996 492 996 q 544 1008 533 996 q 556 1042 556 1019 l 556 1082 l 654 1082 l 654 1039 q 618 935 654 974 q 521 897 582 897 z "},"o":{"ha":833,"x_min":108,"x_max":725,"o":"m 417 -12 q 253 24 322 -12 q 146 126 183 60 q 108 283 108 193 l 108 481 q 146 638 108 572 q 253 740 183 704 q 417 776 322 776 q 581 740 511 776 q 688 638 650 704 q 725 481 725 572 l 725 283 q 688 126 725 193 q 581 24 650 60 q 417 -12 511 -12 m 417 119 q 535 162 493 119 q 576 283 576 204 l 576 481 q 535 603 576 561 q 417 644 493 644 q 299 603 342 644 q 257 481 257 561 l 257 283 q 299 162 257 204 q 417 119 342 119 z "},"ó":{"ha":833,"x_min":108,"x_max":725,"o":"m 417 -12 q 253 24 322 -12 q 146 126 183 60 q 108 283 108 193 l 108 481 q 146 638 108 572 q 253 740 183 704 q 417 776 322 776 q 581 740 511 776 q 688 638 650 704 q 725 481 725 572 l 725 283 q 688 126 725 193 q 581 24 650 60 q 417 -12 511 -12 m 417 119 q 535 162 493 119 q 576 283 576 204 l 576 481 q 535 603 576 561 q 417 644 493 644 q 299 603 342 644 q 257 481 257 561 l 257 283 q 299 162 257 204 q 417 119 342 119 m 324 896 l 471 1090 l 632 1090 l 475 896 l 324 896 z "},"ŏ":{"ha":833,"x_min":108,"x_max":725,"o":"m 417 -12 q 253 24 322 -12 q 146 126 183 60 q 108 283 108 193 l 108 481 q 146 638 108 572 q 253 740 183 704 q 417 776 322 776 q 581 740 511 776 q 688 638 650 704 q 725 481 725 572 l 725 283 q 688 126 725 193 q 581 24 650 60 q 417 -12 511 -12 m 417 119 q 535 162 493 119 q 576 283 576 204 l 576 481 q 535 603 576 561 q 417 644 493 644 q 299 603 342 644 q 257 481 257 561 l 257 283 q 299 162 257 204 q 417 119 342 119 m 417 888 q 249 943 313 888 q 185 1090 185 999 l 301 1090 q 333 1010 301 1040 q 415 979 364 979 q 501 1010 469 979 q 532 1090 532 1040 l 649 1090 q 585 943 649 999 q 417 888 521 888 z "},"ô":{"ha":833,"x_min":108,"x_max":725,"o":"m 417 -12 q 253 24 322 -12 q 146 126 183 60 q 108 283 108 193 l 108 481 q 146 638 108 572 q 253 740 183 704 q 417 776 322 776 q 581 740 511 776 q 688 638 650 704 q 725 481 725 572 l 725 283 q 688 126 725 193 q 581 24 650 60 q 417 -12 511 -12 m 417 119 q 535 162 493 119 q 576 283 576 204 l 576 481 q 535 603 576 561 q 417 644 493 644 q 299 603 342 644 q 257 481 257 561 l 257 283 q 299 162 257 204 q 417 119 342 119 m 156 896 l 347 1090 l 486 1090 l 678 896 l 525 896 l 415 1001 l 310 896 l 156 896 z "},"ố":{"ha":833,"x_min":108,"x_max":893,"o":"m 417 -12 q 253 24 322 -12 q 146 126 183 60 q 108 283 108 193 l 108 481 q 146 638 108 572 q 253 740 183 704 q 417 776 322 776 q 581 740 511 776 q 688 638 650 704 q 725 481 725 572 l 725 283 q 688 126 725 193 q 581 24 650 60 q 417 -12 511 -12 m 417 119 q 535 162 493 119 q 576 283 576 204 l 576 481 q 535 603 576 561 q 417 644 493 644 q 299 603 342 644 q 257 481 257 561 l 257 283 q 299 162 257 204 q 417 119 342 119 m 574 1056 l 735 1250 l 893 1250 l 722 1056 l 574 1056 m 157 896 l 347 1090 l 486 1090 l 678 896 l 524 896 l 417 1001 l 310 896 l 157 896 z "},"ộ":{"ha":833,"x_min":108,"x_max":725,"o":"m 156 896 l 347 1090 l 486 1090 l 678 896 l 525 896 l 415 1001 l 310 896 l 156 896 m 417 -12 q 253 24 322 -12 q 146 126 183 60 q 108 283 108 193 l 108 481 q 146 638 108 572 q 253 740 183 704 q 417 776 322 776 q 581 740 511 776 q 688 638 650 704 q 725 481 725 572 l 725 283 q 688 126 725 193 q 581 24 650 60 q 417 -12 511 -12 m 417 119 q 535 162 493 119 q 576 283 576 204 l 576 481 q 535 603 576 561 q 417 644 493 644 q 299 603 342 644 q 257 481 257 561 l 257 283 q 299 162 257 204 q 417 119 342 119 m 431 -304 q 353 -279 382 -304 q 324 -210 324 -254 q 353 -141 324 -167 q 431 -115 382 -115 q 508 -141 479 -115 q 538 -210 538 -167 q 508 -279 538 -254 q 431 -304 479 -304 z "},"ồ":{"ha":833,"x_min":108,"x_max":783,"o":"m 417 -12 q 253 24 322 -12 q 146 126 183 60 q 108 283 108 193 l 108 481 q 146 638 108 572 q 253 740 183 704 q 417 776 322 776 q 581 740 511 776 q 688 638 650 704 q 725 481 725 572 l 725 283 q 688 126 725 193 q 581 24 650 60 q 417 -12 511 -12 m 417 119 q 535 162 493 119 q 576 283 576 204 l 576 481 q 535 603 576 561 q 417 644 493 644 q 299 603 342 644 q 257 481 257 561 l 257 283 q 299 162 257 204 q 417 119 342 119 m 635 1056 l 454 1250 l 613 1250 l 783 1056 l 635 1056 m 157 896 l 347 1090 l 486 1090 l 678 896 l 524 896 l 417 1001 l 310 896 l 157 896 z "},"ổ":{"ha":833,"x_min":108,"x_max":781,"o":"m 417 -12 q 253 24 322 -12 q 146 126 183 60 q 108 283 108 193 l 108 481 q 146 638 108 572 q 253 740 183 704 q 417 776 322 776 q 581 740 511 776 q 688 638 650 704 q 725 481 725 572 l 725 283 q 688 126 725 193 q 581 24 650 60 q 417 -12 511 -12 m 417 119 q 535 162 493 119 q 576 283 576 204 l 576 481 q 535 603 576 561 q 417 644 493 644 q 299 603 342 644 q 257 481 257 561 l 257 283 q 299 162 257 204 q 417 119 342 119 m 588 1056 l 651 1139 q 667 1175 667 1160 q 656 1198 667 1190 q 624 1206 644 1206 l 543 1206 l 543 1300 l 639 1300 q 742 1271 704 1300 q 781 1190 781 1242 q 774 1157 781 1174 q 754 1122 768 1140 l 706 1056 l 588 1056 m 157 896 l 347 1090 l 486 1090 l 678 896 l 524 896 l 417 1001 l 310 896 l 157 896 z "},"ỗ":{"ha":833,"x_min":108,"x_max":725,"o":"m 417 -12 q 253 24 322 -12 q 146 126 183 60 q 108 283 108 193 l 108 481 q 146 638 108 572 q 253 740 183 704 q 417 776 322 776 q 581 740 511 776 q 688 638 650 704 q 725 481 725 572 l 725 283 q 688 126 725 193 q 581 24 650 60 q 417 -12 511 -12 m 417 119 q 535 162 493 119 q 576 283 576 204 l 576 481 q 535 603 576 561 q 417 644 493 644 q 299 603 342 644 q 257 481 257 561 l 257 283 q 299 162 257 204 q 417 119 342 119 m 510 1133 q 440 1147 467 1133 q 397 1176 414 1160 q 365 1206 381 1193 q 326 1219 349 1219 q 296 1208 307 1219 q 285 1176 285 1197 l 285 1143 l 186 1143 l 186 1172 q 224 1270 186 1233 q 324 1307 263 1307 q 394 1294 368 1307 q 436 1263 419 1281 q 469 1233 453 1246 q 507 1221 485 1221 q 549 1261 549 1221 l 549 1296 l 647 1296 l 647 1267 q 610 1170 647 1207 q 510 1133 572 1133 m 157 896 l 347 1090 l 486 1090 l 678 896 l 524 896 l 417 1001 l 310 896 l 157 896 z "},"ö":{"ha":833,"x_min":108,"x_max":725,"o":"m 417 -12 q 253 24 322 -12 q 146 126 183 60 q 108 283 108 193 l 108 481 q 146 638 108 572 q 253 740 183 704 q 417 776 322 776 q 581 740 511 776 q 688 638 650 704 q 725 481 725 572 l 725 283 q 688 126 725 193 q 581 24 650 60 q 417 -12 511 -12 m 417 119 q 535 162 493 119 q 576 283 576 204 l 576 481 q 535 603 576 561 q 417 644 493 644 q 299 603 342 644 q 257 481 257 561 l 257 283 q 299 162 257 204 q 417 119 342 119 m 575 896 q 506 922 532 896 q 481 990 481 947 q 506 1060 481 1035 q 575 1086 532 1086 q 645 1060 619 1086 q 671 990 671 1035 q 645 922 671 947 q 575 896 619 896 m 258 896 q 188 922 214 896 q 163 990 163 947 q 188 1060 163 1035 q 258 1086 214 1086 q 327 1060 301 1086 q 353 990 353 1035 q 327 922 353 947 q 258 896 301 896 z "},"ọ":{"ha":833,"x_min":108,"x_max":725,"o":"m 417 -12 q 253 24 322 -12 q 146 126 183 60 q 108 283 108 193 l 108 481 q 146 638 108 572 q 253 740 183 704 q 417 776 322 776 q 581 740 511 776 q 688 638 650 704 q 725 481 725 572 l 725 283 q 688 126 725 193 q 581 24 650 60 q 417 -12 511 -12 m 417 119 q 535 162 493 119 q 576 283 576 204 l 576 481 q 535 603 576 561 q 417 644 493 644 q 299 603 342 644 q 257 481 257 561 l 257 283 q 299 162 257 204 q 417 119 342 119 m 431 -304 q 353 -279 382 -304 q 324 -210 324 -254 q 353 -141 324 -167 q 431 -115 382 -115 q 508 -141 479 -115 q 538 -210 538 -167 q 508 -279 538 -254 q 431 -304 479 -304 z "},"ò":{"ha":833,"x_min":108,"x_max":725,"o":"m 417 -12 q 253 24 322 -12 q 146 126 183 60 q 108 283 108 193 l 108 481 q 146 638 108 572 q 253 740 183 704 q 417 776 322 776 q 581 740 511 776 q 688 638 650 704 q 725 481 725 572 l 725 283 q 688 126 725 193 q 581 24 650 60 q 417 -12 511 -12 m 417 119 q 535 162 493 119 q 576 283 576 204 l 576 481 q 535 603 576 561 q 417 644 493 644 q 299 603 342 644 q 257 481 257 561 l 257 283 q 299 162 257 204 q 417 119 342 119 m 358 896 l 197 1090 l 364 1090 l 514 896 l 358 896 z "},"ỏ":{"ha":833,"x_min":108,"x_max":725,"o":"m 417 -12 q 253 24 322 -12 q 146 126 183 60 q 108 283 108 193 l 108 481 q 146 638 108 572 q 253 740 183 704 q 417 776 322 776 q 581 740 511 776 q 688 638 650 704 q 725 481 725 572 l 725 283 q 688 126 725 193 q 581 24 650 60 q 417 -12 511 -12 m 417 119 q 535 162 493 119 q 576 283 576 204 l 576 481 q 535 603 576 561 q 417 644 493 644 q 299 603 342 644 q 257 481 257 561 l 257 283 q 299 162 257 204 q 417 119 342 119 m 353 896 l 421 982 q 442 1025 442 1007 q 399 1051 442 1051 l 288 1051 l 288 1150 l 433 1150 q 525 1121 490 1150 q 560 1042 560 1092 q 533 964 560 997 l 481 896 l 353 896 z "},"ơ":{"ha":833,"x_min":108,"x_max":767,"o":"m 538 632 l 538 736 l 596 736 q 632 749 619 736 q 644 785 644 761 l 644 889 l 767 889 l 767 779 q 722 672 767 713 q 604 632 676 632 l 538 632 m 417 -12 q 253 24 322 -12 q 146 126 183 60 q 108 283 108 193 l 108 481 q 146 638 108 572 q 253 740 183 704 q 417 776 322 776 q 581 740 511 776 q 688 638 650 704 q 725 481 725 572 l 725 283 q 688 126 725 193 q 581 24 650 60 q 417 -12 511 -12 m 417 119 q 535 162 493 119 q 576 283 576 204 l 576 481 q 535 603 576 561 q 417 644 493 644 q 299 603 342 644 q 257 481 257 561 l 257 283 q 299 162 257 204 q 417 119 342 119 z "},"ớ":{"ha":833,"x_min":108,"x_max":767,"o":"m 538 632 l 538 736 l 596 736 q 632 749 619 736 q 644 785 644 761 l 644 889 l 767 889 l 767 779 q 722 672 767 713 q 604 632 676 632 l 538 632 m 417 -12 q 253 24 322 -12 q 146 126 183 60 q 108 283 108 193 l 108 481 q 146 638 108 572 q 253 740 183 704 q 417 776 322 776 q 581 740 511 776 q 688 638 650 704 q 725 481 725 572 l 725 283 q 688 126 725 193 q 581 24 650 60 q 417 -12 511 -12 m 417 119 q 535 162 493 119 q 576 283 576 204 l 576 481 q 535 603 576 561 q 417 644 493 644 q 299 603 342 644 q 257 481 257 561 l 257 283 q 299 162 257 204 q 417 119 342 119 m 310 896 l 457 1090 l 618 1090 l 461 896 l 310 896 z "},"ợ":{"ha":833,"x_min":108,"x_max":767,"o":"m 538 632 l 538 736 l 596 736 q 632 749 619 736 q 644 785 644 761 l 644 889 l 767 889 l 767 779 q 722 672 767 713 q 604 632 676 632 l 538 632 m 417 -12 q 253 24 322 -12 q 146 126 183 60 q 108 283 108 193 l 108 481 q 146 638 108 572 q 253 740 183 704 q 417 776 322 776 q 581 740 511 776 q 688 638 650 704 q 725 481 725 572 l 725 283 q 688 126 725 193 q 581 24 650 60 q 417 -12 511 -12 m 417 119 q 535 162 493 119 q 576 283 576 204 l 576 481 q 535 603 576 561 q 417 644 493 644 q 299 603 342 644 q 257 481 257 561 l 257 283 q 299 162 257 204 q 417 119 342 119 m 431 -304 q 353 -279 382 -304 q 324 -210 324 -254 q 353 -141 324 -167 q 431 -115 382 -115 q 508 -141 479 -115 q 538 -210 538 -167 q 508 -279 538 -254 q 431 -304 479 -304 z "},"ờ":{"ha":833,"x_min":108,"x_max":767,"o":"m 538 632 l 538 736 l 596 736 q 632 749 619 736 q 644 785 644 761 l 644 889 l 767 889 l 767 779 q 722 672 767 713 q 604 632 676 632 l 538 632 m 417 -12 q 253 24 322 -12 q 146 126 183 60 q 108 283 108 193 l 108 481 q 146 638 108 572 q 253 740 183 704 q 417 776 322 776 q 581 740 511 776 q 688 638 650 704 q 725 481 725 572 l 725 283 q 688 126 725 193 q 581 24 650 60 q 417 -12 511 -12 m 417 119 q 535 162 493 119 q 576 283 576 204 l 576 481 q 535 603 576 561 q 417 644 493 644 q 299 603 342 644 q 257 481 257 561 l 257 283 q 299 162 257 204 q 417 119 342 119 m 344 896 l 183 1090 l 350 1090 l 500 896 l 344 896 z "},"ở":{"ha":833,"x_min":108,"x_max":767,"o":"m 538 632 l 538 736 l 596 736 q 632 749 619 736 q 644 785 644 761 l 644 889 l 767 889 l 767 779 q 722 672 767 713 q 604 632 676 632 l 538 632 m 417 -12 q 253 24 322 -12 q 146 126 183 60 q 108 283 108 193 l 108 481 q 146 638 108 572 q 253 740 183 704 q 417 776 322 776 q 581 740 511 776 q 688 638 650 704 q 725 481 725 572 l 725 283 q 688 126 725 193 q 581 24 650 60 q 417 -12 511 -12 m 417 119 q 535 162 493 119 q 576 283 576 204 l 576 481 q 535 603 576 561 q 417 644 493 644 q 299 603 342 644 q 257 481 257 561 l 257 283 q 299 162 257 204 q 417 119 342 119 m 353 896 l 421 982 q 442 1025 442 1007 q 399 1051 442 1051 l 288 1051 l 288 1150 l 433 1150 q 525 1121 490 1150 q 560 1042 560 1092 q 533 964 560 997 l 481 896 l 353 896 z "},"ỡ":{"ha":833,"x_min":108,"x_max":767,"o":"m 538 632 l 538 736 l 596 736 q 632 749 619 736 q 644 785 644 761 l 644 889 l 767 889 l 767 779 q 722 672 767 713 q 604 632 676 632 l 538 632 m 417 -12 q 253 24 322 -12 q 146 126 183 60 q 108 283 108 193 l 108 481 q 146 638 108 572 q 253 740 183 704 q 417 776 322 776 q 581 740 511 776 q 688 638 650 704 q 725 481 725 572 l 725 283 q 688 126 725 193 q 581 24 650 60 q 417 -12 511 -12 m 417 119 q 535 162 493 119 q 576 283 576 204 l 576 481 q 535 603 576 561 q 417 644 493 644 q 299 603 342 644 q 257 481 257 561 l 257 283 q 299 162 257 204 q 417 119 342 119 m 500 897 q 431 911 457 897 q 386 943 404 925 q 351 976 368 961 q 313 990 335 990 q 283 978 294 990 q 271 942 271 965 l 271 904 l 172 904 l 172 947 q 209 1051 172 1013 q 306 1089 246 1089 q 375 1075 349 1089 q 419 1043 401 1061 q 454 1010 438 1025 q 493 996 471 996 q 524 1008 513 996 q 535 1042 535 1019 l 535 1082 l 633 1082 l 633 1039 q 597 935 633 974 q 500 897 561 897 z "},"ő":{"ha":833,"x_min":108,"x_max":751,"o":"m 417 -12 q 253 24 322 -12 q 146 126 183 60 q 108 283 108 193 l 108 481 q 146 638 108 572 q 253 740 183 704 q 417 776 322 776 q 581 740 511 776 q 688 638 650 704 q 725 481 725 572 l 725 283 q 688 126 725 193 q 581 24 650 60 q 417 -12 511 -12 m 417 119 q 535 162 493 119 q 576 283 576 204 l 576 481 q 535 603 576 561 q 417 644 493 644 q 299 603 342 644 q 257 481 257 561 l 257 283 q 299 162 257 204 q 417 119 342 119 m 451 896 l 601 1090 l 751 1090 l 592 896 l 451 896 m 186 896 l 338 1090 l 486 1090 l 326 896 l 186 896 z "},"ō":{"ha":833,"x_min":108,"x_max":725,"o":"m 417 -12 q 253 24 322 -12 q 146 126 183 60 q 108 283 108 193 l 108 481 q 146 638 108 572 q 253 740 183 704 q 417 776 322 776 q 581 740 511 776 q 688 638 650 704 q 725 481 725 572 l 725 283 q 688 126 725 193 q 581 24 650 60 q 417 -12 511 -12 m 417 119 q 535 162 493 119 q 576 283 576 204 l 576 481 q 535 603 576 561 q 417 644 493 644 q 299 603 342 644 q 257 481 257 561 l 257 283 q 299 162 257 204 q 417 119 342 119 m 186 925 l 186 1043 l 647 1043 l 647 925 l 186 925 z "},"ǫ":{"ha":833,"x_min":111,"x_max":722,"o":"m 511 -292 q 385 -253 432 -292 q 338 -154 338 -214 q 364 -81 338 -119 q 451 3 390 -43 q 444 -4 450 0 q 431 -11 438 -8 q 417 -14 424 -14 q 253 22 322 -14 q 148 124 185 57 q 111 282 111 192 l 111 482 q 148 640 111 574 q 253 742 185 707 q 417 778 322 778 q 580 742 511 778 q 685 640 649 707 q 722 483 722 574 l 722 282 q 690 135 722 199 q 599 33 657 71 l 551 -7 q 491 -69 510 -40 q 472 -125 472 -99 q 492 -171 472 -153 q 544 -189 511 -189 l 632 -189 l 632 -292 l 511 -292 m 417 118 q 533 160 493 118 q 572 282 572 201 l 572 482 q 533 604 572 563 q 417 646 493 646 q 301 604 342 646 q 261 482 261 563 l 261 282 q 301 160 261 201 q 417 118 342 118 z "},"ø":{"ha":833,"x_min":44,"x_max":789,"o":"m 44 -42 l 653 819 l 789 819 l 179 -42 l 44 -42 m 417 -14 q 253 22 322 -14 q 148 124 185 57 q 111 282 111 192 l 111 482 q 148 640 111 574 q 253 742 185 707 q 417 778 322 778 q 580 742 511 778 q 685 640 649 707 q 722 483 722 574 l 722 282 q 685 124 722 192 q 580 22 649 57 q 417 -14 511 -14 m 417 118 q 538 162 494 118 q 582 282 582 206 l 582 482 q 538 603 582 560 q 417 646 494 646 q 295 603 339 646 q 251 482 251 560 l 251 282 q 295 162 251 206 q 417 118 339 118 z "},"ǿ":{"ha":833,"x_min":44,"x_max":789,"o":"m 44 -42 l 653 819 l 789 819 l 179 -42 l 44 -42 m 417 -14 q 253 22 322 -14 q 148 124 185 57 q 111 282 111 192 l 111 482 q 148 640 111 574 q 253 742 185 707 q 417 778 322 778 q 580 742 511 778 q 685 640 649 707 q 722 483 722 574 l 722 282 q 685 124 722 192 q 580 22 649 57 q 417 -14 511 -14 m 417 118 q 538 162 494 118 q 582 282 582 206 l 582 482 q 538 603 582 560 q 417 646 494 646 q 295 603 339 646 q 251 482 251 560 l 251 282 q 295 162 251 206 q 417 118 339 118 m 324 896 l 471 1090 l 632 1090 l 475 896 l 324 896 z "},"õ":{"ha":833,"x_min":108,"x_max":725,"o":"m 417 -12 q 253 24 322 -12 q 146 126 183 60 q 108 283 108 193 l 108 481 q 146 638 108 572 q 253 740 183 704 q 417 776 322 776 q 581 740 511 776 q 688 638 650 704 q 725 481 725 572 l 725 283 q 688 126 725 193 q 581 24 650 60 q 417 -12 511 -12 m 417 119 q 535 162 493 119 q 576 283 576 204 l 576 481 q 535 603 576 561 q 417 644 493 644 q 299 603 342 644 q 257 481 257 561 l 257 283 q 299 162 257 204 q 417 119 342 119 m 514 897 q 444 911 471 897 q 400 943 418 925 q 365 976 382 961 q 326 990 349 990 q 297 978 308 990 q 285 942 285 965 l 285 904 l 186 904 l 186 947 q 223 1051 186 1013 q 319 1089 260 1089 q 389 1075 363 1089 q 433 1043 415 1061 q 468 1010 451 1025 q 507 996 485 996 q 538 1008 526 996 q 549 1042 549 1019 l 549 1082 l 647 1082 l 647 1039 q 611 935 647 974 q 514 897 575 897 z "},"œ":{"ha":833,"x_min":49,"x_max":785,"o":"m 250 -14 q 103 46 158 -14 q 49 204 49 106 l 49 560 q 103 719 49 660 q 250 778 158 778 q 340 760 304 778 q 393 717 375 743 q 413 668 411 692 l 421 668 q 441 717 424 692 q 494 760 458 743 q 583 778 529 778 q 730 719 675 778 q 785 560 785 660 l 785 347 l 482 347 l 482 204 q 505 129 482 157 q 567 101 528 101 q 624 123 601 101 q 651 179 647 144 l 782 179 q 719 39 772 92 q 583 -14 665 -14 q 494 3 529 -14 q 441 47 458 21 q 421 96 424 72 l 413 96 q 393 47 411 72 q 340 3 375 21 q 250 -14 304 -14 m 267 101 q 328 129 306 101 q 351 204 351 157 l 351 560 q 328 635 351 607 q 267 663 306 663 q 203 635 226 663 q 179 560 179 607 l 179 204 q 203 129 179 157 q 267 101 226 101 m 482 451 l 654 451 l 654 560 q 631 635 654 607 q 567 663 607 663 q 505 635 528 663 q 482 560 482 607 l 482 451 z "},"p":{"ha":833,"x_min":117,"x_max":725,"o":"m 117 -250 l 117 764 l 265 764 l 265 618 l 297 618 l 265 583 q 322 726 265 674 q 472 778 378 778 q 656 701 588 778 q 725 490 725 624 l 725 275 q 694 122 725 186 q 606 22 663 57 q 472 -14 550 -14 q 322 38 379 -14 q 265 181 265 90 l 297 146 l 263 146 l 267 -32 l 267 -250 l 117 -250 m 421 117 q 535 159 494 117 q 576 282 576 201 l 576 482 q 535 605 576 563 q 421 647 494 647 q 308 603 350 647 q 267 482 267 560 l 267 282 q 308 160 267 204 q 421 117 350 117 z "},"þ":{"ha":833,"x_min":113,"x_max":721,"o":"m 113 -236 l 113 78 l 260 78 l 260 -236 l 113 -236 m 467 -14 q 316 38 372 -14 q 260 181 260 90 l 292 146 l 260 146 l 260 0 l 113 0 l 113 1014 l 263 1014 l 263 796 l 258 618 l 292 618 l 260 583 q 317 726 260 674 q 467 778 374 778 q 651 700 582 778 q 721 489 721 622 l 721 274 q 651 64 721 142 q 467 -14 582 -14 m 415 117 q 529 159 488 117 q 571 282 571 201 l 571 482 q 529 605 571 563 q 415 647 488 647 q 303 603 344 647 q 263 482 263 560 l 263 282 q 303 160 263 204 q 415 117 344 117 z "},"q":{"ha":833,"x_min":111,"x_max":717,"o":"m 567 -250 l 567 -32 l 571 146 l 536 146 l 568 181 q 513 38 568 90 q 363 -14 457 -14 q 179 64 247 -14 q 111 275 111 142 l 111 490 q 179 701 111 624 q 363 778 247 778 q 513 726 457 778 q 568 583 568 674 l 536 618 l 568 618 l 568 764 l 717 764 l 717 -250 l 567 -250 m 414 117 q 526 160 485 117 q 567 282 567 204 l 567 482 q 526 603 567 560 q 414 647 485 647 q 301 605 340 647 q 261 482 261 563 l 261 282 q 301 159 261 201 q 414 117 340 117 z "},"r":{"ha":833,"x_min":142,"x_max":757,"o":"m 142 0 l 142 764 l 286 764 l 286 618 l 322 618 l 276 528 q 331 715 276 651 q 492 778 385 778 q 685 702 614 778 q 757 494 757 626 l 757 443 l 603 443 l 603 482 q 562 608 603 564 q 447 651 521 651 q 333 607 374 651 q 292 482 292 563 l 292 0 l 142 0 z "},"ŕ":{"ha":833,"x_min":142,"x_max":757,"o":"m 142 0 l 142 764 l 286 764 l 286 618 l 322 618 l 276 528 q 331 715 276 651 q 492 778 385 778 q 685 702 614 778 q 757 494 757 626 l 757 443 l 603 443 l 603 482 q 562 608 603 564 q 447 651 521 651 q 333 607 374 651 q 292 482 292 563 l 292 0 l 142 0 m 351 896 l 499 1090 l 660 1090 l 503 896 l 351 896 z "},"ř":{"ha":833,"x_min":142,"x_max":757,"o":"m 142 0 l 142 764 l 286 764 l 286 618 l 322 618 l 276 528 q 331 715 276 651 q 492 778 385 778 q 685 702 614 778 q 757 494 757 626 l 757 443 l 603 443 l 603 482 q 562 608 603 564 q 447 651 521 651 q 333 607 374 651 q 292 482 292 563 l 292 0 l 142 0 m 375 896 l 183 1090 l 336 1090 l 446 985 l 551 1090 l 706 1090 l 514 896 l 375 896 z "},"ŗ":{"ha":833,"x_min":29,"x_max":757,"o":"m 142 0 l 142 764 l 286 764 l 286 618 l 322 618 l 276 528 q 331 715 276 651 q 492 778 385 778 q 685 702 614 778 q 757 494 757 626 l 757 443 l 603 443 l 603 482 q 562 608 603 564 q 447 651 521 651 q 333 607 374 651 q 292 482 292 563 l 292 0 l 142 0 m 29 -333 l 161 -132 l 325 -132 l 175 -333 l 29 -333 z "},"s":{"ha":833,"x_min":108,"x_max":735,"o":"m 390 -12 q 247 14 308 -12 q 149 87 185 40 q 108 197 114 133 l 258 197 q 299 137 264 160 q 390 114 333 114 l 450 114 q 553 142 518 114 q 588 215 588 169 q 556 285 588 260 q 464 319 525 311 l 365 335 q 185 405 243 354 q 128 556 128 456 q 197 719 128 661 q 400 776 265 776 l 453 776 q 644 722 572 776 q 725 575 715 667 l 575 575 q 538 629 569 608 q 453 650 507 650 l 400 650 q 305 626 335 650 q 275 554 275 601 q 301 492 275 513 q 383 463 328 471 l 485 446 q 674 374 614 428 q 735 219 735 321 q 663 49 735 110 q 450 -12 592 -12 l 390 -12 z "},"ś":{"ha":833,"x_min":108,"x_max":735,"o":"m 390 -12 q 247 14 308 -12 q 149 87 185 40 q 108 197 114 133 l 258 197 q 299 137 264 160 q 390 114 333 114 l 450 114 q 553 142 518 114 q 588 215 588 169 q 556 285 588 260 q 464 319 525 311 l 365 335 q 185 405 243 354 q 128 556 128 456 q 197 719 128 661 q 400 776 265 776 l 453 776 q 644 722 572 776 q 725 575 715 667 l 575 575 q 538 629 569 608 q 453 650 507 650 l 400 650 q 305 626 335 650 q 275 554 275 601 q 301 492 275 513 q 383 463 328 471 l 485 446 q 674 374 614 428 q 735 219 735 321 q 663 49 735 110 q 450 -12 592 -12 l 390 -12 m 338 896 l 485 1090 l 646 1090 l 489 896 l 338 896 z "},"š":{"ha":833,"x_min":108,"x_max":735,"o":"m 390 -12 q 247 14 308 -12 q 149 87 185 40 q 108 197 114 133 l 258 197 q 299 137 264 160 q 390 114 333 114 l 450 114 q 553 142 518 114 q 588 215 588 169 q 556 285 588 260 q 464 319 525 311 l 365 335 q 185 405 243 354 q 128 556 128 456 q 197 719 128 661 q 400 776 265 776 l 453 776 q 644 722 572 776 q 725 575 715 667 l 575 575 q 538 629 569 608 q 453 650 507 650 l 400 650 q 305 626 335 650 q 275 554 275 601 q 301 492 275 513 q 383 463 328 471 l 485 446 q 674 374 614 428 q 735 219 735 321 q 663 49 735 110 q 450 -12 592 -12 l 390 -12 m 361 896 l 169 1090 l 322 1090 l 432 985 l 538 1090 l 692 1090 l 500 896 l 361 896 z "},"ş":{"ha":833,"x_min":108,"x_max":735,"o":"m 293 -292 l 293 -208 l 394 -208 q 444 -192 425 -208 q 464 -158 464 -176 q 425 -114 464 -132 q 314 -96 386 -96 l 363 32 l 449 32 l 419 -50 q 499 -68 458 -54 q 568 -108 540 -82 q 596 -172 596 -133 q 548 -256 596 -221 q 421 -292 500 -292 l 293 -292 m 390 -12 q 247 14 308 -12 q 149 87 185 40 q 108 197 114 133 l 258 197 q 299 137 264 160 q 390 114 333 114 l 450 114 q 553 142 518 114 q 588 215 588 169 q 556 285 588 260 q 464 319 525 311 l 365 335 q 185 405 243 354 q 128 556 128 456 q 197 719 128 661 q 400 776 265 776 l 453 776 q 644 722 572 776 q 725 575 715 667 l 575 575 q 538 629 569 608 q 453 650 507 650 l 400 650 q 305 626 335 650 q 275 554 275 601 q 301 492 275 513 q 383 463 328 471 l 485 446 q 674 374 614 428 q 735 219 735 321 q 663 49 735 110 q 450 -12 592 -12 l 390 -12 z "},"ŝ":{"ha":833,"x_min":108,"x_max":735,"o":"m 390 -12 q 247 14 308 -12 q 149 87 185 40 q 108 197 114 133 l 258 197 q 299 137 264 160 q 390 114 333 114 l 450 114 q 553 142 518 114 q 588 215 588 169 q 556 285 588 260 q 464 319 525 311 l 365 335 q 185 405 243 354 q 128 556 128 456 q 197 719 128 661 q 400 776 265 776 l 453 776 q 644 722 572 776 q 725 575 715 667 l 575 575 q 538 629 569 608 q 453 650 507 650 l 400 650 q 305 626 335 650 q 275 554 275 601 q 301 492 275 513 q 383 463 328 471 l 485 446 q 674 374 614 428 q 735 219 735 321 q 663 49 735 110 q 450 -12 592 -12 l 390 -12 m 169 896 l 361 1090 l 500 1090 l 692 896 l 539 896 l 429 1001 l 324 896 l 169 896 z "},"ș":{"ha":833,"x_min":108,"x_max":735,"o":"m 390 -12 q 247 14 308 -12 q 149 87 185 40 q 108 197 114 133 l 258 197 q 299 137 264 160 q 390 114 333 114 l 450 114 q 553 142 518 114 q 588 215 588 169 q 556 285 588 260 q 464 319 525 311 l 365 335 q 185 405 243 354 q 128 556 128 456 q 197 719 128 661 q 400 776 265 776 l 453 776 q 644 722 572 776 q 725 575 715 667 l 575 575 q 538 629 569 608 q 453 650 507 650 l 400 650 q 305 626 335 650 q 275 554 275 601 q 301 492 275 513 q 383 463 328 471 l 485 446 q 674 374 614 428 q 735 219 735 321 q 663 49 735 110 q 450 -12 592 -12 l 390 -12 m 247 -333 l 379 -132 l 543 -132 l 393 -333 l 247 -333 z "},"ß":{"ha":833,"x_min":114,"x_max":749,"o":"m 114 0 l 114 735 q 152 889 114 822 q 258 992 190 956 q 418 1028 326 1028 q 581 997 511 1028 q 690 907 651 965 q 729 765 729 849 q 699 642 729 696 q 612 559 668 589 q 476 531 556 529 l 476 551 q 619 521 558 553 q 715 430 681 489 q 749 289 749 371 q 710 139 749 204 q 601 37 671 74 q 436 0 531 0 l 350 0 l 350 132 l 425 132 q 548 177 503 132 q 593 297 593 222 q 548 415 593 372 q 425 458 503 458 l 363 458 l 363 579 l 422 579 q 534 624 493 579 q 575 736 575 668 q 533 853 575 811 q 418 896 490 896 q 301 853 344 896 q 258 735 258 810 l 258 0 l 114 0 z "},"ſ":{"ha":833,"x_min":217,"x_max":718,"o":"m 217 0 l 217 774 q 286 948 217 882 q 471 1014 356 1014 l 718 1014 l 718 882 l 475 882 q 397 852 426 882 q 367 774 367 822 l 367 0 l 217 0 z "},"t":{"ha":833,"x_min":68,"x_max":728,"o":"m 500 0 q 338 57 396 0 q 279 215 279 114 l 279 628 l 68 628 l 68 764 l 279 764 l 279 979 l 429 979 l 429 764 l 728 764 l 728 628 l 429 628 l 429 215 q 506 136 429 136 l 714 136 l 714 0 l 500 0 z "},"ŧ":{"ha":833,"x_min":68,"x_max":728,"o":"m 113 324 l 113 444 l 665 444 l 665 324 l 113 324 m 500 0 q 338 57 396 0 q 279 215 279 114 l 279 628 l 68 628 l 68 764 l 279 764 l 279 979 l 429 979 l 429 764 l 728 764 l 728 628 l 429 628 l 429 215 q 506 136 429 136 l 714 136 l 714 0 l 500 0 z "},"ť":{"ha":833,"x_min":68,"x_max":778,"o":"m 519 861 l 640 1078 l 778 1078 l 643 861 l 519 861 m 500 0 q 338 57 396 0 q 279 215 279 114 l 279 628 l 68 628 l 68 764 l 279 764 l 279 979 l 429 979 l 429 764 l 728 764 l 728 628 l 429 628 l 429 215 q 506 136 429 136 l 714 136 l 714 0 l 500 0 z "},"ţ":{"ha":833,"x_min":68,"x_max":728,"o":"m 363 -292 l 363 -208 l 464 -208 q 514 -192 494 -208 q 533 -158 533 -176 q 494 -114 533 -132 q 383 -96 456 -96 l 432 32 l 518 32 l 489 -50 q 569 -68 528 -54 q 638 -108 610 -82 q 665 -172 665 -133 q 617 -256 665 -221 q 490 -292 569 -292 l 363 -292 m 500 0 q 338 57 396 0 q 279 215 279 114 l 279 628 l 68 628 l 68 764 l 279 764 l 279 979 l 429 979 l 429 764 l 728 764 l 728 628 l 429 628 l 429 215 q 506 136 429 136 l 714 136 l 714 0 l 500 0 z "},"ț":{"ha":833,"x_min":68,"x_max":728,"o":"m 500 0 q 338 57 396 0 q 279 215 279 114 l 279 628 l 68 628 l 68 764 l 279 764 l 279 979 l 429 979 l 429 764 l 728 764 l 728 628 l 429 628 l 429 215 q 506 136 429 136 l 714 136 l 714 0 l 500 0 m 258 -333 l 390 -132 l 554 -132 l 404 -333 l 258 -333 z "},"u":{"ha":833,"x_min":114,"x_max":719,"o":"m 415 -14 q 196 66 278 -14 q 114 283 114 146 l 114 764 l 264 764 l 264 283 q 304 160 264 204 q 415 117 344 117 q 528 160 488 117 q 569 283 569 204 l 569 764 l 719 764 l 719 283 q 637 66 719 146 q 415 -14 554 -14 z "},"ú":{"ha":833,"x_min":114,"x_max":719,"o":"m 415 -14 q 196 66 278 -14 q 114 283 114 146 l 114 764 l 264 764 l 264 283 q 304 160 264 204 q 415 117 344 117 q 528 160 488 117 q 569 283 569 204 l 569 764 l 719 764 l 719 283 q 637 66 719 146 q 415 -14 554 -14 m 324 896 l 471 1090 l 632 1090 l 475 896 l 324 896 z "},"ŭ":{"ha":833,"x_min":114,"x_max":719,"o":"m 415 -14 q 196 66 278 -14 q 114 283 114 146 l 114 764 l 264 764 l 264 283 q 304 160 264 204 q 415 117 344 117 q 528 160 488 117 q 569 283 569 204 l 569 764 l 719 764 l 719 283 q 637 66 719 146 q 415 -14 554 -14 m 417 888 q 249 943 313 888 q 185 1090 185 999 l 301 1090 q 333 1010 301 1040 q 415 979 364 979 q 501 1010 469 979 q 532 1090 532 1040 l 649 1090 q 585 943 649 999 q 417 888 521 888 z "},"û":{"ha":833,"x_min":114,"x_max":719,"o":"m 415 -14 q 196 66 278 -14 q 114 283 114 146 l 114 764 l 264 764 l 264 283 q 304 160 264 204 q 415 117 344 117 q 528 160 488 117 q 569 283 569 204 l 569 764 l 719 764 l 719 283 q 637 66 719 146 q 415 -14 554 -14 m 156 896 l 347 1090 l 486 1090 l 678 896 l 525 896 l 415 1001 l 310 896 l 156 896 z "},"ü":{"ha":833,"x_min":114,"x_max":719,"o":"m 415 -14 q 196 66 278 -14 q 114 283 114 146 l 114 764 l 264 764 l 264 283 q 304 160 264 204 q 415 117 344 117 q 528 160 488 117 q 569 283 569 204 l 569 764 l 719 764 l 719 283 q 637 66 719 146 q 415 -14 554 -14 m 575 896 q 506 922 532 896 q 481 990 481 947 q 506 1060 481 1035 q 575 1086 532 1086 q 645 1060 619 1086 q 671 990 671 1035 q 645 922 671 947 q 575 896 619 896 m 258 896 q 188 922 214 896 q 163 990 163 947 q 188 1060 163 1035 q 258 1086 214 1086 q 327 1060 301 1086 q 353 990 353 1035 q 327 922 353 947 q 258 896 301 896 z "},"ụ":{"ha":833,"x_min":114,"x_max":719,"o":"m 415 -14 q 196 66 278 -14 q 114 283 114 146 l 114 764 l 264 764 l 264 283 q 304 160 264 204 q 415 117 344 117 q 528 160 488 117 q 569 283 569 204 l 569 764 l 719 764 l 719 283 q 637 66 719 146 q 415 -14 554 -14 m 417 -304 q 339 -279 368 -304 q 310 -210 310 -254 q 339 -141 310 -167 q 417 -115 368 -115 q 494 -141 465 -115 q 524 -210 524 -167 q 494 -279 524 -254 q 417 -304 465 -304 z "},"ù":{"ha":833,"x_min":114,"x_max":719,"o":"m 415 -14 q 196 66 278 -14 q 114 283 114 146 l 114 764 l 264 764 l 264 283 q 304 160 264 204 q 415 117 344 117 q 528 160 488 117 q 569 283 569 204 l 569 764 l 719 764 l 719 283 q 637 66 719 146 q 415 -14 554 -14 m 358 896 l 197 1090 l 364 1090 l 514 896 l 358 896 z "},"ủ":{"ha":833,"x_min":114,"x_max":719,"o":"m 415 -14 q 196 66 278 -14 q 114 283 114 146 l 114 764 l 264 764 l 264 283 q 304 160 264 204 q 415 117 344 117 q 528 160 488 117 q 569 283 569 204 l 569 764 l 719 764 l 719 283 q 637 66 719 146 q 415 -14 554 -14 m 353 896 l 421 982 q 442 1025 442 1007 q 399 1051 442 1051 l 288 1051 l 288 1150 l 433 1150 q 525 1121 490 1150 q 560 1042 560 1092 q 533 964 560 997 l 481 896 l 353 896 z "},"ư":{"ha":833,"x_min":114,"x_max":847,"o":"m 114 282 l 114 764 l 264 764 l 264 281 q 302 160 264 203 q 407 117 340 117 q 514 160 475 117 q 553 281 553 203 l 553 764 l 676 764 q 713 776 700 764 q 725 813 725 789 l 725 917 l 847 917 l 847 807 q 811 700 847 740 q 703 660 775 660 l 703 282 q 622 65 703 144 q 407 -14 542 -14 q 194 65 274 -14 q 114 282 114 144 z "},"ứ":{"ha":833,"x_min":114,"x_max":847,"o":"m 114 282 l 114 764 l 264 764 l 264 281 q 302 160 264 203 q 407 117 340 117 q 514 160 475 117 q 553 281 553 203 l 553 764 l 676 764 q 713 776 700 764 q 725 813 725 789 l 725 917 l 847 917 l 847 807 q 811 700 847 740 q 703 660 775 660 l 703 282 q 622 65 703 144 q 407 -14 542 -14 q 194 65 274 -14 q 114 282 114 144 m 315 896 l 463 1090 l 624 1090 l 467 896 l 315 896 z "},"ự":{"ha":833,"x_min":114,"x_max":847,"o":"m 114 282 l 114 764 l 264 764 l 264 281 q 302 160 264 203 q 407 117 340 117 q 514 160 475 117 q 553 281 553 203 l 553 764 l 676 764 q 713 776 700 764 q 725 813 725 789 l 725 917 l 847 917 l 847 807 q 811 700 847 740 q 703 660 775 660 l 703 282 q 622 65 703 144 q 407 -14 542 -14 q 194 65 274 -14 q 114 282 114 144 m 407 -304 q 329 -279 358 -304 q 300 -210 300 -254 q 329 -141 300 -167 q 407 -115 358 -115 q 485 -141 456 -115 q 514 -210 514 -167 q 485 -279 514 -254 q 407 -304 456 -304 z "},"ừ":{"ha":833,"x_min":114,"x_max":847,"o":"m 114 282 l 114 764 l 264 764 l 264 281 q 302 160 264 203 q 407 117 340 117 q 514 160 475 117 q 553 281 553 203 l 553 764 l 676 764 q 713 776 700 764 q 725 813 725 789 l 725 917 l 847 917 l 847 807 q 811 700 847 740 q 703 660 775 660 l 703 282 q 622 65 703 144 q 407 -14 542 -14 q 194 65 274 -14 q 114 282 114 144 m 350 896 l 189 1090 l 356 1090 l 506 896 l 350 896 z "},"ử":{"ha":833,"x_min":114,"x_max":847,"o":"m 114 282 l 114 764 l 264 764 l 264 281 q 302 160 264 203 q 407 117 340 117 q 514 160 475 117 q 553 281 553 203 l 553 764 l 676 764 q 713 776 700 764 q 725 813 725 789 l 725 917 l 847 917 l 847 807 q 811 700 847 740 q 703 660 775 660 l 703 282 q 622 65 703 144 q 407 -14 542 -14 q 194 65 274 -14 q 114 282 114 144 m 353 896 l 421 982 q 442 1025 442 1007 q 399 1051 442 1051 l 288 1051 l 288 1150 l 433 1150 q 525 1121 490 1150 q 560 1042 560 1092 q 533 964 560 997 l 481 896 l 353 896 z "},"ữ":{"ha":833,"x_min":114,"x_max":847,"o":"m 114 282 l 114 764 l 264 764 l 264 281 q 302 160 264 203 q 407 117 340 117 q 514 160 475 117 q 553 281 553 203 l 553 764 l 676 764 q 713 776 700 764 q 725 813 725 789 l 725 917 l 847 917 l 847 807 q 811 700 847 740 q 703 660 775 660 l 703 282 q 622 65 703 144 q 407 -14 542 -14 q 194 65 274 -14 q 114 282 114 144 m 506 897 q 436 911 463 897 q 392 943 410 925 q 357 976 374 961 q 318 990 340 990 q 288 978 300 990 q 276 942 276 965 l 276 904 l 178 904 l 178 947 q 215 1051 178 1013 q 311 1089 251 1089 q 381 1075 354 1089 q 425 1043 407 1061 q 460 1010 443 1025 q 499 996 476 996 q 529 1008 518 996 q 540 1042 540 1019 l 540 1082 l 639 1082 l 639 1039 q 603 935 639 974 q 506 897 567 897 z "},"ű":{"ha":833,"x_min":114,"x_max":751,"o":"m 415 -14 q 196 66 278 -14 q 114 283 114 146 l 114 764 l 264 764 l 264 283 q 304 160 264 204 q 415 117 344 117 q 528 160 488 117 q 569 283 569 204 l 569 764 l 719 764 l 719 283 q 637 66 719 146 q 415 -14 554 -14 m 451 896 l 601 1090 l 751 1090 l 592 896 l 451 896 m 186 896 l 338 1090 l 486 1090 l 326 896 l 186 896 z "},"ū":{"ha":833,"x_min":114,"x_max":719,"o":"m 415 -14 q 196 66 278 -14 q 114 283 114 146 l 114 764 l 264 764 l 264 283 q 304 160 264 204 q 415 117 344 117 q 528 160 488 117 q 569 283 569 204 l 569 764 l 719 764 l 719 283 q 637 66 719 146 q 415 -14 554 -14 m 186 925 l 186 1043 l 647 1043 l 647 925 l 186 925 z "},"ų":{"ha":833,"x_min":114,"x_max":719,"o":"m 511 -292 q 385 -253 432 -292 q 338 -154 338 -214 q 364 -81 338 -119 q 451 3 390 -43 q 444 -4 450 0 q 431 -11 438 -8 q 417 -14 424 -14 q 194 66 275 -14 q 114 282 114 146 l 114 764 l 264 764 l 264 282 q 303 160 264 201 q 417 118 342 118 q 531 160 493 118 q 569 282 569 201 l 569 764 l 719 764 l 719 282 q 688 135 719 199 q 599 33 657 71 l 551 -7 q 491 -69 510 -40 q 472 -125 472 -99 q 492 -171 472 -153 q 544 -189 511 -189 l 632 -189 l 632 -292 l 511 -292 z "},"ů":{"ha":833,"x_min":114,"x_max":719,"o":"m 415 -14 q 196 66 278 -14 q 114 283 114 146 l 114 764 l 264 764 l 264 283 q 304 160 264 204 q 415 117 344 117 q 528 160 488 117 q 569 283 569 204 l 569 764 l 719 764 l 719 283 q 637 66 719 146 q 415 -14 554 -14 m 417 840 q 290 885 338 840 q 242 1004 242 931 q 290 1123 242 1078 q 417 1168 338 1168 q 544 1123 496 1168 q 592 1004 592 1078 q 544 885 592 931 q 417 840 496 840 m 417 921 q 477 944 454 921 q 500 1004 500 967 q 477 1066 500 1043 q 417 1089 454 1089 q 356 1066 379 1089 q 333 1004 333 1043 q 356 944 333 967 q 417 921 379 921 z "},"ũ":{"ha":833,"x_min":114,"x_max":719,"o":"m 415 -14 q 196 66 278 -14 q 114 283 114 146 l 114 764 l 264 764 l 264 283 q 304 160 264 204 q 415 117 344 117 q 528 160 488 117 q 569 283 569 204 l 569 764 l 719 764 l 719 283 q 637 66 719 146 q 415 -14 554 -14 m 514 897 q 444 911 471 897 q 400 943 418 925 q 365 976 382 961 q 326 990 349 990 q 297 978 308 990 q 285 942 285 965 l 285 904 l 186 904 l 186 947 q 223 1051 186 1013 q 319 1089 260 1089 q 389 1075 363 1089 q 433 1043 415 1061 q 468 1010 451 1025 q 507 996 485 996 q 538 1008 526 996 q 549 1042 549 1019 l 549 1082 l 647 1082 l 647 1039 q 611 935 647 974 q 514 897 575 897 z "},"v":{"ha":833,"x_min":65,"x_max":768,"o":"m 318 0 l 65 764 l 218 764 l 375 275 q 402 188 390 232 q 419 119 414 144 q 438 188 426 144 q 463 275 450 232 l 617 764 l 768 764 l 515 0 l 318 0 z "},"w":{"ha":833,"x_min":39,"x_max":794,"o":"m 157 0 l 39 764 l 165 764 l 236 260 q 247 183 242 225 q 254 113 251 140 q 263 182 257 140 q 275 260 269 224 l 354 764 l 481 764 l 558 260 q 570 181 564 224 q 579 111 576 139 q 588 183 582 140 q 600 260 594 225 l 672 764 l 794 764 l 672 0 l 514 0 l 439 499 q 426 581 433 538 q 417 651 419 625 q 406 581 413 625 q 394 499 400 538 l 317 0 l 157 0 z "},"ẃ":{"ha":833,"x_min":39,"x_max":794,"o":"m 157 0 l 39 764 l 165 764 l 236 260 q 247 183 242 225 q 254 113 251 140 q 263 182 257 140 q 275 260 269 224 l 354 764 l 481 764 l 558 260 q 570 181 564 224 q 579 111 576 139 q 588 183 582 140 q 600 260 594 225 l 672 764 l 794 764 l 672 0 l 514 0 l 439 499 q 426 581 433 538 q 417 651 419 625 q 406 581 413 625 q 394 499 400 538 l 317 0 l 157 0 m 324 896 l 471 1090 l 632 1090 l 475 896 l 324 896 z "},"ŵ":{"ha":833,"x_min":39,"x_max":794,"o":"m 157 0 l 39 764 l 165 764 l 236 260 q 247 183 242 225 q 254 113 251 140 q 263 182 257 140 q 275 260 269 224 l 354 764 l 481 764 l 558 260 q 570 181 564 224 q 579 111 576 139 q 588 183 582 140 q 600 260 594 225 l 672 764 l 794 764 l 672 0 l 514 0 l 439 499 q 426 581 433 538 q 417 651 419 625 q 406 581 413 625 q 394 499 400 538 l 317 0 l 157 0 m 156 896 l 347 1090 l 486 1090 l 678 896 l 525 896 l 415 1001 l 310 896 l 156 896 z "},"ẅ":{"ha":833,"x_min":39,"x_max":794,"o":"m 157 0 l 39 764 l 165 764 l 236 260 q 247 183 242 225 q 254 113 251 140 q 263 182 257 140 q 275 260 269 224 l 354 764 l 481 764 l 558 260 q 570 181 564 224 q 579 111 576 139 q 588 183 582 140 q 600 260 594 225 l 672 764 l 794 764 l 672 0 l 514 0 l 439 499 q 426 581 433 538 q 417 651 419 625 q 406 581 413 625 q 394 499 400 538 l 317 0 l 157 0 m 575 896 q 506 922 532 896 q 481 990 481 947 q 506 1060 481 1035 q 575 1086 532 1086 q 645 1060 619 1086 q 671 990 671 1035 q 645 922 671 947 q 575 896 619 896 m 258 896 q 188 922 214 896 q 163 990 163 947 q 188 1060 163 1035 q 258 1086 214 1086 q 327 1060 301 1086 q 353 990 353 1035 q 327 922 353 947 q 258 896 301 896 z "},"ẁ":{"ha":833,"x_min":39,"x_max":794,"o":"m 157 0 l 39 764 l 165 764 l 236 260 q 247 183 242 225 q 254 113 251 140 q 263 182 257 140 q 275 260 269 224 l 354 764 l 481 764 l 558 260 q 570 181 564 224 q 579 111 576 139 q 588 183 582 140 q 600 260 594 225 l 672 764 l 794 764 l 672 0 l 514 0 l 439 499 q 426 581 433 538 q 417 651 419 625 q 406 581 413 625 q 394 499 400 538 l 317 0 l 157 0 m 358 896 l 197 1090 l 364 1090 l 514 896 l 358 896 z "},"x":{"ha":833,"x_min":60,"x_max":774,"o":"m 60 0 l 328 394 l 76 764 l 249 764 l 383 553 q 403 517 393 536 q 418 486 413 499 q 432 517 422 499 q 451 553 442 536 l 586 764 l 758 764 l 507 393 l 774 0 l 601 0 l 453 229 q 433 267 443 246 q 418 300 424 288 q 402 267 413 288 q 381 229 392 246 l 231 0 l 60 0 z "},"y":{"ha":833,"x_min":64,"x_max":769,"o":"m 239 -250 l 349 44 l 64 764 l 229 764 l 389 333 q 408 267 399 306 q 425 203 418 228 q 440 267 431 228 q 460 333 450 306 l 610 764 l 769 764 l 397 -250 l 239 -250 z "},"ý":{"ha":833,"x_min":64,"x_max":769,"o":"m 239 -250 l 349 44 l 64 764 l 229 764 l 389 333 q 408 267 399 306 q 425 203 418 228 q 440 267 431 228 q 460 333 450 306 l 610 764 l 769 764 l 397 -250 l 239 -250 m 324 896 l 471 1090 l 632 1090 l 475 896 l 324 896 z "},"ŷ":{"ha":833,"x_min":64,"x_max":769,"o":"m 239 -250 l 349 44 l 64 764 l 229 764 l 389 333 q 408 267 399 306 q 425 203 418 228 q 440 267 431 228 q 460 333 450 306 l 610 764 l 769 764 l 397 -250 l 239 -250 m 156 896 l 347 1090 l 486 1090 l 678 896 l 525 896 l 415 1001 l 310 896 l 156 896 z "},"ÿ":{"ha":833,"x_min":64,"x_max":769,"o":"m 239 -250 l 349 44 l 64 764 l 229 764 l 389 333 q 408 267 399 306 q 425 203 418 228 q 440 267 431 228 q 460 333 450 306 l 610 764 l 769 764 l 397 -250 l 239 -250 m 575 896 q 506 922 532 896 q 481 990 481 947 q 506 1060 481 1035 q 575 1086 532 1086 q 645 1060 619 1086 q 671 990 671 1035 q 645 922 671 947 q 575 896 619 896 m 258 896 q 188 922 214 896 q 163 990 163 947 q 188 1060 163 1035 q 258 1086 214 1086 q 327 1060 301 1086 q 353 990 353 1035 q 327 922 353 947 q 258 896 301 896 z "},"ỵ":{"ha":833,"x_min":64,"x_max":769,"o":"m 239 -250 l 349 44 l 64 764 l 229 764 l 389 333 q 408 267 399 306 q 425 203 418 228 q 440 267 431 228 q 460 333 450 306 l 610 764 l 769 764 l 397 -250 l 239 -250 m 644 -304 q 567 -279 596 -304 q 538 -210 538 -254 q 567 -141 538 -167 q 644 -115 596 -115 q 722 -141 693 -115 q 751 -210 751 -167 q 722 -279 751 -254 q 644 -304 693 -304 z "},"ỳ":{"ha":833,"x_min":64,"x_max":769,"o":"m 239 -250 l 349 44 l 64 764 l 229 764 l 389 333 q 408 267 399 306 q 425 203 418 228 q 440 267 431 228 q 460 333 450 306 l 610 764 l 769 764 l 397 -250 l 239 -250 m 358 896 l 197 1090 l 364 1090 l 514 896 l 358 896 z "},"ỷ":{"ha":833,"x_min":64,"x_max":769,"o":"m 239 -250 l 349 44 l 64 764 l 229 764 l 389 333 q 408 267 399 306 q 425 203 418 228 q 440 267 431 228 q 460 333 450 306 l 610 764 l 769 764 l 397 -250 l 239 -250 m 358 896 l 426 982 q 447 1025 447 1007 q 404 1051 447 1051 l 293 1051 l 293 1150 l 439 1150 q 531 1121 496 1150 q 565 1042 565 1092 q 539 964 565 997 l 486 896 l 358 896 z "},"ȳ":{"ha":833,"x_min":64,"x_max":769,"o":"m 239 -250 l 349 44 l 64 764 l 229 764 l 389 333 q 408 267 399 306 q 425 203 418 228 q 440 267 431 228 q 460 333 450 306 l 610 764 l 769 764 l 397 -250 l 239 -250 m 186 925 l 186 1043 l 647 1043 l 647 925 l 186 925 z "},"ỹ":{"ha":833,"x_min":64,"x_max":769,"o":"m 239 -250 l 349 44 l 64 764 l 229 764 l 389 333 q 408 267 399 306 q 425 203 418 228 q 440 267 431 228 q 460 333 450 306 l 610 764 l 769 764 l 397 -250 l 239 -250 m 514 897 q 444 911 471 897 q 400 943 418 925 q 365 976 382 961 q 326 990 349 990 q 297 978 308 990 q 285 942 285 965 l 285 904 l 186 904 l 186 947 q 223 1051 186 1013 q 319 1089 260 1089 q 389 1075 363 1089 q 433 1043 415 1061 q 468 1010 451 1025 q 507 996 485 996 q 538 1008 526 996 q 549 1042 549 1019 l 549 1082 l 647 1082 l 647 1039 q 611 935 647 974 q 514 897 575 897 z "},"z":{"ha":833,"x_min":117,"x_max":717,"o":"m 117 0 l 117 142 l 529 631 l 129 631 l 129 764 l 701 764 l 701 622 l 283 133 l 717 133 l 717 0 l 117 0 z "},"ź":{"ha":833,"x_min":117,"x_max":717,"o":"m 117 0 l 117 142 l 529 631 l 129 631 l 129 764 l 701 764 l 701 622 l 283 133 l 717 133 l 717 0 l 117 0 m 324 896 l 471 1090 l 632 1090 l 475 896 l 324 896 z "},"ž":{"ha":833,"x_min":117,"x_max":717,"o":"m 117 0 l 117 142 l 529 631 l 129 631 l 129 764 l 701 764 l 701 622 l 283 133 l 717 133 l 717 0 l 117 0 m 347 896 l 156 1090 l 308 1090 l 418 985 l 524 1090 l 678 1090 l 486 896 l 347 896 z "},"ż":{"ha":833,"x_min":117,"x_max":717,"o":"m 117 0 l 117 142 l 529 631 l 129 631 l 129 764 l 701 764 l 701 622 l 283 133 l 717 133 l 717 0 l 117 0 m 417 896 q 339 922 368 896 q 310 990 310 947 q 339 1060 310 1035 q 417 1086 368 1086 q 494 1060 465 1086 q 524 990 524 1035 q 494 922 524 947 q 417 896 465 896 z "},"ª":{"ha":833,"x_min":239,"x_max":588,"o":"m 510 632 l 510 708 l 506 708 l 506 903 q 483 947 506 931 q 424 964 461 964 q 368 950 390 964 q 342 915 346 936 l 260 915 q 312 998 268 968 q 424 1028 356 1028 q 543 994 499 1028 q 588 903 588 961 l 588 632 l 510 632 m 376 625 q 276 658 314 625 q 239 746 239 690 q 279 832 239 800 q 389 864 319 864 l 521 864 l 521 804 l 389 804 q 339 789 357 804 q 321 746 321 774 q 342 701 321 718 q 399 685 364 685 q 477 708 449 685 q 506 771 506 732 l 521 771 l 521 708 l 506 708 q 457 647 492 669 q 376 625 422 625 z "},"º":{"ha":833,"x_min":249,"x_max":585,"o":"m 417 619 q 294 663 340 619 q 249 772 249 706 l 249 871 q 294 981 249 939 q 417 1022 340 1022 q 539 981 493 1022 q 585 871 585 939 l 585 772 q 539 663 585 706 q 417 619 493 619 m 417 688 q 479 711 456 688 q 503 772 503 735 l 503 871 q 479 932 503 908 q 417 956 456 956 q 354 932 378 956 q 331 871 331 908 l 331 772 q 354 711 331 735 q 417 688 378 688 z "},"А":{"ha":833,"x_min":60,"x_max":774,"o":"m 60 0 l 318 1014 l 515 1014 l 774 0 l 622 0 l 561 257 l 274 257 l 213 0 l 60 0 m 301 381 l 532 381 l 463 674 q 433 809 444 751 q 417 888 421 867 q 401 809 413 867 q 371 675 390 751 l 301 381 z "},"Б":{"ha":833,"x_min":119,"x_max":749,"o":"m 119 0 l 119 1014 l 706 1014 l 706 876 l 267 876 l 267 601 l 425 601 q 597 564 525 601 q 709 459 669 526 q 749 301 749 392 q 709 142 749 210 q 597 38 669 75 q 425 0 525 0 l 119 0 m 267 132 l 425 132 q 551 177 506 132 q 596 300 596 222 q 551 424 596 379 q 425 469 506 469 l 267 469 l 267 132 z "},"В":{"ha":833,"x_min":118,"x_max":749,"o":"m 118 0 l 118 1014 l 417 1014 q 643 944 561 1014 q 725 753 725 875 q 695 633 725 683 q 613 554 665 582 q 489 526 560 526 l 489 540 q 624 512 565 542 q 715 424 682 482 q 749 285 749 365 q 710 134 749 199 q 602 35 672 69 q 436 0 532 0 l 118 0 m 264 129 l 424 129 q 551 172 504 129 q 599 292 599 215 q 551 417 599 369 q 424 464 504 464 l 264 464 l 264 129 m 264 589 l 415 589 q 533 629 490 589 q 576 738 576 669 q 533 845 576 806 q 417 885 490 885 l 264 885 l 264 589 z "},"Г":{"ha":833,"x_min":147,"x_max":744,"o":"m 147 0 l 147 1014 l 744 1014 l 744 876 l 296 876 l 296 0 l 147 0 z "},"Ѓ":{"ha":833,"x_min":147,"x_max":744,"o":"m 147 0 l 147 1014 l 744 1014 l 744 876 l 296 876 l 296 0 l 147 0 m 331 1125 l 478 1319 l 639 1319 l 482 1125 l 331 1125 z "},"Ґ":{"ha":833,"x_min":147,"x_max":744,"o":"m 147 0 l 147 1014 l 603 1014 l 603 1146 l 744 1146 l 744 876 l 296 876 l 296 0 l 147 0 z "},"Д":{"ha":833,"x_min":33,"x_max":800,"o":"m 33 -194 l 33 128 l 90 128 q 122 201 106 156 q 151 306 139 247 q 165 432 164 365 l 175 1014 l 707 1014 l 707 128 l 800 128 l 800 -194 l 664 -194 l 664 0 l 169 0 l 169 -194 l 33 -194 m 243 128 l 561 128 l 561 883 l 315 883 l 308 432 q 285 247 307 328 q 243 128 263 165 z "},"Е":{"ha":833,"x_min":131,"x_max":726,"o":"m 131 0 l 131 1014 l 726 1014 l 726 881 l 278 881 l 278 593 l 678 593 l 678 461 l 278 461 l 278 133 l 726 133 l 726 0 l 131 0 z "},"Ё":{"ha":833,"x_min":131,"x_max":726,"o":"m 131 0 l 131 1014 l 726 1014 l 726 881 l 278 881 l 278 593 l 678 593 l 678 461 l 278 461 l 278 133 l 726 133 l 726 0 l 131 0 m 603 1129 q 534 1154 560 1129 q 508 1222 508 1179 q 534 1292 508 1267 q 603 1318 560 1318 q 673 1292 647 1318 q 699 1222 699 1267 q 673 1154 699 1179 q 603 1129 647 1129 m 286 1129 q 216 1154 242 1129 q 190 1222 190 1179 q 216 1292 190 1267 q 286 1318 242 1318 q 355 1292 329 1318 q 381 1222 381 1267 q 355 1154 381 1179 q 286 1129 329 1129 z "},"Ж":{"ha":833,"x_min":15,"x_max":818,"o":"m 15 0 l 183 519 l 28 1014 l 169 1014 l 304 560 l 358 560 l 358 1014 l 474 1014 l 474 560 l 529 560 l 663 1014 l 804 1014 l 650 519 l 818 0 l 678 0 l 532 475 l 474 475 l 476 0 l 360 0 l 358 475 l 300 475 l 156 0 l 15 0 z "},"З":{"ha":833,"x_min":68,"x_max":750,"o":"m 407 -14 q 235 20 310 -14 q 117 116 161 54 q 68 261 74 178 l 218 261 q 276 156 225 194 q 407 118 328 118 q 544 164 493 118 q 596 283 596 210 q 545 403 596 358 q 407 449 494 449 l 276 449 l 276 583 l 406 583 q 534 631 486 583 q 582 749 582 679 q 534 858 582 819 q 406 896 486 896 q 282 854 329 896 q 232 743 235 813 l 82 743 q 125 893 83 829 q 240 992 167 957 q 408 1028 313 1028 q 644 962 557 1028 q 732 775 732 896 q 701 649 732 704 q 613 563 669 593 q 478 533 557 532 l 478 554 q 622 523 561 556 q 717 430 683 490 q 750 289 750 369 q 708 132 750 200 q 589 25 667 64 q 407 -14 511 -14 z "},"И":{"ha":833,"x_min":113,"x_max":721,"o":"m 113 0 l 113 1014 l 251 1014 l 251 482 q 249 375 251 433 q 244 263 247 317 q 238 171 240 208 l 532 1014 l 721 1014 l 721 0 l 582 0 l 582 524 q 584 633 582 574 q 590 749 586 693 q 597 843 594 804 l 301 0 l 113 0 z "},"Й":{"ha":833,"x_min":113,"x_max":721,"o":"m 113 0 l 113 1014 l 251 1014 l 251 482 q 249 375 251 433 q 244 263 247 317 q 238 171 240 208 l 532 1014 l 721 1014 l 721 0 l 582 0 l 582 524 q 584 633 582 574 q 590 749 586 693 q 597 843 594 804 l 301 0 l 113 0 m 417 1117 q 249 1172 313 1117 q 185 1319 185 1228 l 301 1319 q 333 1239 301 1269 q 415 1208 364 1208 q 501 1239 469 1208 q 532 1319 532 1269 l 649 1319 q 585 1172 649 1228 q 417 1117 521 1117 z "},"К":{"ha":833,"x_min":117,"x_max":783,"o":"m 117 0 l 117 1014 l 267 1014 l 267 592 l 401 592 l 608 1014 l 772 1014 l 533 528 l 783 0 l 615 0 l 399 457 l 267 457 l 267 0 l 117 0 z "},"Ќ":{"ha":833,"x_min":117,"x_max":783,"o":"m 324 1125 l 471 1319 l 632 1319 l 475 1125 l 324 1125 m 117 0 l 117 1014 l 267 1014 l 267 592 l 401 592 l 608 1014 l 772 1014 l 533 528 l 783 0 l 615 0 l 399 457 l 267 457 l 267 0 l 117 0 z "},"Л":{"ha":833,"x_min":26,"x_max":714,"o":"m 26 -7 l 26 131 l 56 131 q 135 181 110 131 q 163 343 161 231 l 174 1014 l 714 1014 l 714 0 l 564 0 l 564 876 l 322 876 l 313 343 q 248 81 310 168 q 65 -7 186 -7 l 26 -7 z "},"М":{"ha":833,"x_min":92,"x_max":742,"o":"m 92 0 l 92 1014 l 276 1014 l 378 689 q 404 601 393 643 q 419 538 415 558 q 435 601 425 558 q 460 689 446 643 l 557 1014 l 742 1014 l 742 0 l 600 0 l 600 342 q 603 487 600 407 q 614 648 607 567 q 628 803 621 729 q 640 933 635 878 l 490 440 l 346 440 l 193 933 q 207 808 200 879 q 219 656 214 736 q 229 494 225 575 q 233 342 233 413 l 233 0 l 92 0 z "},"Н":{"ha":833,"x_min":118,"x_max":715,"o":"m 118 0 l 118 1014 l 268 1014 l 268 594 l 565 594 l 565 1014 l 715 1014 l 715 0 l 565 0 l 565 456 l 268 456 l 268 0 l 118 0 z "},"О":{"ha":833,"x_min":111,"x_max":722,"o":"m 417 -14 q 253 22 322 -14 q 148 124 185 57 q 111 282 111 192 l 111 732 q 148 890 111 824 q 253 992 185 957 q 417 1028 322 1028 q 580 992 511 1028 q 685 890 649 957 q 722 733 722 824 l 722 282 q 685 124 722 192 q 580 22 649 57 q 417 -14 511 -14 m 417 119 q 533 162 493 119 q 572 282 572 204 l 572 732 q 533 853 572 811 q 417 894 493 894 q 301 853 342 894 q 261 732 261 811 l 261 282 q 301 162 261 204 q 417 119 342 119 z "},"П":{"ha":833,"x_min":119,"x_max":714,"o":"m 119 0 l 119 1014 l 714 1014 l 714 0 l 564 0 l 564 876 l 269 876 l 269 0 l 119 0 z "},"Р":{"ha":833,"x_min":117,"x_max":772,"o":"m 117 0 l 117 1014 l 449 1014 q 620 976 547 1014 q 733 870 693 939 q 772 708 772 801 q 732 547 772 617 q 619 440 692 478 q 449 403 547 403 l 267 403 l 267 0 l 117 0 m 267 538 l 449 538 q 573 584 526 538 q 619 708 619 631 q 573 833 619 788 q 449 879 526 879 l 267 879 l 267 538 z "},"С":{"ha":833,"x_min":111,"x_max":732,"o":"m 422 -14 q 258 22 328 -14 q 149 124 188 57 q 111 282 111 192 l 111 732 q 149 890 111 824 q 258 992 188 957 q 422 1028 328 1028 q 586 992 517 1028 q 694 890 656 956 q 732 732 732 824 l 582 732 q 540 853 582 811 q 422 894 499 894 q 303 853 346 894 q 261 733 261 811 l 261 282 q 303 162 261 204 q 422 119 346 119 q 540 162 499 119 q 582 282 582 204 l 732 282 q 694 125 732 192 q 586 22 656 58 q 422 -14 517 -14 z "},"Т":{"ha":833,"x_min":71,"x_max":763,"o":"m 342 0 l 342 876 l 71 876 l 71 1015 l 763 1015 l 763 876 l 492 876 l 492 0 l 342 0 z "},"У":{"ha":833,"x_min":60,"x_max":774,"o":"m 253 0 l 356 261 l 60 1014 l 222 1014 l 389 543 q 416 458 406 500 q 429 392 426 415 q 441 458 432 415 q 464 543 450 500 l 614 1014 l 774 1014 l 411 0 l 253 0 z "},"Ў":{"ha":833,"x_min":60,"x_max":774,"o":"m 253 0 l 356 261 l 60 1014 l 222 1014 l 389 543 q 416 458 406 500 q 429 392 426 415 q 441 458 432 415 q 464 543 450 500 l 614 1014 l 774 1014 l 411 0 l 253 0 m 417 1117 q 249 1172 313 1117 q 185 1319 185 1228 l 301 1319 q 333 1239 301 1269 q 415 1208 364 1208 q 501 1239 469 1208 q 532 1319 532 1269 l 649 1319 q 585 1172 649 1228 q 417 1117 521 1117 z "},"Ф":{"ha":833,"x_min":65,"x_max":768,"o":"m 351 -35 l 351 63 q 201 99 265 63 q 101 202 136 136 q 65 356 65 268 l 65 674 q 101 831 65 765 q 201 935 136 897 q 351 972 265 972 l 351 1069 l 482 1069 l 482 972 q 633 935 569 972 q 733 831 697 897 q 768 674 768 765 l 768 356 q 733 202 768 268 q 633 99 697 136 q 482 63 569 63 l 482 -35 l 351 -35 m 353 185 l 353 850 q 272 828 307 850 q 219 768 238 807 q 200 674 200 729 l 200 356 q 219 265 200 303 q 272 206 238 226 q 353 185 307 185 m 481 185 q 562 206 528 185 q 615 265 596 226 q 633 356 633 303 l 633 674 q 615 768 633 729 q 562 828 596 807 q 481 850 528 850 l 481 185 z "},"Х":{"ha":833,"x_min":47,"x_max":786,"o":"m 47 0 l 333 517 l 64 1014 l 233 1014 l 375 738 q 400 685 388 711 q 419 644 413 658 q 438 685 425 658 q 463 738 450 711 l 607 1014 l 769 1014 l 500 522 l 786 0 l 617 0 l 460 300 q 433 353 446 326 q 414 396 421 381 q 396 354 408 381 q 371 301 383 328 l 211 0 l 47 0 z "},"Ч":{"ha":833,"x_min":94,"x_max":711,"o":"m 563 0 l 563 388 q 498 378 544 383 q 385 374 451 374 q 173 453 251 374 q 94 668 94 533 l 94 1014 l 243 1014 l 243 672 q 290 553 243 597 q 414 508 336 508 q 510 513 472 508 q 563 522 549 518 l 563 1014 l 711 1014 l 711 0 l 563 0 z "},"Ц":{"ha":833,"x_min":119,"x_max":790,"o":"m 654 -194 l 654 0 l 119 0 l 119 1014 l 269 1014 l 269 136 l 536 136 l 536 1014 l 686 1014 l 686 136 l 790 136 l 790 -194 l 654 -194 z "},"Ш":{"ha":833,"x_min":79,"x_max":754,"o":"m 81 0 l 79 1014 l 211 1014 l 211 108 l 361 108 l 361 1014 l 474 1014 l 474 108 l 622 108 l 622 1014 l 754 1014 l 754 0 l 81 0 z "},"Щ":{"ha":833,"x_min":79,"x_max":804,"o":"m 672 -194 l 672 0 l 79 0 l 79 1014 l 204 1014 l 204 115 l 350 115 l 350 1014 l 460 1014 l 460 115 l 606 115 l 606 1014 l 731 1014 l 731 115 l 804 115 l 804 -194 l 672 -194 z "},"Џ":{"ha":833,"x_min":119,"x_max":714,"o":"m 342 -174 l 342 0 l 119 0 l 119 1014 l 269 1014 l 269 138 l 564 138 l 564 1014 l 714 1014 l 714 0 l 492 0 l 492 -174 l 342 -174 z "},"Ь":{"ha":833,"x_min":119,"x_max":772,"o":"m 119 0 l 119 1014 l 269 1014 l 269 603 l 450 603 q 619 565 547 603 q 732 460 692 528 q 772 301 772 393 q 732 143 772 211 q 619 38 692 75 q 450 0 547 0 l 119 0 m 269 133 l 446 133 q 572 179 524 133 q 619 301 619 225 q 572 424 619 378 q 446 469 524 469 l 269 469 l 269 133 z "},"Ъ":{"ha":833,"x_min":-7,"x_max":772,"o":"m 178 0 l 178 885 l -7 885 l -7 1014 l 326 1014 l 326 603 l 450 603 q 619 565 547 603 q 732 460 692 528 q 772 301 772 393 q 732 143 772 211 q 619 38 692 75 q 450 0 547 0 l 178 0 m 326 133 l 446 133 q 572 179 524 133 q 619 301 619 225 q 572 424 619 378 q 446 469 524 469 l 326 469 l 326 133 z "},"Ы":{"ha":833,"x_min":81,"x_max":753,"o":"m 81 0 l 81 1014 l 214 1014 l 214 603 l 264 603 q 461 532 389 603 q 533 339 533 461 l 533 263 q 462 70 533 140 q 264 0 390 0 l 81 0 m 214 125 l 264 125 q 365 162 329 125 q 400 264 400 199 l 400 339 q 365 442 400 406 q 264 479 329 479 l 214 479 l 214 125 m 619 0 l 619 1014 l 753 1014 l 753 0 l 619 0 z "},"Љ":{"ha":833,"x_min":-8,"x_max":810,"o":"m -8 -7 l -8 118 l 17 118 q 74 160 53 118 q 96 274 94 203 l 104 1014 l 514 1014 l 514 603 l 575 603 q 746 542 682 603 q 810 375 810 481 l 810 228 q 746 62 810 124 q 575 0 682 0 l 388 0 l 388 896 l 231 896 l 224 274 q 167 69 222 146 q 18 -7 111 -7 l -8 -7 m 514 118 l 575 118 q 653 148 624 118 q 682 228 682 178 l 682 375 q 653 455 682 425 q 575 485 624 485 l 514 485 l 514 118 z "},"Њ":{"ha":833,"x_min":68,"x_max":810,"o":"m 68 0 l 68 1014 l 196 1014 l 196 607 l 388 607 l 388 1014 l 514 1014 l 514 607 l 575 607 q 747 546 685 607 q 810 379 810 485 l 810 228 q 747 61 810 122 q 575 0 685 0 l 388 0 l 388 489 l 196 489 l 196 0 l 68 0 m 514 118 l 575 118 q 654 148 626 118 q 682 228 682 178 l 682 379 q 654 460 682 432 q 575 489 626 489 l 514 489 l 514 118 z "},"Ѕ":{"ha":833,"x_min":90,"x_max":743,"o":"m 421 -14 q 244 20 318 -14 q 131 117 171 54 q 90 268 90 181 l 239 268 q 288 159 239 199 q 422 119 336 119 q 549 158 503 119 q 594 265 594 197 q 563 364 594 322 q 474 421 532 406 l 346 458 q 174 567 235 490 q 114 751 114 644 q 151 897 114 835 q 258 994 189 960 q 422 1029 328 1029 q 645 954 561 1029 q 731 753 729 879 l 581 753 q 538 858 581 819 q 419 896 496 896 q 304 860 346 896 q 263 761 263 825 q 294 663 263 704 q 383 604 325 621 l 513 565 q 683 457 624 535 q 743 271 743 379 q 703 122 743 186 q 590 22 663 57 q 421 -14 518 -14 z "},"Є":{"ha":833,"x_min":113,"x_max":731,"o":"m 422 -14 q 258 22 328 -14 q 151 124 189 57 q 113 282 113 192 l 113 732 q 151 890 113 824 q 258 992 189 957 q 422 1028 328 1028 q 586 992 517 1028 q 693 890 656 956 q 731 732 731 824 l 581 732 q 540 853 581 811 q 422 896 499 896 q 304 853 346 896 q 263 733 263 811 l 263 579 l 567 579 l 567 443 l 263 443 l 263 282 q 304 161 263 204 q 422 118 346 118 q 540 161 499 118 q 581 282 581 204 l 731 282 q 693 125 731 192 q 586 22 656 58 q 422 -14 517 -14 z "},"Э":{"ha":833,"x_min":103,"x_max":721,"o":"m 411 -14 q 248 22 318 -14 q 140 125 178 58 q 103 282 103 192 l 253 282 q 294 161 253 204 q 411 118 336 118 q 529 161 488 118 q 571 282 571 204 l 571 443 l 267 443 l 267 579 l 571 579 l 571 733 q 529 853 571 811 q 411 896 488 896 q 294 853 336 896 q 253 732 253 811 l 103 732 q 140 890 103 824 q 248 992 178 956 q 411 1028 318 1028 q 576 992 507 1028 q 683 890 644 957 q 721 732 721 824 l 721 282 q 683 124 721 192 q 576 22 644 57 q 411 -14 507 -14 z "},"І":{"ha":833,"x_min":136,"x_max":697,"o":"m 136 0 l 136 133 l 340 133 l 340 881 l 136 881 l 136 1014 l 697 1014 l 697 881 l 493 881 l 493 133 l 697 133 l 697 0 l 136 0 z "},"Ї":{"ha":833,"x_min":136,"x_max":697,"o":"m 136 0 l 136 133 l 340 133 l 340 881 l 136 881 l 136 1014 l 697 1014 l 697 881 l 493 881 l 493 133 l 697 133 l 697 0 l 136 0 m 575 1129 q 506 1154 532 1129 q 481 1222 481 1179 q 506 1292 481 1267 q 575 1318 532 1318 q 645 1292 619 1318 q 671 1222 671 1267 q 645 1154 671 1179 q 575 1129 619 1129 m 258 1129 q 188 1154 214 1129 q 163 1222 163 1179 q 188 1292 163 1267 q 258 1318 214 1318 q 327 1292 301 1318 q 353 1222 353 1267 q 327 1154 353 1179 q 258 1129 301 1129 z "},"Ј":{"ha":833,"x_min":53,"x_max":697,"o":"m 375 -14 q 139 69 225 -14 q 53 296 53 153 l 201 296 q 247 165 201 211 q 375 118 293 118 q 503 165 457 118 q 549 294 549 211 l 549 876 l 310 876 l 310 1014 l 697 1014 l 697 294 q 610 69 697 151 q 375 -14 524 -14 z "},"Ћ":{"ha":833,"x_min":0,"x_max":760,"o":"m 149 0 l 149 879 l 0 879 l 0 1014 l 461 1014 l 461 879 l 299 879 l 299 560 l 319 582 q 536 688 419 688 q 699 617 638 688 q 760 428 760 547 l 760 0 l 610 0 l 610 407 q 581 521 610 482 q 499 560 553 560 q 356 482 429 560 l 299 422 l 299 0 l 149 0 z "},"Ю":{"ha":833,"x_min":75,"x_max":782,"o":"m 542 -14 q 375 56 436 -14 q 314 246 314 126 l 314 460 l 207 460 l 207 0 l 75 0 l 75 1014 l 207 1014 l 207 582 l 314 582 l 314 768 q 375 958 314 889 q 542 1028 436 1028 q 717 958 653 1028 q 782 768 782 889 l 782 246 q 717 56 782 126 q 542 -14 653 -14 m 542 108 q 622 143 594 108 q 650 242 650 178 l 650 772 q 622 871 650 836 q 542 906 594 906 q 461 871 489 906 q 433 772 433 836 l 433 242 q 461 143 433 178 q 542 108 489 108 z "},"Я":{"ha":833,"x_min":69,"x_max":714,"o":"m 69 0 l 272 436 q 132 540 183 465 q 81 717 81 615 q 120 874 81 807 q 231 977 160 940 q 399 1014 303 1014 l 714 1014 l 714 0 l 564 0 l 564 417 l 422 417 l 238 0 l 69 0 m 399 549 l 564 549 l 564 882 l 399 882 q 278 837 324 882 q 233 714 233 792 q 278 594 233 639 q 399 549 324 549 z "},"Ђ":{"ha":833,"x_min":0,"x_max":760,"o":"m 371 -250 l 371 -110 l 464 -110 q 571 -72 532 -110 q 610 32 610 -33 l 610 407 q 581 521 610 482 q 499 560 553 560 q 356 482 429 560 l 299 422 l 299 0 l 149 0 l 149 879 l 0 879 l 0 1014 l 461 1014 l 461 879 l 299 879 l 299 560 l 319 582 q 536 688 419 688 q 699 617 638 688 q 760 428 760 547 l 760 25 q 722 -119 760 -57 q 617 -216 685 -182 q 460 -250 550 -250 l 371 -250 z "},"Ү":{"ha":833,"x_min":40,"x_max":793,"o":"m 342 0 l 342 374 l 40 1014 l 196 1014 l 375 631 q 404 560 393 593 q 419 510 415 528 q 434 560 422 528 q 463 631 446 593 l 638 1014 l 793 1014 l 492 374 l 492 0 l 342 0 z "},"Ө":{"ha":833,"x_min":113,"x_max":721,"o":"m 417 -14 q 193 67 274 -14 q 113 285 113 147 l 113 731 q 193 948 113 868 q 417 1028 274 1028 q 640 948 560 1028 q 721 731 721 868 l 721 285 q 684 127 721 194 q 579 23 647 60 q 417 -14 511 -14 m 417 117 q 535 162 494 117 q 576 288 576 207 l 576 454 l 257 454 l 257 288 q 298 162 257 207 q 417 117 339 117 m 257 583 l 576 583 l 576 728 q 535 853 576 808 q 417 897 494 897 q 298 853 339 897 q 257 728 257 808 l 257 583 z "},"а":{"ha":833,"x_min":83,"x_max":719,"o":"m 340 -14 q 152 48 221 -14 q 83 217 83 110 q 156 387 83 325 q 357 449 229 449 l 569 449 l 569 519 q 531 617 569 582 q 421 651 492 651 q 317 624 358 651 q 268 553 275 597 l 121 553 q 216 717 133 656 q 425 778 299 778 q 640 709 561 778 q 719 522 719 640 l 719 0 l 574 0 l 574 140 l 549 140 l 574 168 q 510 35 574 85 q 340 -14 446 -14 m 385 101 q 517 142 465 101 q 569 247 569 183 l 569 347 l 360 347 q 267 315 301 347 q 233 228 233 283 q 274 135 233 169 q 385 101 314 101 z "},"б":{"ha":833,"x_min":113,"x_max":721,"o":"m 417 -14 q 194 67 276 -12 q 113 286 113 147 l 113 632 q 208 915 113 815 q 479 1014 303 1014 l 683 1014 l 683 867 l 479 867 q 317 806 372 867 q 263 632 263 746 l 263 540 l 282 540 l 264 514 q 317 641 264 594 q 465 688 371 688 q 653 609 586 688 q 721 393 721 531 l 721 286 q 684 126 721 193 q 579 22 647 58 q 417 -14 511 -14 m 417 118 q 531 162 492 118 q 571 286 571 206 l 571 393 q 531 519 571 475 q 417 563 492 563 q 302 519 342 563 q 263 393 263 476 l 263 286 q 302 162 263 206 q 417 118 342 118 z "},"в":{"ha":833,"x_min":118,"x_max":739,"o":"m 118 0 l 118 764 l 454 764 q 650 710 579 764 q 721 560 721 656 q 664 433 721 481 q 514 386 607 386 l 514 399 q 677 349 615 399 q 739 218 739 300 q 665 58 739 115 q 463 0 592 0 l 118 0 m 265 121 l 460 121 q 556 149 521 121 q 592 225 592 176 q 556 303 592 275 q 460 332 521 332 l 265 332 l 265 121 m 265 443 l 454 443 q 542 469 510 443 q 574 543 574 496 q 542 616 574 589 q 454 643 510 643 l 265 643 l 265 443 z "},"г":{"ha":833,"x_min":175,"x_max":733,"o":"m 175 0 l 175 764 l 733 764 l 733 626 l 324 626 l 324 0 l 175 0 z "},"ѓ":{"ha":833,"x_min":175,"x_max":733,"o":"m 175 0 l 175 764 l 733 764 l 733 626 l 324 626 l 324 0 l 175 0 m 365 896 l 513 1090 l 674 1090 l 517 896 l 365 896 z "},"ґ":{"ha":833,"x_min":175,"x_max":733,"o":"m 175 0 l 175 764 l 590 764 l 590 910 l 733 910 l 733 626 l 324 626 l 324 0 l 175 0 z "},"д":{"ha":833,"x_min":39,"x_max":790,"o":"m 39 -194 l 39 128 l 94 128 q 144 217 118 151 q 171 385 169 283 l 179 764 l 697 764 l 697 128 l 790 128 l 790 -194 l 654 -194 l 654 0 l 175 0 l 175 -194 l 39 -194 m 250 128 l 551 128 l 551 632 l 319 632 l 314 383 q 291 216 313 282 q 250 128 269 150 z "},"е":{"ha":833,"x_min":108,"x_max":725,"o":"m 417 -14 q 253 23 324 -14 q 146 126 183 60 q 108 282 108 193 l 108 482 q 146 638 108 572 q 253 741 183 704 q 417 778 324 778 q 581 741 511 778 q 688 638 650 704 q 725 482 725 572 l 725 346 l 253 346 l 253 282 q 295 153 253 197 q 418 108 338 108 q 524 131 483 108 q 574 199 564 154 l 722 199 q 622 44 706 101 q 417 -14 539 -14 m 581 436 l 581 483 q 539 613 581 567 q 417 658 497 658 q 295 613 338 658 q 253 482 253 567 l 253 447 l 592 449 l 581 436 z "}}}
